<?xml version="1.0" standalone="no"?>
<!DOCTYPE svg PUBLIC "-//W3C//DTD SVG 1.1//EN" "http://www.w3.org/Graphics/SVG/1.1/DTD/svg11.dtd" >
<svg xmlns="http://www.w3.org/2000/svg">
<metadata>
Created by FontPrep 20130207 at Thu Sep 24 11:37:27 2015
 By Andrew Lucas
Copyright (c) 2004-7 by Kris Sowersby. All rights reserved.
</metadata>
<defs>
<font id="62964daa208bbf45b5fd237d4707a30a" horiz-adv-x='1024' >
  <font-face 
    font-family="National-Book"
    font-weight="400"
    font-stretch="normal"
    units-per-em="2048"
    panose-1="2 0 5 3 0 0 0 2 0 4"
    ascent="1638"
    descent="-410"
    x-height="946"
    cap-height="1206"
    bbox="-205 -526 2417 1958"
    underline-thickness="116"
    underline-position="57"
    unicode-range="U+0020-F778"
  />
<missing-glyph horiz-adv-x="1245" 
 />
    <glyph glyph-name="f_b" unicode="fb" horiz-adv-x="1593" 
d="M825 549v-191q0 -132 74 -198q73 -66 181 -66t185 100t77 281q0 182 -67 274q-67 91 -183 91t-191 -78q-76 -78 -76 -213zM670 0v1208q-84 47 -170 47q-176 0 -176 -198v-111h204v-125h-204v-821h-156v821h-137v125h137v111q0 170 96 248q96 77 222 77t212 -45l127 31
v-604q33 100 115 152t186 53q176 0 276 -123t99 -347q1 -224 -109 -374t-296 -150q-223 0 -287 162l-41 -137h-98z" />
    <glyph glyph-name="f_f_b" unicode="ffb" horiz-adv-x="2095" 
d="M2003 499q0 -224 -110 -374t-296 -150q-223 0 -286 162l-41 -137h-99v1208q-84 47 -170 47q-176 0 -176 -198v-111h205v-125h-205v-821h-155v821h-346v-821h-156v821h-137v125h137v109q0 165 83 237t193 72t181 -37l-33 -135q-66 41 -137 41q-131 0 -131 -170v-117h346
v111q0 170 96 248q96 77 222 77t212 -45l127 31v-604q33 100 115 152t186 53q176 0 276 -123t99 -347zM1327 549v-191q0 -132 74 -198q73 -66 181 -66t184 100t77 281q0 182 -66 274q-67 91 -183 91t-192 -78t-75 -213z" />
    <glyph glyph-name="f_f_h" unicode="ffh" horiz-adv-x="2043" 
d="M1610 969q129 0 210 -73t81 -218v-678h-156v641q0 193 -188 193q-96 0 -163 -66t-67 -217v-551h-156v1208q-84 47 -170 47q-176 0 -176 -198v-111h205v-125h-205v-821h-155v821h-346v-821h-156v821h-137v125h137v109q0 165 83 237t193 72t181 -37l-33 -135
q-66 41 -137 41q-131 0 -131 -170v-117h346v111q0 170 96 248q96 77 222 77t212 -45l127 31v-602q66 203 283 203z" />
    <glyph glyph-name="f_f_j" unicode="ffj" horiz-adv-x="1480" 
d="M825 821v-821h-155v821h-346v-821h-156v821h-137v125h137v109q0 165 83 237t193 72t181 -37l-33 -135q-66 41 -137 41q-131 0 -131 -170v-117h346v103q0 176 98 255q98 78 239 78t242 -67l-55 -129q-88 66 -184 66t-140 -49q-45 -48 -45 -159v-98h502v-969
q0 -223 -104 -311t-318 -82v131q139 -10 203 48q63 58 63 190v868h-346z" />
    <glyph glyph-name="f_f_k" unicode="ffk" horiz-adv-x="1941" 
d="M1327 557h43l338 389h193l-398 -440l428 -506h-196l-353 434h-55v-434h-156v1208q-84 47 -170 47q-176 0 -176 -198v-111h205v-125h-205v-821h-155v821h-346v-821h-156v821h-137v125h137v109q0 165 83 237t193 72t181 -37l-33 -135q-66 41 -137 41q-131 0 -131 -170v-117
h346v111q0 170 96 248q96 77 222 77t212 -45l127 31v-811z" />
    <glyph glyph-name="f_h" unicode="fh" horiz-adv-x="1542" 
d="M1108 969q129 0 210 -73t81 -218v-678h-156v641q0 193 -188 193q-96 0 -163 -66t-67 -217v-551h-155v1208q-84 47 -170 47q-176 0 -176 -198v-111h204v-125h-204v-821h-156v821h-137v125h137v111q0 170 96 248q96 77 222 77t212 -45l127 31v-602q66 203 283 203z" />
    <glyph glyph-name="f_j" unicode="fj" horiz-adv-x="978" 
d="M670 -47v868h-346v-821h-156v821h-137v125h137v103q0 176 98 255q98 78 240 78t242 -67l-56 -129q-88 66 -183 66t-140 -49q-45 -48 -45 -159v-98h501v-969q0 -223 -104 -311t-318 -82v131q139 -9 203 49t64 189z" />
    <glyph glyph-name="f_k" unicode="fk" horiz-adv-x="1439" 
d="M825 557h43l338 389h193l-398 -440l429 -506h-197l-352 434h-56v-434h-155v1208q-84 47 -170 47q-176 0 -176 -198v-111h204v-125h-204v-821h-156v821h-137v125h137v111q0 170 96 248q96 77 222 77t212 -45l127 31v-811z" />
    <glyph glyph-name="ff" unicode="ff" horiz-adv-x="1058" 
d="M670 821h-346v-821h-156v821h-137v125h137v109q0 165 83 237t193 72t181 -37l-33 -135q-66 41 -137 41q-131 0 -131 -170v-117h346v119q0 166 88 242t219 75q92 0 184 -36l-33 -136q-76 41 -147 41q-156 0 -156 -194v-111h242v-125h-242v-821h-155v821z" />
    <glyph glyph-name="ffi" unicode="ffi" horiz-adv-x="1480" 
d="M670 946v103q0 176 98 255q98 78 239 78t242 -67l-55 -129q-88 66 -184 66t-140 -49q-45 -48 -45 -159v-98h502v-946h-156v821h-346v-821h-155v821h-346v-821h-156v821h-137v125h137v109q0 165 83 237t193 72t181 -37l-33 -135q-66 41 -137 41q-131 0 -131 -170v-117h346
z" />
    <glyph glyph-name="ffl" unicode="ffl" horiz-adv-x="1544" 
d="M670 946v111q0 170 96 248q96 77 222 77t212 -45l127 31v-1165q0 -86 82 -86q29 0 64 10v-129q-57 -12 -101 -12q-88 0 -144 49t-57 143v1030q-84 47 -170 47q-176 0 -176 -198v-111h205v-125h-205v-821h-155v821h-346v-821h-156v821h-137v125h137v109q0 165 83 237
t193 72t181 -37l-33 -135q-66 41 -137 41q-131 0 -131 -170v-117h346z" />
    <glyph glyph-name="fi" unicode="fi" horiz-adv-x="978" 
d="M168 821h-137v125h137v103q0 176 98 255q98 78 240 78t242 -67l-56 -129q-88 66 -183 66t-140 -49q-45 -48 -45 -159v-98h501v-946h-155v821h-346v-821h-156v821z" />
    <glyph glyph-name="fl" unicode="fl" horiz-adv-x="1042" 
d="M870 -14q-88 0 -144 49t-56 143v1030q-84 47 -170 47q-176 0 -176 -198v-111h204v-125h-204v-821h-156v821h-137v125h137v111q0 170 96 248q96 77 222 77t212 -45l127 31v-1165q0 -86 82 -86q29 0 64 10v-129q-57 -12 -101 -12z" />
    <glyph glyph-name=".notdef" horiz-adv-x="1245" 
 />
    <glyph glyph-name=".null" horiz-adv-x="0" 
 />
    <glyph glyph-name="nonmarkingreturn" horiz-adv-x="681" 
 />
    <glyph glyph-name="space" unicode=" " horiz-adv-x="452" 
 />
    <glyph glyph-name="exclam" unicode="!" horiz-adv-x="458" 
d="M113 104q0 49 33 83q34 34 83 34t83 -34t34 -83q0 -48 -34 -82t-83 -34t-83 34t-33 82zM127 1206h205l-49 -866h-107z" />
    <glyph glyph-name="quotedbl" unicode="&#x22;" horiz-adv-x="667" 
d="M408 844v524h178l-80 -524h-98zM123 844v524h178l-80 -524h-98z" />
    <glyph glyph-name="numbersign" unicode="#" horiz-adv-x="1234" 
d="M539 616l-58 -186h224l55 186h-221zM1112 309h-319l-93 -309h-122l92 309h-224l-92 -309h-123l93 309h-242v121h276l56 186h-291v121h328l73 248h125l-76 -248h224l73 248h125l-75 -248h233v-121h-268l-58 -186h285v-121z" />
    <glyph glyph-name="dollar" unicode="$" horiz-adv-x="901" 
d="M668 244q0 66 -32 104t-112 58v-310q144 27 144 148zM262 736q0 -64 35 -102q35 -37 125 -56v311q-74 -9 -117 -49t-43 -104zM422 -217v192q-313 10 -350 263l157 20q14 -150 193 -166v336l-68 14q-244 51 -243 281q0 133 87 203t224 82v168h102v-168q266 -20 293 -260
l-160 -17q-10 123 -133 152v-328l27 -4q268 -57 268 -295q0 -127 -79 -195t-216 -81v-197h-102z" />
    <glyph glyph-name="percent" unicode="%" horiz-adv-x="1753" 
d="M1399 627q-74 0 -114 -73t-40 -193q0 -119 40 -195t114 -76q73 0 113 76t40 196t-40 192q-40 73 -113 73zM1399 -14q-135 0 -209 102t-74 273t77 275t206 103q129 0 206 -103q77 -102 77 -274t-74 -274t-209 -102zM508 0l627 1208h114l-624 -1208h-117zM354 1110
q-74 0 -114 -73t-39 -193q0 -120 40 -195q39 -76 113 -76t114 76t40 196q0 121 -40 193t-114 72zM354 469q-135 0 -209 102q-73 101 -73 273t76 275q77 103 206 103t206 -102q77 -104 77 -275t-74 -273t-209 -103z" />
    <glyph glyph-name="ampersand" unicode="&#x26;" horiz-adv-x="1112" 
d="M472 1116q-79 0 -123 -41t-44 -115t94 -176l66 -69q94 41 133 96t39 137t-43 125t-122 43zM205 308q-1 -99 65 -155t162 -57q193 0 313 131l-337 346q-104 -41 -154 -103q-49 -63 -49 -162zM432 -25q-174 0 -277 81t-104 241q0 252 273 360l-48 52q-114 125 -114 249
t85 198q85 75 225 75t225 -75q85 -76 85 -192t-53 -195t-180 -136l270 -283q43 84 47 242l144 -33q-25 -201 -92 -305l174 -176l-109 -103l-154 164q-154 -164 -397 -164z" />
    <glyph glyph-name="quotesingle" unicode="'" horiz-adv-x="382" 
d="M123 844v524h178l-80 -524h-98z" />
    <glyph glyph-name="parenleft" unicode="(" horiz-adv-x="673" 
d="M297 478q0 -265 90 -466t277 -426h-177q-164 195 -254 407t-90 484q0 273 90 485t254 406h177q-186 -227 -276 -426t-91 -464z" />
    <glyph glyph-name="parenright" unicode=")" horiz-adv-x="673" 
d="M377 478q0 265 -90 464t-277 426h176q164 -194 254 -406t90 -484t-90 -486q-90 -213 -254 -406h-176q186 225 277 426q90 201 90 466z" />
    <glyph glyph-name="asterisk" unicode="*" horiz-adv-x="722" 
d="M430 1206l-22 -202l180 88l43 -127l-203 -35l141 -156l-108 -78l-101 181l-98 -183l-106 82l141 154l-205 35l45 125l180 -86l-24 202h137z" />
    <glyph glyph-name="plus" unicode="+" horiz-adv-x="1019" 
d="M92 555h367v356h94v-356h375v-94h-375v-385h-94v385h-367v94z" />
    <glyph glyph-name="comma" unicode="," horiz-adv-x="575" 
d="M412 55q0 -262 -289 -282v80q158 25 158 149q-59 -12 -98 18q-38 31 -38 85t34 85t91 31q58 0 100 -45t42 -121z" />
    <glyph glyph-name="hyphen" unicode="-" horiz-adv-x="745" 
d="M143 459v131h459v-131h-459z" />
    <glyph glyph-name="period" unicode="." horiz-adv-x="581" 
d="M164 115q0 53 37 90t90 37t90 -37t37 -90t-37 -90t-90 -37t-90 37t-37 90z" />
    <glyph glyph-name="slash" unicode="/" horiz-adv-x="788" 
d="M20 -416l562 1786h145l-565 -1786h-142z" />
    <glyph glyph-name="zero" unicode="0" horiz-adv-x="1198" 
d="M600 877q-162 0 -251 -108t-89 -281t88 -277q88 -105 251 -105t251 104t88 278q0 173 -88 281t-250 108zM600 -25q-231 -1 -364 145q-134 146 -134 370t134 372t364 148q232 0 364 -148t132 -372t-132 -370t-364 -145z" />
    <glyph glyph-name="one" unicode="1" horiz-adv-x="710" 
d="M485 0h-155v831l-289 -55v131l444 94v-1001z" />
    <glyph glyph-name="two" unicode="2" horiz-adv-x="892" 
d="M811 129v-129h-739v129q535 250 534 557q0 96 -53 146t-138 51q-85 -1 -139 -55t-61 -158l-143 28q20 166 119 239t241 73t238 -77t96 -255t-151 -328q-151 -152 -357 -213v-8h553z" />
    <glyph glyph-name="three" unicode="3" horiz-adv-x="897" 
d="M774 46q0 -144 -112 -236t-276 -92q-165 0 -267 76q-102 77 -119 210l150 27q37 -195 241 -195q107 0 167 60t60 163q0 227 -352 265v125q190 29 261 89t71 156t-56 143q-56 46 -139 46q-168 0 -204 -176l-146 32q27 123 118 197t237 74t246 -76t100 -213t-86 -223
t-236 -101v-10q152 -12 247 -104t95 -237z" />
    <glyph glyph-name="four" unicode="4" horiz-adv-x="1015" 
d="M360 236h250v331l8 246h-8q-39 -78 -135 -211l-170 -231q-71 -94 -110 -133v-9q34 7 165 7zM610 -268v379h-579v102l575 772h158v-749h201v-125h-201v-379h-154z" />
    <glyph glyph-name="five" unicode="5" horiz-adv-x="880" 
d="M754 985v-135h-453l-16 -432q70 63 203 63t227 -98q94 -97 94 -281t-112 -285t-285 -101t-270 77q-97 78 -111 209l135 31q35 -203 244 -203q114 0 184 67t70 197t-67 202q-67 73 -181 73q-76 0 -150 -41h-121l25 657h584z" />
    <glyph glyph-name="six" unicode="6" horiz-adv-x="1050" 
d="M552 100q110 0 184 73t73 194q0 121 -73 195q-74 74 -184 73q-110 1 -182 -73t-73 -195q0 -121 73 -194q72 -73 182 -73zM583 1104q-159 0 -246 -155t-89 -443h6q27 124 113 192t204 68q179 0 283 -111t104 -281t-110 -284q-110 -115 -308 -115t-313 152t-115 458
t138 476q137 170 342 170q254 0 346 -238l-139 -57q-57 168 -216 168z" />
    <glyph glyph-name="seven" unicode="7" horiz-adv-x="917" 
d="M201 850v-154h-150v289h785v-104l-463 -1149h-154l451 1118h-469z" />
    <glyph glyph-name="eight" unicode="8" horiz-adv-x="1011" 
d="M506 555q-110 0 -182 -61t-72 -170t69 -172q69 -64 185 -64t186 64q68 64 68 172q0 109 -72 170t-182 61zM506 1118q-106 0 -166 -57t-61 -163q0 -106 61 -163q62 -57 166 -57t166 57q61 57 61 163t-60 163q-61 57 -167 57zM506 -25q-180 0 -292 88t-112 242
q0 221 226 303v10q-203 68 -203 287q0 147 106 237q107 90 275 89q168 0 274 -89t107 -237q0 -219 -203 -287v-10q225 -82 225 -303q1 -154 -111 -242t-292 -88z" />
    <glyph glyph-name="nine" unicode="9" horiz-adv-x="1038" 
d="M480 885q-112 0 -186 -74t-75 -199q0 -124 75 -200q74 -76 186 -76t186 76t73 201q0 124 -73 198q-74 74 -186 74zM434 -166q354 0 354 658h-8q-20 -137 -106 -208t-209 -71q-180 0 -286 112q-105 113 -105 279t107 286t309 120t319 -148t117 -460t-128 -498t-368 -187
q-289 0 -379 236l137 55q61 -174 246 -174z" />
    <glyph glyph-name="colon" unicode=":" horiz-adv-x="581" 
d="M164 819q0 53 37 90t90 37t90 -37t37 -90t-37 -90t-90 -37t-90 37t-37 90zM164 115q0 53 37 90t90 37t90 -37t37 -90t-37 -90t-90 -37t-90 37t-37 90z" />
    <glyph glyph-name="semicolon" unicode=";" horiz-adv-x="575" 
d="M145 819q0 53 37 90t90 37t90 -37t37 -90t-37 -90t-90 -37t-90 37t-37 90zM412 55q0 -262 -289 -282v80q158 25 158 149q-59 -12 -98 18q-38 31 -38 85t34 85t91 31q58 0 100 -45t42 -121z" />
    <glyph glyph-name="less" unicode="&#x3c;" horiz-adv-x="776" 
d="M670 866l-437 -360l439 -367l-62 -71l-518 438l518 434z" />
    <glyph glyph-name="equal" unicode="=" horiz-adv-x="1019" 
d="M928 586h-836v94h836v-94zM928 328h-836v94h836v-94z" />
    <glyph glyph-name="greater" unicode="&#x3e;" horiz-adv-x="776" 
d="M530 506l-434 360l60 74l516 -434l-516 -438l-64 71z" />
    <glyph glyph-name="question" unicode="?" horiz-adv-x="776" 
d="M197 104q0 49 33 83q34 34 83 34t83 -34t34 -83q0 -48 -34 -82t-83 -34t-83 34t-33 82zM375 1231q160 0 260 -98t100 -262q0 -163 -105 -263t-245 -104v-182h-143v274h63q127 0 200 67t73 195t-60 185q-60 58 -162 59q-188 0 -223 -193l-133 49q27 123 121 198t254 75z
" />
    <glyph glyph-name="at" unicode="@" horiz-adv-x="1808" 
d="M1233 817v-627q0 -109 92 -108q123 0 180 121t57 293q1 445 -399 570q-113 36 -243 36t-252 -42q-268 -93 -375 -340q-57 -134 -57 -311t60 -315t166 -221q211 -164 519 -164q213 0 369 60l28 -117q-184 -62 -360 -62t-299 25t-240 85t-201 152t-135 236q-51 143 -51 324
q0 358 227 583t611 226q188 1 339 -55q279 -103 385 -369q48 -123 48 -262q0 -559 -389 -560q-203 0 -221 164q-61 -164 -263 -164q-133 0 -228 110q-95 109 -95 313t96 321t270 117q80 0 142 -37t80 -88l49 106h90zM1092 319v189q0 102 -65 156t-144 55q-227 0 -228 -324
q1 -145 61 -223t152 -78t158 60t66 165z" />
    <glyph glyph-name="A" unicode="A" horiz-adv-x="1134" 
d="M467 803l-111 -316h414l-108 314q-67 189 -84 272l-9 37h-8q-28 -121 -94 -307zM942 0l-125 356h-506l-125 -356h-166l441 1206h217l436 -1206h-172z" />
    <glyph glyph-name="B" unicode="B" horiz-adv-x="1050" 
d="M334 539v-406h221q244 0 244 215q0 190 -246 191h-219zM334 670h192q104 0 164 51q59 51 60 153q0 199 -236 199h-180v-403zM532 0h-358v1206h361q377 0 376 -307q-1 -117 -61 -189t-158 -87v-7q115 -8 191 -78t75 -198q0 -162 -105 -251t-321 -89z" />
    <glyph glyph-name="C" unicode="C" horiz-adv-x="1138" 
d="M92 599q0 296 153 464t402 168q319 0 440 -285l-145 -72q-39 109 -120 165t-187 57q-175 0 -275 -132t-100 -362t92 -358q92 -127 269 -127q121 0 201 45t151 149l112 -94q-83 -127 -193 -184t-280 -58q-238 0 -379 164t-141 460z" />
    <glyph glyph-name="D" unicode="D" horiz-adv-x="1198" 
d="M524 0h-350v1206h352q270 0 425 -142t155 -452t-163 -462q-163 -150 -419 -150zM334 133h174q196 0 312 118q116 119 116 363t-114 352t-296 107h-192v-940z" />
    <glyph glyph-name="E" unicode="E" horiz-adv-x="997" 
d="M895 139v-139h-721v1206h721v-139h-561v-395h497v-140h-497v-393h561z" />
    <glyph glyph-name="F" unicode="F" horiz-adv-x="919" 
d="M334 0h-160v1206h684v-139h-524v-395h461v-140h-461v-532z" />
    <glyph glyph-name="G" unicode="G" horiz-adv-x="1236" 
d="M637 614h467v-614h-141l-19 162q-33 -86 -128 -136t-204 -51q-238 0 -379 164t-141 460t153 464t402 168q328 0 440 -285l-145 -72q-39 109 -120 165t-187 57q-175 0 -275 -132t-100 -360t92 -362q92 -133 269 -133q135 1 229 65t94 191v106h-307v143z" />
    <glyph glyph-name="H" unicode="H" horiz-adv-x="1277" 
d="M334 0h-160v1206h160v-524h610v524h160v-1206h-160v543h-610v-543z" />
    <glyph glyph-name="I" unicode="I" horiz-adv-x="507" 
d="M174 1206h160v-1206h-160v1206z" />
    <glyph glyph-name="J" unicode="J" horiz-adv-x="872" 
d="M580 1206h159v-856q0 -198 -103 -286t-263 -89q-260 0 -373 238l129 84q51 -106 104 -146t157 -40q104 -1 147 71t43 209v815z" />
    <glyph glyph-name="K" unicode="K" horiz-adv-x="1069" 
d="M334 543v-543h-160v1206h160v-524h106l371 524h188l-432 -585l461 -621h-197l-397 543h-100z" />
    <glyph glyph-name="L" unicode="L" horiz-adv-x="935" 
d="M174 1206h160v-1067h561v-139h-721v1206z" />
    <glyph glyph-name="M" unicode="M" horiz-adv-x="1458" 
d="M334 758v-758h-160v1206h199l305 -608q40 -81 53 -135h8q12 53 54 135l305 608h186v-1206h-160v758l11 221h-9q-16 -74 -90 -213l-245 -465h-123l-246 465q-65 120 -84 190l-6 23h-8q10 -76 10 -221z" />
    <glyph glyph-name="N" unicode="N" horiz-adv-x="1314" 
d="M981 518v688h160v-1206h-166l-498 727q-46 68 -127 211l-20 39h-8q12 -137 12 -289v-688h-160v1206h170l492 -727q69 -102 127 -213l20 -37h8q-10 137 -10 289z" />
    <glyph glyph-name="O" unicode="O" horiz-adv-x="1253" 
d="M627 1092q-179 0 -273 -129t-94 -361t94 -360q94 -129 272 -129t273 129q94 129 94 360q0 230 -94 360t-272 130zM627 -25q-246 0 -390 165q-145 165 -145 463t144 463t391 165q246 0 390 -165t144 -463t-144 -463t-390 -165z" />
    <glyph glyph-name="P" unicode="P" horiz-adv-x="999" 
d="M334 0h-160v1206h342q422 0 422 -358q0 -180 -102 -284t-304 -103h-198v-461zM334 1073v-481h184q137 0 195 63q57 63 57 181q0 238 -256 237h-180z" />
    <glyph glyph-name="Q" unicode="Q" horiz-adv-x="1253" 
d="M627 1092q-179 0 -273 -129t-94 -361t94 -360q94 -129 272 -129t273 129q94 129 94 360q0 230 -94 360t-272 130zM92 620q0 282 144 446q144 165 391 165q246 0 390 -165q144 -166 144 -452t-124 -449t-339 -185q127 -141 344 -125l-53 -148q-182 -4 -302 73t-165 204
q-202 34 -316 194t-114 442z" />
    <glyph glyph-name="R" unicode="R" horiz-adv-x="1103" 
d="M334 1073v-430h235q238 0 238 215t-238 215h-235zM508 512h-174v-512h-160v1206h399q401 0 402 -336q0 -137 -82 -216t-201 -83v-4q88 -10 138 -56t75 -144l62 -242q18 -74 61 -125h-174q-35 43 -49 109l-51 219q-27 108 -84 146t-162 38z" />
    <glyph glyph-name="S" unicode="S" horiz-adv-x="952" 
d="M484 1233q162 0 266 -77q106 -77 118 -243l-155 -24q-7 103 -71 161t-162 58t-158 -52q-59 -52 -60 -143q0 -49 16 -84t62 -65q45 -30 83 -45q38 -16 119 -48t126 -55q45 -22 98 -64q106 -83 105 -244t-115 -247t-289 -86q-361 1 -406 320l152 27q35 -223 260 -224
q109 0 172 49t63 139t-54 143q-56 52 -222 115t-206 100q-90 81 -105 141q-16 59 -17 114q0 170 109 252t271 82z" />
    <glyph glyph-name="T" unicode="T" horiz-adv-x="919" 
d="M539 0h-160v1067h-359v139h879v-139h-360v-1067z" />
    <glyph glyph-name="U" unicode="U" horiz-adv-x="1173" 
d="M881 1206h159v-813q0 -309 -288 -395q-78 -23 -166 -23t-166 23q-287 85 -287 395v813h160v-774q0 -326 294 -326t294 320v780z" />
    <glyph glyph-name="V" unicode="V" horiz-adv-x="1052" 
d="M193 1206l253 -800q38 -117 74 -267l6 -35h9q16 111 75 299l256 803h166l-399 -1206h-217l-396 1206h173z" />
    <glyph glyph-name="W" unicode="W" horiz-adv-x="1658" 
d="M928 1206l202 -786q33 -123 62 -285l6 -37h8q16 129 66 320l207 788h159l-327 -1206h-226l-198 750q-45 168 -51 280l-2 37h-9q-8 -125 -57 -317l-195 -750h-225l-328 1206h170l203 -782q30 -111 62 -287l6 -39h8q14 133 66 324l213 784h180z" />
    <glyph glyph-name="X" unicode="X" horiz-adv-x="1050" 
d="M854 0l-242 362q-64 94 -86 148h-8q-8 -31 -86 -150l-235 -360h-177l416 610l-395 596h184l211 -329q82 -126 84 -146l4 -10h6q6 27 86 153l209 332h174l-387 -577l418 -629h-176z" />
    <glyph glyph-name="Y" unicode="Y" horiz-adv-x="950" 
d="M567 0h-159v475l-388 731h181l207 -413q67 -131 79 -189h9q14 57 73 187l193 415h168l-363 -731v-475z" />
    <glyph glyph-name="Z" unicode="Z" horiz-adv-x="946" 
d="M428 139h477v-139h-864v84l543 831q56 87 100 134l12 16v8q-51 -6 -180 -6h-446v139h829v-104l-539 -811q-30 -45 -58 -82t-40 -53l-14 -15v-8q51 6 180 6z" />
    <glyph glyph-name="bracketleft" unicode="[" horiz-adv-x="643" 
d="M315 1253v-1552h256v-117h-397v1786h397v-117h-256z" />
    <glyph glyph-name="backslash" unicode="\" horiz-adv-x="788" 
d="M205 1370l563 -1786h-143l-564 1786h144z" />
    <glyph glyph-name="bracketright" unicode="]" horiz-adv-x="643" 
d="M328 -299v1552h-256v117h397v-1786h-397v117h256z" />
    <glyph glyph-name="asciicircum" unicode="^" horiz-adv-x="1021" 
d="M797 657l-185 359q-77 147 -96 241h-8q-4 -66 -96 -239l-191 -361h-160l390 711h122l388 -711h-164z" />
    <glyph glyph-name="underscore" unicode="_" horiz-adv-x="985" 
d="M102 -170v125h781v-125h-781z" />
    <glyph glyph-name="grave" unicode="`" horiz-adv-x="704" 
d="M532 1085h-133l-235 293h215z" />
    <glyph glyph-name="a" unicode="a" horiz-adv-x="966" 
d="M793 684v-481q0 -88 71 -88q33 0 51 8v-125q-45 -12 -84 -12q-166 0 -184 153q-68 -164 -280 -164q-127 0 -206 69t-79 185q0 340 555 314v127q-1 172 -185 172t-196 -158l-143 21q10 139 111 201q102 62 242 62t234 -66t93 -218zM637 281v151q-205 4 -302 -41t-97 -143
q0 -68 43 -110t127 -42t156 52q73 52 73 133z" />
    <glyph glyph-name="b" unicode="b" horiz-adv-x="1077" 
d="M154 0v1368h155v-604q33 100 115 152t186 53q176 0 276 -123t99 -347q1 -224 -109 -374t-296 -150q-224 0 -287 162l-41 -137h-98zM309 549v-191q0 -132 74 -198q73 -66 181 -66t185 100t77 281q0 182 -67 274q-67 91 -183 91t-192 -78t-75 -213z" />
    <glyph glyph-name="c" unicode="c" horiz-adv-x="929" 
d="M498 -25q-184 0 -295 129t-111 364t114 368t308 133q148 0 236 -75t96 -216l-146 -23q-29 184 -196 185q-125 0 -194 -102q-68 -102 -68 -268q0 -165 74 -267t198 -103q168 0 213 162l131 -29q-41 -258 -360 -258z" />
    <glyph glyph-name="d" unicode="d" horiz-adv-x="1077" 
d="M766 1368h158v-1368h-138l-18 164q-76 -188 -303 -189q-157 0 -265 127t-108 363t111 370t313 134q88 1 160 -45t90 -107v551zM768 371v221q0 122 -77 188t-187 66t-182 -92q-74 -92 -74 -280t72 -280q72 -94 180 -94q110 0 189 72t79 199z" />
    <glyph glyph-name="e" unicode="e" horiz-adv-x="972" 
d="M729 606q0 100 -62 169t-167 69q-104 0 -172 -72t-82 -209h481q2 16 2 43zM514 98q176 0 221 164l137 -31q-47 -256 -370 -256q-188 0 -299 129t-111 364t114 368t298 133t280 -110t97 -290q0 -86 -19 -131h-620q8 -154 78 -247t194 -93z" />
    <glyph glyph-name="f" unicode="f" horiz-adv-x="557" 
d="M168 821h-137v125h137v119q0 166 88 242t219 75q92 0 184 -36l-32 -136q-76 41 -148 41q-156 0 -155 -194v-111h241v-125h-241v-821h-156v821z" />
    <glyph glyph-name="g" unicode="g" horiz-adv-x="980" 
d="M244 638q0 -102 58 -160t162 -58t164 54t60 160t-60 164q-60 56 -164 54t-163 -57q-57 -56 -57 -157zM170 -170q0 -150 268 -149q338 0 338 172q0 141 -176 141h-194q-236 0 -236 -164zM92 633q0 156 102 246t272 90q171 0 271 -82q55 25 74 143l139 -49
q-10 -68 -51 -112t-102 -56q45 -72 45 -180q0 -158 -106 -243t-269 -85q-82 0 -125 17q-72 -37 -72 -105q0 -86 111 -86h219q326 0 326 -258q0 -237 -319 -291q-83 -14 -181 -14q-406 0 -406 252q0 94 65 155t177 70q-59 8 -92 46t-33 95q0 125 135 158q-180 82 -180 289z
" />
    <glyph glyph-name="h" unicode="h" horiz-adv-x="1026" 
d="M309 1368v-602q66 203 283 203q129 0 210 -73t81 -218v-678h-156v641q0 193 -188 193q-96 0 -163 -66t-67 -217v-551h-155v1368h155z" />
    <glyph glyph-name="i" unicode="i" horiz-adv-x="462" 
d="M154 946h155v-946h-155v946zM229 1143q-45 1 -77 33t-31 78q0 46 32 79q31 33 77 33t79 -33t33 -79t-34 -78t-79 -33z" />
    <glyph glyph-name="j" unicode="j" horiz-adv-x="462" 
d="M231 1143q-45 1 -77 33t-31 78q0 46 32 79q31 33 77 33t79 -33t33 -79t-34 -78t-79 -33zM154 946h155v-969q0 -223 -104 -311t-318 -82v131q139 -10 203 48q63 58 64 190v993z" />
    <glyph glyph-name="k" unicode="k" horiz-adv-x="923" 
d="M309 434v-434h-155v1368h155v-811h43l338 389h193l-398 -440l428 -506h-196l-352 434h-56z" />
    <glyph glyph-name="l" unicode="l" horiz-adv-x="516" 
d="M344 -14q-88 0 -144 49t-57 143v1190h156v-1165q0 -86 82 -86q28 0 63 10v-129q-57 -12 -100 -12z" />
    <glyph glyph-name="m" unicode="m" horiz-adv-x="1566" 
d="M1423 0h-155v641q0 193 -174 193q-88 0 -158 -73t-70 -210v-551h-155v641q0 193 -174 193q-88 0 -158 -73t-70 -210v-551h-155v946h116l19 -182q35 104 114 155q80 50 181 50q227 0 262 -209q63 209 307 209q115 0 193 -71t77 -210v-688z" />
    <glyph glyph-name="n" unicode="n" horiz-adv-x="1026" 
d="M592 969q129 0 210 -73t81 -218v-678h-156v639q0 195 -188 195q-96 0 -163 -66t-67 -217v-551h-155v946h116l19 -182q74 205 303 205z" />
    <glyph glyph-name="o" unicode="o" 
d="M514 842q-268 0 -268 -372t268 -372t268 372t-268 372zM514 -25q-194 1 -308 133t-114 370t113 365q113 126 309 126t310 -126q112 -126 112 -365t-114 -371t-308 -132z" />
    <glyph glyph-name="p" unicode="p" horiz-adv-x="1077" 
d="M309 -416h-155v1362h122l19 -182q39 106 128 156t187 49q176 0 276 -123t99 -347q1 -224 -109 -374t-307 -150t-260 150v-541zM309 549v-191q0 -132 74 -198q73 -66 181 -66t185 100t77 281q0 182 -67 274q-67 91 -183 91t-192 -78t-75 -213z" />
    <glyph glyph-name="q" unicode="q" horiz-adv-x="1077" 
d="M924 946v-1362h-154v580q-78 -188 -305 -189q-157 0 -265 127t-108 363t111 370t311 134q88 -1 161 -45t93 -101l53 123h103zM768 375v217q0 122 -77 188t-187 66t-182 -92q-74 -92 -74 -280t72 -280q72 -94 180 -94q110 0 189 72t79 203z" />
    <glyph glyph-name="r" unicode="r" horiz-adv-x="702" 
d="M578 797q-111 0 -190 -85t-79 -218v-494h-155v946h129l18 -254q29 131 122 206q94 75 239 69l-9 -176q-27 6 -75 6z" />
    <glyph glyph-name="s" unicode="s" horiz-adv-x="841" 
d="M418 86q94 0 150 36t56 104t-33 107q-34 38 -122 60l-139 33q-127 31 -182 95q-54 65 -54 169q0 143 98 211t246 68q301 0 330 -252l-154 -17q-8 150 -186 150q-88 0 -137 -38t-49 -101t29 -99q30 -35 112 -53l129 -33q129 -33 194 -95q64 -62 64 -193t-97 -197t-258 -66
q-161 -1 -249 55t-105 181l144 35q18 -160 213 -160z" />
    <glyph glyph-name="t" unicode="t" horiz-adv-x="657" 
d="M158 821h-138v125h138v201l157 20v-221h281v-125h-283v-563q0 -150 127 -149q80 0 156 49l31 -129q-84 -53 -209 -53t-193 65q-68 66 -67 188v592z" />
    <glyph glyph-name="u" unicode="u" horiz-adv-x="1026" 
d="M430 -25q-287 0 -287 316v655h156v-641q0 -113 44 -164t135 -51t165 76t74 205v575h155v-946h-133l-18 170q-68 -195 -291 -195z" />
    <glyph glyph-name="v" unicode="v" horiz-adv-x="872" 
d="M350 0l-330 946h173l174 -549q48 -148 69 -266l6 -35h9q14 111 71 299l166 551h164l-315 -946h-187z" />
    <glyph glyph-name="w" unicode="w" horiz-adv-x="1341" 
d="M756 946l145 -530q40 -136 60 -273l4 -34h8q4 115 53 307l137 530h158l-260 -946h-187l-137 485q-45 152 -59 265l-4 32h-8q-10 -106 -62 -297l-131 -485h-186l-267 946h162l140 -528q41 -151 59 -275l4 -34h8q6 121 58 309l145 528h160z" />
    <glyph glyph-name="x" unicode="x" horiz-adv-x="845" 
d="M426 381h-8q0 -25 -80 -148l-154 -233h-164l318 477l-301 469h176l133 -219q64 -106 80 -147h8q0 25 74 145l135 221h168l-301 -465l315 -481h-172l-153 236q-67 102 -74 135v10z" />
    <glyph glyph-name="y" unicode="y" horiz-adv-x="872" 
d="M143 -426q-68 0 -129 23l11 129q59 -27 131 -27t120 53q49 53 95 193l-351 1001h170l175 -549q51 -156 71 -264l6 -33h9q18 109 73 295l166 551h162l-340 -1022q-66 -198 -154 -274t-215 -76z" />
    <glyph glyph-name="z" unicode="z" horiz-adv-x="784" 
d="M410 131h333v-131h-702v84l385 575q31 45 58 82q28 37 40 54l15 14v8q-51 -6 -181 -6h-295v135h660v-106l-381 -557q-76 -110 -113 -150v-8q51 6 181 6z" />
    <glyph glyph-name="braceleft" unicode="{" horiz-adv-x="786" 
d="M459 279v-418q-1 -86 27 -127t94 -41t127 31l28 -115q-90 -31 -180 -31q-131 0 -184 70t-54 205v413q0 96 -37 127q-38 31 -104 31h-84v119h84q66 1 104 31t37 126v414q-1 135 53 205t185 70q90 0 180 -31l-28 -115q-61 31 -127 31t-94 -41t-27 -127v-418
q0 -106 -40 -148t-120 -53v-8q78 -10 119 -54t41 -146z" />
    <glyph glyph-name="bar" unicode="|" horiz-adv-x="546" 
d="M342 -416h-137v1786h137v-1786z" />
    <glyph glyph-name="braceright" unicode="}" horiz-adv-x="786" 
d="M328 688v418q0 86 -28 127t-93 41t-127 -31l-29 115q90 31 180 31q131 0 185 -70t53 -205v-414q0 -96 38 -127t103 -30h84v-119h-84q-66 0 -104 -31t-37 -127v-413q0 -135 -53 -205t-185 -70q-90 0 -180 31l29 115q61 -31 127 -31q65 0 93 41t28 127v418q0 102 40 146
t119 54v8q-79 11 -119 53t-40 148z" />
    <glyph glyph-name="asciitilde" unicode="~" horiz-adv-x="942" 
d="M610 408q-60 0 -174 65q-20 12 -27 15q-7 4 -25 12t-44 8q-74 0 -61 -96h-99q-35 94 7 166q41 72 125 72t169 -52q85 -51 119 -51q66 0 59 102h105q31 -104 -10 -173q-42 -68 -144 -68z" />
    <glyph glyph-name="nbspace" unicode="&#xa0;" horiz-adv-x="313" 
 />
    <glyph glyph-name="exclamdown" unicode="&#xa1;" horiz-adv-x="458" 
d="M113 844q0 49 33 83q34 34 83 34t83 -34t34 -83t-34 -83t-83 -34t-83 34q-33 34 -33 83zM332 -258h-205l49 866h107z" />
    <glyph glyph-name="cent" unicode="&#xa2;" horiz-adv-x="1048" 
d="M262 495q0 -157 62 -258t178 -126v761q-116 -24 -178 -122t-62 -255zM502 -217v197q-178 16 -289 146t-111 357t109 363t291 160v170h102v-166q133 -6 217 -64t135 -172l-143 -80q-61 166 -209 185v-775q145 12 234 158l116 -88q-115 -180 -350 -197v-194h-102z" />
    <glyph glyph-name="sterling" unicode="&#xa3;" horiz-adv-x="1034" 
d="M696 408h-288q18 -78 18 -125q0 -115 -94 -150h370q129 0 150 100l121 -61q-43 -172 -254 -172h-592v139h59q41 0 67 36t26 92t-31 141h-176v102h141q-25 84 -25 178q0 162 106 242t257 80q279 0 319 -262l-145 -25q-14 82 -55 122t-131 40q-91 0 -143 -49
q-52 -48 -52 -136t33 -190h319v-102z" />
    <glyph glyph-name="currency" unicode="&#xa4;" horiz-adv-x="925" 
d="M463 825q-156 -1 -156 -235t156 -234t156 234t-156 235zM756 598q0 -106 -37 -186l145 -144l-67 -67l-133 133q-78 -72 -201 -72t-201 72l-133 -133l-68 67l146 146q-37 74 -37 184t41 188l-150 150l68 68l141 -146q76 63 192 63t191 -61l144 144l67 -68l-151 -152
q43 -80 43 -186z" />
    <glyph glyph-name="yen" unicode="&#xa5;" horiz-adv-x="991" 
d="M879 291h-301v-291h-158v291h-307v102h280l-55 103h-225v102h170l-211 387h180l168 -332q63 -115 78 -184h8q12 55 76 182l170 334h168l-207 -387h166v-102h-222l-55 -103h277v-102z" />
    <glyph glyph-name="brokenbar" unicode="&#xa6;" horiz-adv-x="546" 
d="M342 -416h-137v801h137v-801zM342 569h-137v801h137v-801z" />
    <glyph glyph-name="section" unicode="&#xa7;" horiz-adv-x="876" 
d="M649 490q0 66 -64 104q-65 37 -204 78q-115 -45 -115 -160q0 -80 56 -115t208 -73q45 16 82 58t37 108zM649 27q0 119 -155 163l-150 43q-225 66 -225 254q0 166 174 222q-174 72 -174 243q0 143 96 211q95 68 243 68q148 1 234 -59t101 -193l-158 -16q-4 71 -53 109
t-131 38q-184 0 -185 -143q0 -53 31 -89t111 -63l133 -45q125 -41 189 -96q64 -56 65 -154q0 -197 -179 -227q76 -25 127 -95t52 -153q1 -141 -97 -207t-255 -66t-250 66q-93 64 -111 189l162 18q8 -78 68 -115q60 -36 146 -36t138 32q53 32 53 101z" />
    <glyph glyph-name="dieresis" unicode="&#xa8;" horiz-adv-x="937" 
d="M551 1217q0 45 33 77t79 33q45 0 77 -33q32 -34 32 -78t-33 -77t-77 -33t-78 33q-33 33 -33 78zM164 1219q0 45 33 77t77 33q44 0 78 -32q33 -31 33 -77t-33 -79t-78 -33q-46 0 -78 33t-32 78z" />
    <glyph glyph-name="copyright" unicode="&#xa9;" horiz-adv-x="1439" 
d="M156 602q0 -246 164 -406t401 -161q237 0 401 161q164 160 164 406t-164 408t-402 162t-401 -162t-163 -408zM92 602q0 270 182 450t444 179q262 0 446 -179q184 -180 184 -450t-184 -448t-445 -178q-263 0 -445 178t-182 448zM733 999q217 0 303 -178l-123 -69
q-47 131 -184 131q-111 0 -175 -73t-65 -205t63 -206t181 -73q68 0 114 26t91 88l96 -80q-106 -152 -315 -151q-162 0 -265 101q-104 102 -104 290t108 294t275 105z" />
    <glyph glyph-name="ordfeminine" unicode="&#xaa;" horiz-adv-x="720" 
d="M569 1040v-307q0 -49 41 -49q29 0 49 16v-102q-31 -20 -90 -20q-115 0 -129 96q-41 -102 -180 -103q-84 0 -136 45t-52 123q0 225 362 211v58q0 121 -108 120q-47 0 -77 -24t-34 -66l-123 15q6 92 76 135t169 43t166 -45q66 -46 66 -146zM434 778v92q-121 2 -174 -24
t-53 -88q0 -92 96 -92q51 0 91 30t40 82z" />
    <glyph glyph-name="guillemotleft" unicode="&#xab;" horiz-adv-x="948" 
d="M199 481v-8q33 -14 114 -113l205 -245l-86 -74l-371 436l371 436l88 -88l-207 -239q-75 -88 -104 -99zM565 481v-8q33 -14 115 -113l205 -245l-86 -74l-371 436l371 436l88 -88l-207 -239q-75 -87 -105 -99z" />
    <glyph glyph-name="logicalnot" unicode="&#xac;" horiz-adv-x="1019" 
d="M821 551h-729v94h836v-385h-107v291z" />
    <glyph glyph-name="uni00AD" unicode="&#xad;" horiz-adv-x="745" 
d="M143 459v131h459v-131h-459z" />
    <glyph glyph-name="registered" unicode="&#xae;" horiz-adv-x="1439" 
d="M156 602q0 -246 164 -406t401 -161q237 0 401 161q164 160 164 406t-164 408t-402 162t-401 -162t-163 -408zM92 602q0 270 182 450t444 179q262 0 446 -179q184 -180 184 -450t-184 -448t-445 -178q-263 0 -445 178t-182 448zM598 877v-244h109q98 0 137 31t39 89
t-40 91t-114 33h-131zM666 532h-68v-286h-131v739h281q124 0 194 -56q70 -57 70 -157q0 -191 -209 -201q67 -11 107 -35t57 -85l26 -111q12 -57 43 -94h-141q-25 31 -35 82l-24 98q-27 106 -170 106z" />
    <glyph glyph-name="macron" unicode="&#xaf;" horiz-adv-x="841" 
d="M678 1155h-514v125h514v-125z" />
    <glyph glyph-name="degree" unicode="&#xb0;" horiz-adv-x="534" 
d="M170 1044q0 -44 27 -74t69 -30t71 30q28 30 28 74t-28 76q-28 31 -71 31q-44 0 -70 -31t-26 -76zM82 1044q0 78 52 132t132 55q80 0 133 -54q53 -55 53 -133t-52 -131q-54 -53 -134 -53t-132 53t-52 131z" />
    <glyph glyph-name="plusminus" unicode="&#xb1;" horiz-adv-x="1019" 
d="M928 100h-836v95h836v-95zM92 682h367v283h94v-283h375v-94h-375v-312h-94v312h-367v94z" />
    <glyph glyph-name="twosuperior" unicode="&#xb2;" horiz-adv-x="616" 
d="M575 586v-103h-534v99q201 139 283 224t82 185q0 117 -119 117q-66 0 -98 -41t-33 -102l-107 51q0 82 71 144t179 62t175 -56t67 -162q0 -163 -170 -297q-69 -55 -170 -113v-8h374z" />
    <glyph glyph-name="threesuperior" unicode="&#xb3;" horiz-adv-x="643" 
d="M561 668q0 -92 -75 -146q-74 -54 -192 -53q-118 0 -189 46t-85 120l115 45q11 -47 57 -80t103 -33q135 0 135 111q0 63 -51 96t-174 35v90q205 8 205 119q0 47 -31 75t-86 27q-104 0 -129 -98l-113 41q20 72 85 116t165 44t168 -47t68 -142q-1 -154 -175 -172v-6
q199 -18 199 -188z" />
    <glyph glyph-name="acute" unicode="&#xb4;" horiz-adv-x="704" 
d="M305 1085h-133l154 293h215z" />
    <glyph glyph-name="mu" unicode="&#xb5;" horiz-adv-x="1036" 
d="M299 -416h-156v1362h156v-629q0 -215 168 -215q84 0 168 66t84 194v584h153v-946h-133l-18 178q-70 -199 -275 -203q-104 0 -147 48v-439z" />
    <glyph glyph-name="paragraph" unicode="&#xb6;" horiz-adv-x="1044" 
d="M791 1083v-1132q0 -285 -277 -285q-113 0 -213 55l49 144q70 -61 158 -62q121 0 121 121v432h-99q-469 0 -469 412q0 438 557 438h334v-123h-161z" />
    <glyph glyph-name="periodcentered" unicode="&#xb7;" horiz-adv-x="581" 
d="M164 545q0 53 37 90t90 37t90 -37t37 -90t-37 -90t-90 -37t-90 37t-37 90z" />
    <glyph glyph-name="periodcentered" unicode="&#x22c5;" horiz-adv-x="581" 
d="M164 545q0 53 37 90t90 37t90 -37t37 -90t-37 -90t-90 -37t-90 37t-37 90z" />
    <glyph glyph-name="cedilla" unicode="&#xb8;" horiz-adv-x="708" 
d="M545 -258q-1 -86 -59 -130t-162 -44t-160 78l47 98q51 -76 128 -76t77 74q0 90 -144 90l13 178h86l-6 -96q180 -16 180 -172z" />
    <glyph glyph-name="onesuperior" unicode="&#xb9;" horiz-adv-x="600" 
d="M580 483h-519v103h205v493l-225 -24v104l356 49v-622h183v-103z" />
    <glyph glyph-name="ordmasculine" unicode="&#xba;" horiz-adv-x="770" 
d="M385 1135q-156 0 -156 -235t156 -234q156 0 156 234t-156 235zM385 571q-135 0 -214 87t-79 246t79 243t214 84t214 -84t79 -243t-79 -246t-214 -87z" />
    <glyph glyph-name="guillemotright" unicode="&#xbb;" horiz-adv-x="948" 
d="M750 473v8q-31 8 -115 105l-207 239l88 88l371 -436l-371 -436l-86 74l205 245q82 95 115 113zM383 473v8q-31 8 -115 105l-207 239l89 88l370 -436l-370 -436l-87 74l205 245q78 91 115 113z" />
    <glyph glyph-name="onequarter" unicode="&#xbc;" horiz-adv-x="1765" 
d="M1452 285v186l10 143h-8q-23 -53 -78 -127l-92 -108q-52 -61 -98 -94v-9q27 8 114 9h152zM1448 0v188h-369v101l361 434h137v-436h123v-99h-123v-188h-129zM512 0l627 1208h114l-624 -1208h-117zM623 483h-519v103h205v493l-225 -24v104l356 49v-622h183v-103z" />
    <glyph glyph-name="onehalf" unicode="&#xbd;" horiz-adv-x="1765" 
d="M1624 102v-102h-534v98q200 138 282 224t82 186q0 117 -119 117q-65 0 -97 -41t-34 -103l-106 51q0 82 70 145q72 62 180 62t175 -56t66 -163q0 -163 -170 -297q-64 -51 -170 -112v-9h375zM512 0l627 1208h114l-624 -1208h-117zM623 483h-519v103h205v493l-225 -24v104
l356 49v-622h183v-103z" />
    <glyph glyph-name="threequarters" unicode="&#xbe;" horiz-adv-x="1765" 
d="M1452 285v186l10 143h-8q-23 -53 -78 -127l-92 -108q-52 -61 -98 -94v-9q27 8 114 9h152zM1448 0v188h-369v101l361 434h137v-436h123v-99h-123v-188h-129zM512 0l627 1208h114l-624 -1208h-117zM627 668q0 -92 -75 -146t-193 -53q-119 0 -189 46t-84 120l115 45
q12 -47 57 -80t102 -33q135 0 136 111q0 63 -52 96t-174 35v90q205 8 205 119q0 47 -31 75t-86 27q-104 0 -129 -98l-112 41q20 72 85 116t165 44t168 -47t67 -142q0 -154 -174 -172v-6q199 -18 199 -188z" />
    <glyph glyph-name="questiondown" unicode="&#xbf;" horiz-adv-x="776" 
d="M580 842q0 -49 -34 -83t-83 -34t-83 34t-34 83t34 83q34 33 83 33t83 -34t34 -82zM402 -285q-160 1 -260 99t-101 262q0 164 105 263t245 103v183h144v-275h-64q-127 0 -200 -66t-73 -195q0 -128 60 -186q59 -58 162 -59q188 0 223 193l133 -49q-27 -123 -121 -198
q-93 -75 -253 -75z" />
    <glyph glyph-name="Agrave" unicode="&#xc0;" horiz-adv-x="1134" 
d="M645 1341h-141l-199 238h213zM467 803l-111 -316h414l-108 314q-67 189 -84 272l-9 37h-8q-28 -121 -94 -307zM942 0l-125 356h-506l-125 -356h-166l441 1206h217l436 -1206h-172z" />
    <glyph glyph-name="Aacute" unicode="&#xc1;" horiz-adv-x="1134" 
d="M635 1341h-141l127 238h213zM467 803l-111 -316h414l-108 314q-67 189 -84 272l-9 37h-8q-28 -121 -94 -307zM942 0l-125 356h-506l-125 -356h-166l441 1206h217l436 -1206h-172z" />
    <glyph glyph-name="Acircumflex" unicode="&#xc2;" horiz-adv-x="1134" 
d="M516 1595h94l248 -254h-178l-66 70q-30 33 -49 72h-4q-10 -29 -49 -72l-66 -70h-178zM467 803l-111 -316h414l-108 314q-67 189 -84 272l-9 37h-8q-28 -121 -94 -307zM942 0l-125 356h-506l-125 -356h-166l441 1206h217l436 -1206h-172z" />
    <glyph glyph-name="Atilde" unicode="&#xc3;" horiz-adv-x="1134" 
d="M707 1341q-60 0 -175 66q-20 12 -27 15q-7 4 -25 12t-44 8q-74 0 -61 -96h-99q-34 94 8 166t125 71q83 0 168 -51t119 -51q66 0 60 102h104q31 -104 -10 -173t-143 -69zM467 803l-111 -316h414l-108 314q-67 189 -84 272l-9 37h-8q-28 -121 -94 -307zM942 0l-125 356
h-506l-125 -356h-166l441 1206h217l436 -1206h-172z" />
    <glyph glyph-name="Adieresis" unicode="&#xc4;" horiz-adv-x="1134" 
d="M649 1452q0 45 33 78t79 33t78 -32q31 -32 31 -78t-32 -79t-78 -33q-45 0 -78 33t-33 78zM262 1454q0 45 33 78t78 33t78 -33t33 -78t-34 -78q-32 -33 -77 -33t-78 33t-33 78zM467 803l-111 -316h414l-108 314q-67 189 -84 272l-9 37h-8q-28 -121 -94 -307zM942 0
l-125 356h-506l-125 -356h-166l441 1206h217l436 -1206h-172z" />
    <glyph glyph-name="Aring" unicode="&#xc5;" horiz-adv-x="1134" 
d="M565 1618q-53 0 -85 -34t-32 -86t32 -83q30 -31 85 -31t86 31t31 83t-32 86t-85 34zM565 1305q-94 0 -148 55q-55 55 -55 138t56 138q56 56 147 56t147 -56t56 -138q0 -83 -54 -138t-149 -55zM467 803l-111 -316h414l-108 314q-67 189 -84 272l-9 37h-8
q-28 -121 -94 -307zM942 0l-125 356h-506l-125 -356h-166l441 1206h217l436 -1206h-172z" />
    <glyph glyph-name="AE" unicode="&#xc6;" horiz-adv-x="1675" 
d="M852 487v304q0 146 8 270l4 29h-8l-371 -603h367zM1573 0h-721v356h-444l-218 -356h-170l746 1206h807v-139h-561v-395h499v-140h-499v-393h561v-139z" />
    <glyph glyph-name="Ccedilla" unicode="&#xc7;" horiz-adv-x="1138" 
d="M831 -258q0 -86 -58 -130q-57 -44 -161 -44t-161 78l47 98q51 -76 128 -76t76 74q0 90 -143 90l10 145q-219 15 -348 177t-129 452t153 457q153 168 402 168q319 0 440 -285l-145 -72q-39 109 -120 165t-187 57q-175 0 -275 -132t-100 -362t92 -358q92 -127 269 -127
q121 0 201 45t151 149l112 -94q-78 -119 -179 -176t-251 -64l-4 -63q180 -16 180 -172z" />
    <glyph glyph-name="Egrave" unicode="&#xc8;" horiz-adv-x="997" 
d="M612 1341h-141l-199 238h213zM895 139v-139h-721v1206h721v-139h-561v-395h497v-140h-497v-393h561z" />
    <glyph glyph-name="Eacute" unicode="&#xc9;" horiz-adv-x="997" 
d="M602 1341h-141l127 238h213zM895 139v-139h-721v1206h721v-139h-561v-395h497v-140h-497v-393h561z" />
    <glyph glyph-name="Ecircumflex" unicode="&#xca;" horiz-adv-x="997" 
d="M487 1595h95l247 -254h-178l-65 70q-30 33 -49 72h-5q-10 -29 -49 -72l-65 -70h-178zM895 139v-139h-721v1206h721v-139h-561v-395h497v-140h-497v-393h561z" />
    <glyph glyph-name="Edieresis" unicode="&#xcb;" horiz-adv-x="997" 
d="M616 1452q0 45 33 78t79 33t78 -32t32 -78t-33 -79t-78 -33t-78 33t-33 78zM229 1454q0 45 33 78t78 33t78 -33t33 -78t-33 -78t-78 -33t-78 33t-33 78zM895 139v-139h-721v1206h721v-139h-561v-395h497v-140h-497v-393h561z" />
    <glyph glyph-name="Igrave" unicode="&#xcc;" horiz-adv-x="507" 
d="M332 1341h-142l-198 238h213zM174 1206h160v-1206h-160v1206z" />
    <glyph glyph-name="Iacute" unicode="&#xcd;" horiz-adv-x="507" 
d="M322 1341h-142l127 238h213zM174 1206h160v-1206h-160v1206z" />
    <glyph glyph-name="Icircumflex" unicode="&#xce;" horiz-adv-x="507" 
d="M207 1595h94l248 -254h-178l-66 70q-30 33 -49 72h-4q-10 -29 -49 -72l-66 -70h-178zM174 1206h160v-1206h-160v1206z" />
    <glyph glyph-name="Idieresis" unicode="&#xcf;" horiz-adv-x="507" 
d="M336 1452q0 45 33 78t77 33t78 -32q33 -32 33 -78t-33 -79t-78 -33q-46 0 -78 33t-32 78zM-51 1454q0 45 33 78q32 33 78 33t78 -33t32 -78t-33 -78t-78 -33t-77 33t-33 78zM174 1206h160v-1206h-160v1206z" />
    <glyph glyph-name="Eth" unicode="&#xd0;" horiz-adv-x="1198" 
d="M334 133h174q196 0 312 118q116 119 116 363t-114 352t-296 107h-192v-401h237v-140h-237v-399zM524 0h-350v532h-117v140h117v534h352q270 0 425 -142t155 -452t-163 -462q-163 -150 -419 -150z" />
    <glyph glyph-name="Ntilde" unicode="&#xd1;" horiz-adv-x="1314" 
d="M797 1341q-64 0 -174 66q-19 12 -27 15q-8 4 -26 12t-44 8q-74 0 -61 -96h-98q-35 94 7 166t125 71q83 0 168 -51t119 -51q66 0 60 102h104q31 -104 -10 -173t-143 -69zM981 518v688h160v-1206h-166l-498 727q-46 68 -127 211l-20 39h-8q12 -137 12 -289v-688h-160v1206
h170l492 -727q69 -102 127 -213l20 -37h8q-10 137 -10 289z" />
    <glyph glyph-name="Ograve" unicode="&#xd2;" horiz-adv-x="1253" 
d="M705 1341h-142l-198 238h213zM627 1092q-179 0 -273 -129t-94 -361t94 -360q94 -129 272 -129t273 129q94 129 94 360q0 230 -94 360t-272 130zM627 -25q-246 0 -390 165q-145 165 -145 463t144 463t391 165q246 0 390 -165t144 -463t-144 -463t-390 -165z" />
    <glyph glyph-name="Oacute" unicode="&#xd3;" horiz-adv-x="1253" 
d="M694 1341h-141l127 238h213zM627 1092q-179 0 -273 -129t-94 -361t94 -360q94 -129 272 -129t273 129q94 129 94 360q0 230 -94 360t-272 130zM627 -25q-246 0 -390 165q-145 165 -145 463t144 463t391 165q246 0 390 -165t144 -463t-144 -463t-390 -165z" />
    <glyph glyph-name="Ocircumflex" unicode="&#xd4;" horiz-adv-x="1253" 
d="M580 1595h94l248 -254h-179l-65 70q-30 33 -49 72h-4q-10 -29 -50 -72l-65 -70h-178zM627 1092q-179 0 -273 -129t-94 -361t94 -360q94 -129 272 -129t273 129q94 129 94 360q0 230 -94 360t-272 130zM627 -25q-246 0 -390 165q-145 165 -145 463t144 463t391 165
q246 0 390 -165t144 -463t-144 -463t-390 -165z" />
    <glyph glyph-name="Otilde" unicode="&#xd5;" horiz-adv-x="1253" 
d="M766 1341q-59 0 -174 66q-20 12 -28 15l-24 12q-17 8 -44 8q-74 0 -62 -96h-98q-35 94 7 166t125 71q83 0 168 -51t120 -51q66 0 59 102h105q32 -104 -10 -173t-144 -69zM627 1092q-179 0 -273 -129t-94 -361t94 -360q94 -129 272 -129t273 129q94 129 94 360
q0 230 -94 360t-272 130zM627 -25q-246 0 -390 165q-145 165 -145 463t144 463t391 165q246 0 390 -165t144 -463t-144 -463t-390 -165z" />
    <glyph glyph-name="Odieresis" unicode="&#xd6;" horiz-adv-x="1253" 
d="M709 1452q0 45 32 78q33 33 78 33t78 -32t33 -78t-33 -79t-78 -33t-78 33q-32 33 -32 78zM322 1454q0 45 32 78q33 33 79 33t78 -33t32 -78t-33 -78t-78 -33t-78 33q-32 33 -32 78zM627 1092q-179 0 -273 -129t-94 -361t94 -360q94 -129 272 -129t273 129q94 129 94 360
q0 230 -94 360t-272 130zM627 -25q-246 0 -390 165q-145 165 -145 463t144 463t391 165q246 0 390 -165t144 -463t-144 -463t-390 -165z" />
    <glyph glyph-name="multiply" unicode="&#xd7;" horiz-adv-x="901" 
d="M92 225l285 285l-277 276l66 68l278 -276l291 288l66 -65l-291 -291l299 -297l-66 -68l-299 297l-286 -284z" />
    <glyph glyph-name="Oslash" unicode="&#xd8;" horiz-adv-x="1253" 
d="M987 602q0 156 -39 260l-577 -639q92 -111 262 -111t262 129q92 128 92 361zM622 1092q-172 0 -264 -128t-92 -362q0 -156 41 -268l578 643q-92 115 -263 115zM92 602q0 299 144 464t380 165t373 -137l117 129l92 -84l-131 -146q94 -154 94 -391q0 -297 -144 -462
q-145 -165 -379 -165t-372 134l-125 -138l-86 82l135 150q-98 158 -98 399z" />
    <glyph glyph-name="Ugrave" unicode="&#xd9;" horiz-adv-x="1173" 
d="M664 1341h-142l-198 238h213zM881 1206h159v-813q0 -309 -288 -395q-78 -23 -166 -23t-166 23q-287 85 -287 395v813h160v-774q0 -326 294 -326t294 320v780z" />
    <glyph glyph-name="Uacute" unicode="&#xda;" horiz-adv-x="1173" 
d="M653 1341h-141l127 238h213zM881 1206h159v-813q0 -309 -288 -395q-78 -23 -166 -23t-166 23q-287 85 -287 395v813h160v-774q0 -326 294 -326t294 320v780z" />
    <glyph glyph-name="Ucircumflex" unicode="&#xdb;" horiz-adv-x="1173" 
d="M539 1595h94l248 -254h-179l-65 70q-30 33 -49 72h-4q-10 -29 -49 -72l-66 -70h-178zM881 1206h159v-813q0 -309 -288 -395q-78 -23 -166 -23t-166 23q-287 85 -287 395v813h160v-774q0 -326 294 -326t294 320v780z" />
    <glyph glyph-name="Udieresis" unicode="&#xdc;" horiz-adv-x="1173" 
d="M668 1452q0 45 32 78q33 33 78 33t78 -32t33 -78t-33 -79t-78 -33t-78 33q-32 33 -32 78zM281 1454q0 45 32 78q33 33 79 33t78 -33t32 -78t-33 -78t-78 -33t-78 33q-32 33 -32 78zM881 1206h159v-813q0 -309 -288 -395q-78 -23 -166 -23t-166 23q-287 85 -287 395v813
h160v-774q0 -326 294 -326t294 320v780z" />
    <glyph glyph-name="Yacute" unicode="&#xdd;" horiz-adv-x="950" 
d="M543 1341h-142l127 238h213zM567 0h-159v475l-388 731h181l207 -413q67 -131 79 -189h9q14 57 73 187l193 415h168l-363 -731v-475z" />
    <glyph glyph-name="Thorn" unicode="&#xde;" horiz-adv-x="999" 
d="M334 0h-160v1206h160v-227h182q422 0 422 -348q0 -181 -102 -279t-304 -98h-198v-254zM334 846v-461h184q139 0 196 59q56 59 56 177q0 225 -256 225h-180z" />
    <glyph glyph-name="germandbls" unicode="&#xdf;" horiz-adv-x="1067" 
d="M154 0v948q0 219 103 327q103 107 283 107t274 -85q95 -85 95 -224q0 -252 -241 -287v-8q150 -8 234 -108t83 -287q0 -187 -87 -297t-265 -111q-98 0 -157 35q-58 35 -97 113l98 96q49 -125 162 -125q188 0 188 305q0 143 -79 230q-80 86 -218 86h-102v125h72
q250 0 250 209q0 98 -56 155t-151 58q-233 0 -234 -324v-938h-155z" />
    <glyph glyph-name="agrave" unicode="&#xe0;" horiz-adv-x="966" 
d="M551 1085h-133l-236 293h215zM793 684v-481q0 -88 71 -88q33 0 51 8v-125q-45 -12 -84 -12q-166 0 -184 153q-68 -164 -280 -164q-127 0 -206 69t-79 185q0 340 555 314v127q-1 172 -185 172t-196 -158l-143 21q10 139 111 201q102 62 242 62t234 -66t93 -218zM637 281
v151q-205 4 -302 -41t-97 -143q0 -68 43 -110t127 -42t156 52q73 52 73 133z" />
    <glyph glyph-name="aacute" unicode="&#xe1;" horiz-adv-x="966" 
d="M522 1085h-133l154 293h215zM793 684v-481q0 -88 71 -88q33 0 51 8v-125q-45 -12 -84 -12q-166 0 -184 153q-68 -164 -280 -164q-127 0 -206 69t-79 185q0 340 555 314v127q-1 172 -185 172t-196 -158l-143 21q10 139 111 201q102 62 242 62t234 -66t93 -218zM637 281
v151q-205 4 -302 -41t-97 -143q0 -68 43 -110t127 -42t156 52q73 52 73 133z" />
    <glyph glyph-name="acircumflex" unicode="&#xe2;" horiz-adv-x="966" 
d="M426 1378h86l250 -293h-166l-74 91q-30 43 -49 81h-8q-10 -33 -49 -81l-74 -91h-166zM793 684v-481q0 -88 71 -88q33 0 51 8v-125q-45 -12 -84 -12q-166 0 -184 153q-68 -164 -280 -164q-127 0 -206 69t-79 185q0 340 555 314v127q-1 172 -185 172t-196 -158l-143 21
q10 139 111 201q102 62 242 62t234 -66t93 -218zM637 281v151q-205 4 -302 -41t-97 -143q0 -68 43 -110t127 -42t156 52q73 52 73 133z" />
    <glyph glyph-name="atilde" unicode="&#xe3;" horiz-adv-x="966" 
d="M610 1087q-58 0 -174 66q-20 12 -27 15q-7 4 -25 12t-44 8q-74 0 -61 -96h-99q-35 94 7 162q41 68 125 69q84 0 169 -51t119 -51q66 0 59 102h105q32 -104 -10 -170t-144 -66zM793 684v-481q0 -88 71 -88q33 0 51 8v-125q-45 -12 -84 -12q-166 0 -184 153
q-68 -164 -280 -164q-127 0 -206 69t-79 185q0 340 555 314v127q-1 172 -185 172t-196 -158l-143 21q10 139 111 201q102 62 242 62t234 -66t93 -218zM637 281v151q-205 4 -302 -41t-97 -143q0 -68 43 -110t127 -42t156 52q73 52 73 133z" />
    <glyph glyph-name="adieresis" unicode="&#xe4;" horiz-adv-x="966" 
d="M551 1217q0 45 33 77t79 33q45 0 77 -33q32 -34 32 -78t-33 -77t-77 -33t-78 33q-33 33 -33 78zM164 1219q0 45 33 77t77 33q44 0 78 -32q33 -31 33 -77t-33 -79t-78 -33q-46 0 -78 33t-32 78zM793 684v-481q0 -88 71 -88q33 0 51 8v-125q-45 -12 -84 -12
q-166 0 -184 153q-68 -164 -280 -164q-127 0 -206 69t-79 185q0 340 555 314v127q-1 172 -185 172t-196 -158l-143 21q10 139 111 201q102 62 242 62t234 -66t93 -218zM637 281v151q-205 4 -302 -41t-97 -143q0 -68 43 -110t127 -42t156 52q73 52 73 133z" />
    <glyph glyph-name="aring" unicode="&#xe5;" horiz-adv-x="966" 
d="M469 1386q-53 0 -85 -34t-32 -85q0 -52 31 -83t86 -31t86 31t31 83q0 51 -32 85t-85 34zM469 1073q-94 0 -148 55q-55 54 -55 138t56 139t147 55q90 0 146 -55q57 -55 57 -138t-54 -139t-149 -55zM793 684v-481q0 -88 71 -88q33 0 51 8v-125q-45 -12 -84 -12
q-166 0 -184 153q-68 -164 -280 -164q-127 0 -206 69t-79 185q0 340 555 314v127q-1 172 -185 172t-196 -158l-143 21q10 139 111 201q102 62 242 62t234 -66t93 -218zM637 281v151q-205 4 -302 -41t-97 -143q0 -68 43 -110t127 -42t156 52q73 52 73 133z" />
    <glyph glyph-name="ae" unicode="&#xe6;" horiz-adv-x="1513" 
d="M238 248q0 -68 42 -110t130 -42q87 0 160 51t83 138q-16 66 -20 155q-203 -2 -299 -45t-96 -147zM1270 606q0 100 -62 169t-168 69q-104 0 -172 -72t-82 -209h482q2 16 2 43zM1055 98q176 0 221 164l137 -31q-47 -256 -371 -256q-219 0 -329 170q-31 -80 -121 -125
t-219 -45t-210 66t-81 199q0 322 555 323q8 63 29 127q-12 74 -68 113t-140 39t-140 -41t-62 -117l-143 21q10 139 111 201t241 63q207 0 283 -131q115 131 298 131t279 -110t96 -290q0 -86 -18 -131h-621q8 -154 79 -247t194 -93z" />
    <glyph glyph-name="ccedilla" unicode="&#xe7;" horiz-adv-x="929" 
d="M709 -258q-1 -86 -59 -130t-162 -44t-160 78l47 98q51 -76 128 -76t77 74q0 90 -144 90l10 148q-164 16 -259 143t-95 353t114 360q114 133 308 133q148 0 236 -75t96 -216l-146 -23q-29 184 -196 185q-125 0 -194 -102q-68 -102 -68 -268q0 -165 74 -267t198 -103
q168 0 213 162l131 -29q-39 -242 -326 -256l-4 -63q181 -16 181 -172z" />
    <glyph glyph-name="egrave" unicode="&#xe8;" horiz-adv-x="972" 
d="M598 1085h-133l-236 293h215zM729 606q0 100 -62 169t-167 69q-104 0 -172 -72t-82 -209h481q2 16 2 43zM514 98q176 0 221 164l137 -31q-47 -256 -370 -256q-188 0 -299 129t-111 364t114 368t298 133t280 -110t97 -290q0 -86 -19 -131h-620q8 -154 78 -247t194 -93z
" />
    <glyph glyph-name="eacute" unicode="&#xe9;" horiz-adv-x="972" 
d="M569 1085h-133l154 293h215zM729 606q0 100 -62 169t-167 69q-104 0 -172 -72t-82 -209h481q2 16 2 43zM514 98q176 0 221 164l137 -31q-47 -256 -370 -256q-188 0 -299 129t-111 364t114 368t298 133t280 -110t97 -290q0 -86 -19 -131h-620q8 -154 78 -247t194 -93z" />
    <glyph glyph-name="ecircumflex" unicode="&#xea;" horiz-adv-x="972" 
d="M475 1378h86l250 -293h-166l-74 91q-30 43 -49 81h-8q-10 -33 -49 -81l-74 -91h-166zM729 606q0 100 -62 169t-167 69q-104 0 -172 -72t-82 -209h481q2 16 2 43zM514 98q176 0 221 164l137 -31q-47 -256 -370 -256q-188 0 -299 129t-111 364t114 368t298 133t280 -110
t97 -290q0 -86 -19 -131h-620q8 -154 78 -247t194 -93z" />
    <glyph glyph-name="edieresis" unicode="&#xeb;" horiz-adv-x="972" 
d="M598 1217q0 45 33 77t78 33q45 0 77 -33q32 -34 33 -78q0 -44 -33 -77q-34 -33 -78 -33t-77 33t-33 78zM211 1219q0 45 33 77t79 33q45 0 77 -32q32 -31 32 -77t-33 -79t-77 -33t-78 33q-33 33 -33 78zM729 606q0 100 -62 169t-167 69q-104 0 -172 -72t-82 -209h481
q2 16 2 43zM514 98q176 0 221 164l137 -31q-47 -256 -370 -256q-188 0 -299 129t-111 364t114 368t298 133t280 -110t97 -290q0 -86 -19 -131h-620q8 -154 78 -247t194 -93z" />
    <glyph glyph-name="igrave" unicode="&#xec;" horiz-adv-x="462" 
d="M154 946h155v-946h-155v946zM309 1085h-133l-235 293h215z" />
    <glyph glyph-name="iacute" unicode="&#xed;" horiz-adv-x="462" 
d="M154 946h155v-946h-155v946zM289 1085h-133l153 293h215z" />
    <glyph glyph-name="icircumflex" unicode="&#xee;" horiz-adv-x="462" 
d="M188 1378h86l250 -293h-166l-73 91q-30 43 -49 81h-9q-10 -33 -49 -81l-74 -91h-165zM154 946h155v-946h-155v946z" />
    <glyph glyph-name="idieresis" unicode="&#xef;" horiz-adv-x="462" 
d="M154 946h155v-946h-155v946zM313 1217q0 45 33 77t79 33q46 0 78 -33q32 -34 32 -78t-33 -77t-78 -33t-78 33t-33 78zM-74 1219q0 45 33 77t78 33q45 0 78 -32q33 -31 33 -77t-34 -79q-32 -33 -77 -33t-78 33t-33 78z" />
    <glyph glyph-name="eth" unicode="&#xf0;" horiz-adv-x="1030" 
d="M780 467q0 174 -70 266q-71 92 -202 92q-262 0 -262 -358q0 -176 68 -272t198 -97q268 0 268 369zM938 528q0 -280 -113 -416t-309 -136t-310 127t-114 361t109 359t275 125t255 -125h8q-51 143 -166 260l-309 -63l-22 84l258 51q-76 72 -252 148l121 73
q150 -59 280 -182l207 41l23 -86l-154 -33q101 -122 157 -280t56 -308z" />
    <glyph glyph-name="ntilde" unicode="&#xf1;" horiz-adv-x="1026" 
d="M670 1087q-64 0 -174 66q-20 12 -28 15q-8 4 -25 12q-18 8 -44 8q-74 0 -61 -96h-98q-35 94 7 162t125 69q83 0 168 -51t119 -51q66 0 60 102h104q31 -104 -10 -170t-143 -66zM592 969q129 0 210 -73t81 -218v-678h-156v639q0 195 -188 195q-96 0 -163 -66t-67 -217v-551
h-155v946h116l19 -182q74 205 303 205z" />
    <glyph glyph-name="ograve" unicode="&#xf2;" 
d="M596 1085h-133l-236 293h215zM514 842q-268 0 -268 -372t268 -372t268 372t-268 372zM514 -25q-194 1 -308 133t-114 370t113 365q113 126 309 126t310 -126q112 -126 112 -365t-114 -371t-308 -132z" />
    <glyph glyph-name="oacute" unicode="&#xf3;" 
d="M567 1085h-133l154 293h215zM514 842q-268 0 -268 -372t268 -372t268 372t-268 372zM514 -25q-194 1 -308 133t-114 370t113 365q113 126 309 126t310 -126q112 -126 112 -365t-114 -371t-308 -132z" />
    <glyph glyph-name="ocircumflex" unicode="&#xf4;" 
d="M471 1378h86l250 -293h-166l-74 91q-30 43 -49 81h-8q-10 -33 -49 -81l-74 -91h-166zM514 842q-268 0 -268 -372t268 -372t268 372t-268 372zM514 -25q-194 1 -308 133t-114 370t113 365q113 126 309 126t310 -126q112 -126 112 -365t-114 -371t-308 -132z" />
    <glyph glyph-name="otilde" unicode="&#xf5;" 
d="M653 1087q-58 0 -174 66q-20 12 -27 15q-7 4 -25 12q-18 9 -44 8q-74 0 -61 -96h-99q-35 94 7 162t126 69q84 0 168 -51q85 -51 119 -51q66 0 59 102h105q31 -104 -11 -170t-143 -66zM514 842q-268 0 -268 -372t268 -372t268 372t-268 372zM514 -25q-194 1 -308 133
t-114 370t113 365q113 126 309 126t310 -126q112 -126 112 -365t-114 -371t-308 -132z" />
    <glyph glyph-name="odieresis" unicode="&#xf6;" 
d="M596 1217q0 45 33 77t79 33q46 0 78 -33q32 -34 31 -78q0 -44 -33 -77q-34 -33 -78 -33t-77 33t-33 78zM209 1219q0 45 33 77q34 32 78 33q44 0 77 -32q33 -31 33 -77t-33 -79t-78 -33t-77 33t-33 78zM514 842q-268 0 -268 -372t268 -372t268 372t-268 372zM514 -25
q-194 1 -308 133t-114 370t113 365q113 126 309 126t310 -126q112 -126 112 -365t-114 -371t-308 -132z" />
    <glyph glyph-name="divide" unicode="&#xf7;" horiz-adv-x="1019" 
d="M592 859q0 -35 -27 -61t-63 -26t-60 26q-26 26 -26 61q0 36 25 63q26 26 62 26q37 0 63 -26t26 -63zM592 144q0 -36 -27 -62t-63 -25q-36 -1 -60 25q-26 26 -26 62t25 62q26 26 62 26q37 0 63 -26t26 -62zM928 461h-836v94h836v-94z" />
    <glyph glyph-name="oslash" unicode="&#xf8;" 
d="M782 479q0 90 -18 162l-434 -467q63 -76 184 -76q268 0 268 381zM514 842q-268 0 -268 -363q0 -113 24 -192l439 471q-66 84 -195 84zM92 479q0 238 113 364t300 126t300 -109l98 107l92 -78l-118 -127q59 -115 59 -283q0 -239 -114 -371t-297 -132t-287 98l-97 -103
l-92 78l113 121q-70 123 -70 309z" />
    <glyph glyph-name="ugrave" unicode="&#xf9;" horiz-adv-x="1026" 
d="M590 1085h-133l-236 293h215zM430 -25q-287 0 -287 316v655h156v-641q0 -113 44 -164t135 -51t165 76t74 205v575h155v-946h-133l-18 170q-68 -195 -291 -195z" />
    <glyph glyph-name="uacute" unicode="&#xfa;" horiz-adv-x="1026" 
d="M561 1085h-133l154 293h215zM430 -25q-287 0 -287 316v655h156v-641q0 -113 44 -164t135 -51t165 76t74 205v575h155v-946h-133l-18 170q-68 -195 -291 -195z" />
    <glyph glyph-name="ucircumflex" unicode="&#xfb;" horiz-adv-x="1026" 
d="M465 1378h86l250 -293h-166l-74 91q-30 43 -49 81h-8q-10 -33 -49 -81l-74 -91h-166zM430 -25q-287 0 -287 316v655h156v-641q0 -113 44 -164t135 -51t165 76t74 205v575h155v-946h-133l-18 170q-68 -195 -291 -195z" />
    <glyph glyph-name="udieresis" unicode="&#xfc;" horiz-adv-x="1026" 
d="M590 1217q0 45 33 77t77 33q44 0 78 -33q33 -34 33 -78t-33 -77t-78 -33q-46 0 -78 33t-32 78zM203 1219q0 45 33 77q32 32 78 33q46 0 78 -32q32 -31 32 -77t-33 -79t-78 -33t-77 33t-33 78zM430 -25q-287 0 -287 316v655h156v-641q0 -113 44 -164t135 -51t165 76
t74 205v575h155v-946h-133l-18 170q-68 -195 -291 -195z" />
    <glyph glyph-name="yacute" unicode="&#xfd;" horiz-adv-x="872" 
d="M504 1085h-133l153 293h215zM143 -426q-68 0 -129 23l11 129q59 -27 131 -27t120 53q49 53 95 193l-351 1001h170l175 -549q51 -156 71 -264l6 -33h9q18 109 73 295l166 551h162l-340 -1022q-66 -198 -154 -274t-215 -76z" />
    <glyph glyph-name="thorn" unicode="&#xfe;" horiz-adv-x="1077" 
d="M309 -416h-155v1784h155v-584q35 94 117 140t184 45q176 0 276 -123t99 -347q1 -224 -109 -374t-307 -150t-260 150v-541zM309 549v-191q0 -132 74 -198q73 -66 181 -66t185 100t77 281q0 182 -67 274q-67 91 -183 91t-192 -78t-75 -213z" />
    <glyph glyph-name="ydieresis" unicode="&#xff;" horiz-adv-x="872" 
d="M532 1217q0 45 33 77t78 33q45 0 78 -33q33 -34 33 -78t-33 -77t-78 -33t-78 33t-33 78zM145 1219q0 45 33 77t79 33q46 0 78 -32q32 -31 32 -77t-33 -79t-78 -33t-78 33t-33 78zM143 -426q-68 0 -129 23l11 129q59 -27 131 -27t120 53q49 53 95 193l-351 1001h170
l175 -549q51 -156 71 -264l6 -33h9q18 109 73 295l166 551h162l-340 -1022q-66 -198 -154 -274t-215 -76z" />
    <glyph glyph-name="Amacron" unicode="&#x100;" horiz-adv-x="1134" 
d="M821 1386h-514v121h514v-121zM467 803l-111 -316h414l-108 314q-67 189 -84 272l-9 37h-8q-28 -121 -94 -307zM942 0l-125 356h-506l-125 -356h-166l441 1206h217l436 -1206h-172z" />
    <glyph glyph-name="amacron" unicode="&#x101;" horiz-adv-x="966" 
d="M721 1155h-514v125h514v-125zM793 684v-481q0 -88 71 -88q33 0 51 8v-125q-45 -12 -84 -12q-166 0 -184 153q-68 -164 -280 -164q-127 0 -206 69t-79 185q0 340 555 314v127q-1 172 -185 172t-196 -158l-143 21q10 139 111 201q102 62 242 62t234 -66t93 -218zM637 281
v151q-205 4 -302 -41t-97 -143q0 -68 43 -110t127 -42t156 52q73 52 73 133z" />
    <glyph glyph-name="Abreve" unicode="&#x102;" horiz-adv-x="1134" 
d="M834 1593q0 -119 -72 -189t-196 -69q-124 0 -196 70t-71 188h125q12 -141 142 -141t143 141h125zM467 803l-111 -316h414l-108 314q-67 189 -84 272l-9 37h-8q-28 -121 -94 -307zM942 0l-125 356h-506l-125 -356h-166l441 1206h217l436 -1206h-172z" />
    <glyph glyph-name="abreve" unicode="&#x103;" horiz-adv-x="966" 
d="M469 1081q-125 0 -197 75t-71 204h125q6 -80 36 -120t107 -40t107 40t36 120h125q1 -129 -71 -204t-197 -75zM793 684v-481q0 -88 71 -88q33 0 51 8v-125q-45 -12 -84 -12q-166 0 -184 153q-68 -164 -280 -164q-127 0 -206 69t-79 185q0 340 555 314v127q-1 172 -185 172
t-196 -158l-143 21q10 139 111 201q102 62 242 62t234 -66t93 -218zM637 281v151q-205 4 -302 -41t-97 -143q0 -68 43 -110t127 -42t156 52q73 52 73 133z" />
    <glyph glyph-name="Aogonek" unicode="&#x104;" horiz-adv-x="1134" 
d="M467 803l-111 -316h414l-108 314q-67 189 -84 272l-9 37h-8q-28 -121 -94 -307zM889 -432q-106 0 -168 56t-62 162q0 108 77 178t184 97l-103 295h-506l-125 -356h-166l441 1206h217l436 -1206h-72q-86 0 -162 -54t-77 -149q0 -123 110 -123q96 0 146 95l59 -72
q-66 -129 -229 -129z" />
    <glyph glyph-name="aogonek" unicode="&#x105;" horiz-adv-x="966" 
d="M637 281v151q-205 4 -302 -41t-97 -143q0 -68 43 -110t127 -42t156 52q73 52 73 133zM487 -223q0 174 213 256q-47 31 -53 106q-33 -80 -111 -122t-186 -42q-110 0 -189 69t-79 185q0 340 555 314v127q-1 172 -185 172t-196 -158l-143 21q10 139 111 201q102 62 242 62
t233 -66q93 -67 94 -218v-481q0 -88 71 -88q33 0 51 8v-125q-113 -6 -199 -53t-85 -148q0 -123 110 -123q96 0 146 95l59 -72q-66 -129 -229 -129q-106 0 -168 56t-62 153z" />
    <glyph glyph-name="Cacute" unicode="&#x106;" horiz-adv-x="1138" 
d="M688 1341h-141l127 238h213zM92 599q0 296 153 464t402 168q319 0 440 -285l-145 -72q-39 109 -120 165t-187 57q-175 0 -275 -132t-100 -362t92 -358q92 -127 269 -127q121 0 201 45t151 149l112 -94q-83 -127 -193 -184t-280 -58q-238 0 -379 164t-141 460z" />
    <glyph glyph-name="cacute" unicode="&#x107;" horiz-adv-x="929" 
d="M571 1085h-133l154 293h215zM498 -25q-184 0 -295 129t-111 364t114 368t308 133q148 0 236 -75t96 -216l-146 -23q-29 184 -196 185q-125 0 -194 -102q-68 -102 -68 -268q0 -165 74 -267t198 -103q168 0 213 162l131 -29q-41 -258 -360 -258z" />
    <glyph glyph-name="Ccircumflex" unicode="&#x108;" horiz-adv-x="1138" 
d="M594 1595h94l248 -254h-178l-66 70q-30 33 -49 72h-4q-10 -29 -49 -72l-66 -70h-178zM92 599q0 296 153 464t402 168q319 0 440 -285l-145 -72q-39 109 -120 165t-187 57q-175 0 -275 -132t-100 -362t92 -358q92 -127 269 -127q121 0 201 45t151 149l112 -94
q-83 -127 -193 -184t-280 -58q-238 0 -379 164t-141 460z" />
    <glyph glyph-name="ccircumflex" unicode="&#x109;" horiz-adv-x="929" 
d="M469 1378h86l250 -293h-166l-74 91q-30 43 -49 81h-8q-10 -33 -49 -81l-74 -91h-166zM498 -25q-184 0 -295 129t-111 364t114 368t308 133q148 0 236 -75t96 -216l-146 -23q-29 184 -196 185q-125 0 -194 -102q-68 -102 -68 -268q0 -165 74 -267t198 -103q168 0 213 162
l131 -29q-41 -258 -360 -258z" />
    <glyph glyph-name="Cdotaccent" unicode="&#x10a;" horiz-adv-x="1138" 
d="M520 1453q0 46 32 79t78 33t79 -33t33 -79t-34 -79q-32 -33 -78 -33t-78 33t-32 79zM92 599q0 296 153 464t402 168q319 0 440 -285l-145 -72q-39 109 -120 165t-187 57q-175 0 -275 -132t-100 -362t92 -358q92 -127 269 -127q121 0 201 45t151 149l112 -94
q-83 -127 -193 -184t-280 -58q-238 0 -379 164t-141 460z" />
    <glyph glyph-name="cdotaccent" unicode="&#x10b;" horiz-adv-x="929" 
d="M623 1213q0 -47 -33 -79t-79 -32t-78 32t-32 79q0 46 32 79t78 33t79 -33t33 -79zM498 -25q-184 0 -295 129t-111 364t114 368t308 133q148 0 236 -75t96 -216l-146 -23q-29 184 -196 185q-125 0 -194 -102q-68 -102 -68 -268q0 -165 74 -267t198 -103q168 0 213 162
l131 -29q-41 -258 -360 -258z" />
    <glyph glyph-name="Ccaron" unicode="&#x10c;" horiz-adv-x="1138" 
d="M672 1331h-94l-248 254h178l65 -69q17 -19 50 -72h4q10 29 49 72l65 69h179zM92 599q0 296 153 464t402 168q319 0 440 -285l-145 -72q-39 109 -120 165t-187 57q-175 0 -275 -132t-100 -362t92 -358q92 -127 269 -127q121 0 201 45t151 149l112 -94q-83 -127 -193 -184
t-280 -58q-238 0 -379 164t-141 460z" />
    <glyph glyph-name="ccaron" unicode="&#x10d;" horiz-adv-x="929" 
d="M555 1085h-86l-250 293h166l74 -94q38 -55 49 -82h8q10 33 49 82l74 94h166zM498 -25q-184 0 -295 129t-111 364t114 368t308 133q148 0 236 -75t96 -216l-146 -23q-29 184 -196 185q-125 0 -194 -102q-68 -102 -68 -268q0 -165 74 -267t198 -103q168 0 213 162l131 -29
q-41 -258 -360 -258z" />
    <glyph glyph-name="Dcaron" unicode="&#x10e;" horiz-adv-x="1198" 
d="M573 1331h-94l-248 254h179l65 -69q30 -33 49 -72h4q10 29 50 72l65 69h178zM524 0h-350v1206h352q270 0 425 -142t155 -452t-163 -462q-163 -150 -419 -150zM334 133h174q196 0 312 118q116 119 116 363t-114 352t-296 107h-192v-940z" />
    <glyph glyph-name="dcaron" unicode="&#x10f;" horiz-adv-x="1077" 
d="M766 1368h158v-1368h-138l-18 164q-76 -188 -303 -189q-157 0 -265 127t-108 363t111 370t313 134q88 1 160 -45t90 -107v551zM768 371v221q0 122 -77 188t-187 66t-182 -92q-74 -92 -74 -280t72 -280q72 -94 180 -94q110 0 189 72t79 199zM1266 1368l-105 -358h-112
l32 358h185z" />
    <glyph glyph-name="Dcroat" unicode="&#x110;" horiz-adv-x="1198" 
d="M334 133h174q196 0 312 118q116 119 116 363t-114 352t-296 107h-192v-401h237v-140h-237v-399zM524 0h-350v532h-117v140h117v534h352q270 0 425 -142t155 -452t-163 -462q-163 -150 -419 -150z" />
    <glyph glyph-name="dcroat" unicode="&#x111;" horiz-adv-x="1077" 
d="M768 371v221q0 122 -77 188t-187 66t-182 -92q-74 -92 -74 -280t72 -280q72 -94 180 -94q110 0 189 72t79 199zM467 1092v120h299v156h158v-156h135v-120h-135v-1092h-138l-18 164q-76 -188 -303 -189q-157 0 -265 127t-108 363t111 370t313 134q88 0 160 -45t90 -107
v275h-299z" />
    <glyph glyph-name="Emacron" unicode="&#x112;" horiz-adv-x="997" 
d="M793 1386h-514v121h514v-121zM895 139v-139h-721v1206h721v-139h-561v-395h497v-140h-497v-393h561z" />
    <glyph glyph-name="emacron" unicode="&#x113;" horiz-adv-x="972" 
d="M772 1155h-514v125h514v-125zM729 606q0 100 -62 169t-167 69q-104 0 -172 -72t-82 -209h481q2 16 2 43zM514 98q176 0 221 164l137 -31q-47 -256 -370 -256q-188 0 -299 129t-111 364t114 368t298 133t280 -110t97 -290q0 -86 -19 -131h-620q8 -154 78 -247t194 -93z
" />
    <glyph glyph-name="Ebreve" unicode="&#x114;" horiz-adv-x="997" 
d="M795 1593q0 -119 -72 -189t-196 -69q-123 0 -195 70t-72 188h125q12 -141 142 -141t143 141h125zM895 139v-139h-721v1206h721v-139h-561v-395h497v-140h-497v-393h561z" />
    <glyph glyph-name="ebreve" unicode="&#x115;" horiz-adv-x="972" 
d="M510 1081q-125 0 -197 75t-71 204h125q7 -80 37 -120t106 -40t106 40t37 120h125q0 -129 -72 -204t-196 -75zM729 606q0 100 -62 169t-167 69q-104 0 -172 -72t-82 -209h481q2 16 2 43zM514 98q176 0 221 164l137 -31q-47 -256 -370 -256q-188 0 -299 129t-111 364
t114 368t298 133t280 -110t97 -290q0 -86 -19 -131h-620q8 -154 78 -247t194 -93z" />
    <glyph glyph-name="Edotaccent" unicode="&#x116;" horiz-adv-x="997" 
d="M414 1453q0 46 31 79q32 33 78 33t79 -33t33 -79t-33 -79t-79 -33t-78 33q-31 33 -31 79zM895 139v-139h-721v1206h721v-139h-561v-395h497v-140h-497v-393h561z" />
    <glyph glyph-name="edotaccent" unicode="&#x117;" horiz-adv-x="972" 
d="M627 1213q0 -47 -33 -79t-79 -32q-45 0 -77 32t-32 79q0 46 31 79q32 33 78 33t79 -33t33 -79zM729 606q0 100 -62 169t-167 69q-104 0 -172 -72t-82 -209h481q2 16 2 43zM514 98q176 0 221 164l137 -31q-47 -256 -370 -256q-188 0 -299 129t-111 364t114 368t298 133
t280 -110t97 -290q0 -86 -19 -131h-620q8 -154 78 -247t194 -93z" />
    <glyph glyph-name="Eogonek" unicode="&#x118;" horiz-adv-x="997" 
d="M895 139v-139h-25q-104 0 -172 -52t-67 -151q0 -123 110 -123q96 0 146 95l59 -72q-66 -129 -229 -129q-106 0 -168 55q-61 55 -62 154q0 154 150 223h-463v1206h721v-139h-561v-395h497v-140h-497v-393h561z" />
    <glyph glyph-name="eogonek" unicode="&#x119;" horiz-adv-x="972" 
d="M729 606q0 100 -62 169t-167 69q-104 0 -172 -72t-82 -209h481q2 16 2 43zM592 -432q-106 0 -168 56t-62 164q0 110 95 189q-169 17 -267 143t-98 354t114 362q114 133 298 133t280 -110t97 -290q0 -86 -19 -131h-620q8 -154 79 -247t193 -93q176 0 221 164l137 -31
q-18 -104 -74 -155t-143 -80q-150 -53 -149 -199q0 -123 110 -123q96 0 146 95l59 -72q-63 -129 -229 -129z" />
    <glyph glyph-name="Ecaron" unicode="&#x11a;" horiz-adv-x="997" 
d="M582 1331h-95l-247 254h178l65 -69q30 -33 49 -72h5q10 29 49 72l65 69h178zM895 139v-139h-721v1206h721v-139h-561v-395h497v-140h-497v-393h561z" />
    <glyph glyph-name="ecaron" unicode="&#x11b;" horiz-adv-x="972" 
d="M559 1085h-86l-250 293h166l74 -94q38 -55 49 -82h8q10 33 49 82l74 94h166zM729 606q0 100 -62 169t-167 69q-104 0 -172 -72t-82 -209h481q2 16 2 43zM514 98q176 0 221 164l137 -31q-47 -256 -370 -256q-188 0 -299 129t-111 364t114 368t298 133t280 -110t97 -290
q0 -86 -19 -131h-620q8 -154 78 -247t194 -93z" />
    <glyph glyph-name="Gcircumflex" unicode="&#x11c;" horiz-adv-x="1236" 
d="M600 1595h94l248 -254h-178l-66 70q-30 33 -49 72h-4q-10 -29 -49 -72l-66 -70h-178zM637 614h467v-614h-141l-19 162q-33 -86 -128 -136t-204 -51q-238 0 -379 164t-141 460t153 464t402 168q328 0 440 -285l-145 -72q-39 109 -120 165t-187 57q-175 0 -275 -132
t-100 -360t92 -362q92 -133 269 -133q135 1 229 65t94 191v106h-307v143z" />
    <glyph glyph-name="gcircumflex" unicode="&#x11d;" horiz-adv-x="980" 
d="M442 1378h86l250 -293h-166l-73 91q-37 53 -45 73l-5 8h-8q-10 -33 -49 -81l-74 -91h-165zM244 638q0 -102 58 -160t162 -58t164 54t60 160t-60 164q-60 56 -164 54t-163 -57q-57 -56 -57 -157zM170 -170q0 -150 268 -149q338 0 338 172q0 141 -176 141h-194
q-236 0 -236 -164zM92 633q0 156 102 246t272 90q171 0 271 -82q55 25 74 143l139 -49q-10 -68 -51 -112t-102 -56q45 -72 45 -180q0 -158 -106 -243t-269 -85q-82 0 -125 17q-72 -37 -72 -105q0 -86 111 -86h219q326 0 326 -258q0 -237 -319 -291q-83 -14 -181 -14
q-406 0 -406 252q0 94 65 155t177 70q-59 8 -92 46t-33 95q0 125 135 158q-180 82 -180 289z" />
    <glyph glyph-name="Gbreve" unicode="&#x11e;" horiz-adv-x="1236" 
d="M915 1593q1 -119 -71 -189t-196 -69q-124 0 -196 70t-71 188h125q12 -141 142 -141t143 141h124zM637 614h467v-614h-141l-19 162q-33 -86 -128 -136t-204 -51q-238 0 -379 164t-141 460t153 464t402 168q328 0 440 -285l-145 -72q-39 109 -120 165t-187 57
q-175 0 -275 -132t-100 -360t92 -362q92 -133 269 -133q135 1 229 65t94 191v106h-307v143z" />
    <glyph glyph-name="gbreve" unicode="&#x11f;" horiz-adv-x="980" 
d="M477 1081q-125 0 -197 75t-71 204h125q6 -80 37 -120t107 -40t106 40q31 40 37 120h124q1 -129 -71 -204t-197 -75zM244 638q0 -102 58 -160t162 -58t164 54t60 160t-60 164q-60 56 -164 54t-163 -57q-57 -56 -57 -157zM170 -170q0 -150 268 -149q338 0 338 172
q0 141 -176 141h-194q-236 0 -236 -164zM92 633q0 156 102 246t272 90q171 0 271 -82q55 25 74 143l139 -49q-10 -68 -51 -112t-102 -56q45 -72 45 -180q0 -158 -106 -243t-269 -85q-82 0 -125 17q-72 -37 -72 -105q0 -86 111 -86h219q326 0 326 -258q0 -237 -319 -291
q-83 -14 -181 -14q-406 0 -406 252q0 94 65 155t177 70q-59 8 -92 46t-33 95q0 125 135 158q-180 82 -180 289z" />
    <glyph glyph-name="Gdotaccent" unicode="&#x120;" horiz-adv-x="1236" 
d="M537 1486q0 46 31 79q32 33 78 33t79 -34q33 -32 33 -78t-33 -79t-79 -33t-78 33q-31 33 -31 79zM637 614h467v-614h-141l-19 162q-33 -86 -128 -136t-204 -51q-238 0 -379 164t-141 460t153 464t402 168q328 0 440 -285l-145 -72q-39 109 -120 165t-187 57
q-175 0 -275 -132t-100 -360t92 -362q92 -133 269 -133q135 1 229 65t94 191v106h-307v143z" />
    <glyph glyph-name="gdotaccent" unicode="&#x121;" horiz-adv-x="980" 
d="M358 1218q0 46 32 78t78 33q46 0 79 -33q33 -32 33 -78t-33 -79t-79 -33t-78 33t-32 79zM244 638q0 -102 58 -160t162 -58t164 54t60 160t-60 164q-60 56 -164 54t-163 -57q-57 -56 -57 -157zM170 -170q0 -150 268 -149q338 0 338 172q0 141 -176 141h-194
q-236 0 -236 -164zM92 633q0 156 102 246t272 90q171 0 271 -82q55 25 74 143l139 -49q-10 -68 -51 -112t-102 -56q45 -72 45 -180q0 -158 -106 -243t-269 -85q-82 0 -125 17q-72 -37 -72 -105q0 -86 111 -86h219q326 0 326 -258q0 -237 -319 -291q-83 -14 -181 -14
q-406 0 -406 252q0 94 65 155t177 70q-59 8 -92 46t-33 95q0 125 135 158q-180 82 -180 289z" />
    <glyph glyph-name="Gcommaaccent" unicode="&#x122;" horiz-adv-x="1236" 
d="M782 -293q0 -109 -57 -158t-174 -49v70q61 4 89 23t28 69q-53 -10 -85 16t-32 74q0 47 30 74q29 27 79 27t86 -40t36 -106zM637 614h467v-614h-141l-19 162q-33 -86 -128 -136t-204 -51q-238 0 -379 164t-141 460t153 464t402 168q328 0 440 -285l-145 -72
q-39 109 -120 165t-187 57q-175 0 -275 -132t-100 -360t92 -362q92 -133 269 -133q135 1 229 65t94 191v106h-307v143z" />
    <glyph glyph-name="gcommaaccent" unicode="&#x123;" horiz-adv-x="980" 
d="M338 1239q0 109 57 158t174 49v-70q-61 -4 -89 -23t-27 -69q53 10 85 -16t32 -74q0 -47 -30 -74q-30 -26 -80 -26t-86 40t-36 105zM244 638q0 -102 58 -160t162 -58t164 54t60 160t-60 164q-60 56 -164 54t-163 -57q-57 -56 -57 -157zM170 -170q0 -150 268 -149
q338 0 338 172q0 141 -176 141h-194q-236 0 -236 -164zM92 633q0 156 102 246t272 90q171 0 271 -82q55 25 74 143l139 -49q-10 -68 -51 -112t-102 -56q45 -72 45 -180q0 -158 -106 -243t-269 -85q-82 0 -125 17q-72 -37 -72 -105q0 -86 111 -86h219q326 0 326 -258
q0 -237 -319 -291q-83 -14 -181 -14q-406 0 -406 252q0 94 65 155t177 70q-59 8 -92 46t-33 95q0 125 135 158q-180 82 -180 289z" />
    <glyph glyph-name="Hcircumflex" unicode="&#x124;" horiz-adv-x="1277" 
d="M592 1595h94l248 -254h-178l-66 70q-30 33 -49 72h-4q-10 -29 -49 -72l-66 -70h-178zM334 0h-160v1206h160v-524h610v524h160v-1206h-160v543h-610v-543z" />
    <glyph glyph-name="hcircumflex" unicode="&#x125;" horiz-adv-x="1026" 
d="M186 1677h95l247 -254h-178l-65 70q-34 38 -49 72h-5q-10 -29 -49 -72l-65 -70h-178zM309 1368v-602q66 203 283 203q129 0 210 -73t81 -218v-678h-156v641q0 193 -188 193q-96 0 -163 -66t-67 -217v-551h-155v1368h155z" />
    <glyph glyph-name="Hbar" unicode="&#x126;" horiz-adv-x="1312" 
d="M346 682h610v176h-610v-176zM31 858v139h155v209h160v-209h610v209h160v-209h166v-139h-166v-858h-160v543h-610v-543h-160v858h-155z" />
    <glyph glyph-name="hbar" unicode="&#x127;" horiz-adv-x="1026" 
d="M309 1368v-156h297v-120h-297v-326q66 203 283 203q129 0 210 -73t81 -218v-678h-156v641q0 193 -188 193q-96 0 -163 -66t-67 -217v-551h-155v1092h-140v120h140v156h155z" />
    <glyph glyph-name="Itilde" unicode="&#x128;" horiz-adv-x="507" 
d="M395 1341q-59 0 -174 66q-20 12 -27 15q-7 4 -25 12t-44 8q-74 0 -62 -96h-98q-35 94 7 166t125 71q83 0 168 -51t120 -51q66 0 59 102h105q31 -104 -11 -173t-143 -69zM174 1206h160v-1206h-160v1206z" />
    <glyph glyph-name="itilde" unicode="&#x129;" horiz-adv-x="462" 
d="M154 946h155v-946h-155v946zM373 1087q-64 0 -174 66q-19 12 -27 15q-8 4 -25 12t-45 8q-74 0 -61 -96h-98q-35 94 7 162t125 69q83 0 168 -51t119 -51q66 0 60 102h104q31 -104 -10 -170t-143 -66z" />
    <glyph glyph-name="Imacron" unicode="&#x12a;" horiz-adv-x="507" 
d="M512 1386h-514v121h514v-121zM174 1206h160v-1206h-160v1206z" />
    <glyph glyph-name="imacron" unicode="&#x12b;" horiz-adv-x="462" 
d="M154 946h155v-946h-155v946zM453 1155h-443v125h443v-125z" />
    <glyph glyph-name="Ibreve" unicode="&#x12c;" horiz-adv-x="507" 
d="M522 1593q0 -119 -72 -189t-195 -69q-124 0 -196 70t-71 188h125q12 -141 142 -141t142 141h125zM174 1206h160v-1206h-160v1206z" />
    <glyph glyph-name="Iogonek" unicode="&#x12e;" horiz-adv-x="507" 
d="M-49 -223q0 193 223 272v1157h160v-1206q-86 0 -163 -54t-77 -149q0 -123 111 -123q96 0 145 95l60 -72q-66 -129 -230 -129q-106 0 -168 55q-61 56 -61 154z" />
    <glyph glyph-name="iogonek" unicode="&#x12f;" horiz-adv-x="462" 
d="M229 1143q-45 1 -77 33t-31 78q0 46 32 79q31 33 77 33t79 -33t33 -79t-34 -78t-79 -33zM-74 -223q0 195 228 274v895h155v-946q-88 0 -164 -53t-75 -150q0 -123 110 -123q96 0 146 95l59 -72q-66 -129 -229 -129q-106 0 -168 56t-62 153z" />
    <glyph glyph-name="Idotaccent" unicode="&#x130;" horiz-adv-x="507" 
d="M143 1453q0 46 32 79t78 33t79 -33t33 -79t-33 -79t-79 -33t-78 33t-32 79zM174 1206h160v-1206h-160v1206z" />
    <glyph glyph-name="dotlessi" unicode="&#x131;" horiz-adv-x="462" 
d="M154 946h155v-946h-155v946z" />
    <glyph glyph-name="IJ" unicode="&#x132;" horiz-adv-x="1290" 
d="M997 1206h160v-856q0 -198 -103 -286t-263 -89q-260 0 -373 238l129 84q51 -106 104 -146t157 -40q104 -1 146 71t43 209v815zM174 1206h160v-1206h-160v1206z" />
    <glyph glyph-name="ij" unicode="&#x133;" horiz-adv-x="925" 
d="M694 1143q-44 1 -76 33t-32 78t31 79q32 33 78 33t79 -33t33 -79t-34 -78t-79 -33zM616 946h156v-969q0 -223 -104 -311t-318 -82v131q139 -10 203 48q63 58 63 190v993zM154 946h155v-946h-155v946zM229 1143q-45 1 -77 33t-31 78q0 46 32 79q31 33 77 33t79 -33t33 -79
t-34 -78t-79 -33z" />
    <glyph glyph-name="Jcircumflex" unicode="&#x134;" horiz-adv-x="872" 
d="M612 1595h95l247 -254h-178l-65 70q-30 33 -49 72h-5q-10 -29 -49 -72l-65 -70h-178zM580 1206h159v-856q0 -198 -103 -286t-263 -89q-260 0 -373 238l129 84q51 -106 104 -146t157 -40q104 -1 147 71t43 209v815z" />
    <glyph glyph-name="jcircumflex" unicode="&#x135;" horiz-adv-x="462" 
d="M190 1378h86l250 -293h-166l-73 91q-30 43 -49 81h-9q-10 -33 -49 -81l-74 -91h-165zM154 946h155v-969q0 -223 -104 -311t-318 -82v131q139 -10 203 48q63 58 64 190v993z" />
    <glyph glyph-name="Kcommaaccent" unicode="&#x136;" horiz-adv-x="1069" 
d="M649 -293q0 -109 -57 -158t-174 -49v70q61 4 89 23t28 69q-53 -10 -85 16t-32 74q0 47 29 74q30 27 80 27t86 -40t36 -106zM334 543v-543h-160v1206h160v-524h106l371 524h188l-432 -585l461 -621h-197l-397 543h-100z" />
    <glyph glyph-name="kcommaaccent" unicode="&#x137;" horiz-adv-x="923" 
d="M623 -293q1 -109 -57 -158t-175 -49v70q61 4 89 23t28 69q-53 -10 -85 16t-32 74q0 47 30 74t80 27t86 -40t36 -106zM309 434v-434h-155v1368h155v-811h43l338 389h193l-398 -440l428 -506h-196l-352 434h-56z" />
    <glyph glyph-name="kgreenlandic" unicode="&#x138;" horiz-adv-x="923" 
d="M309 434v-434h-155v946h153v-389h45l338 389h193l-398 -440l428 -506h-196l-352 434h-56z" />
    <glyph glyph-name="Lacute" unicode="&#x139;" horiz-adv-x="935" 
d="M342 1341h-141l127 238h213zM174 1206h160v-1067h561v-139h-721v1206z" />
    <glyph glyph-name="lacute" unicode="&#x13a;" horiz-adv-x="516" 
d="M289 1466h-142l127 238h213zM344 -14q-88 0 -144 49t-57 143v1190h156v-1165q0 -86 82 -86q28 0 63 10v-129q-57 -12 -100 -12z" />
    <glyph glyph-name="Lcommaaccent" unicode="&#x13b;" horiz-adv-x="935" 
d="M670 -293q0 -109 -58 -158t-174 -49v70q61 4 89 23t28 69q-53 -10 -85 16t-32 74q0 47 30 74t80 27t86 -40t36 -106zM174 1206h160v-1067h561v-139h-721v1206z" />
    <glyph glyph-name="lcommaaccent" unicode="&#x13c;" horiz-adv-x="516" 
d="M416 -293q0 -109 -58 -158t-174 -49v70q61 4 89 23t28 69q-53 -10 -85 16t-32 74q0 47 30 74t80 27t86 -40t36 -106zM344 -14q-88 0 -144 49t-57 143v1190h156v-1165q0 -86 82 -86q28 0 63 10v-129q-57 -12 -100 -12z" />
    <glyph glyph-name="Lcaron" unicode="&#x13d;" horiz-adv-x="935" 
d="M815 1251l-104 -358h-113l33 358h184zM174 1206h160v-1067h561v-139h-721v1206z" />
    <glyph glyph-name="lcaron" unicode="&#x13e;" horiz-adv-x="516" 
d="M344 -14q-88 0 -144 49t-57 143v1190h156v-1165q0 -86 82 -86q28 0 63 10v-129q-57 -12 -100 -12zM643 1368l-104 -358h-113l33 358h184z" />
    <glyph glyph-name="Ldot" unicode="&#x13f;" horiz-adv-x="935" 
d="M532 631q0 53 37 90t90 37t91 -37t36 -90q0 -53 -36 -90t-90 -37t-91 37t-37 90zM174 1206h160v-1067h561v-139h-721v1206z" />
    <glyph glyph-name="ldot" unicode="&#x140;" horiz-adv-x="624" 
d="M410 647q0 53 36 90t90 37t91 -37t37 -90t-37 -90t-90 -37t-91 37q-36 37 -36 90zM344 -14q-88 0 -144 49t-57 143v1190h156v-1165q0 -86 82 -86q28 0 63 10v-129q-57 -12 -100 -12z" />
    <glyph glyph-name="Lslash" unicode="&#x141;" horiz-adv-x="946" 
d="M184 1206h160v-520l297 113v-142l-297 -108v-410h561v-139h-721v492l-123 -43v133l123 45v579z" />
    <glyph glyph-name="lslash" unicode="&#x142;" horiz-adv-x="530" 
d="M158 1368h155v-512l146 78v-148l-146 -75v-508q0 -86 82 -86q29 0 64 10v-129q-57 -12 -101 -12q-88 0 -144 49t-56 143v453l-117 -60v140l117 61v596z" />
    <glyph glyph-name="Nacute" unicode="&#x143;" horiz-adv-x="1314" 
d="M725 1341h-141l127 238h213zM981 518v688h160v-1206h-166l-498 727q-46 68 -127 211l-20 39h-8q12 -137 12 -289v-688h-160v1206h170l492 -727q69 -102 127 -213l20 -37h8q-10 137 -10 289z" />
    <glyph glyph-name="nacute" unicode="&#x144;" horiz-adv-x="1026" 
d="M584 1085h-133l153 293h215zM592 969q129 0 210 -73t81 -218v-678h-156v639q0 195 -188 195q-96 0 -163 -66t-67 -217v-551h-155v946h116l19 -182q74 205 303 205z" />
    <glyph glyph-name="Ncommaaccent" unicode="&#x145;" horiz-adv-x="1314" 
d="M793 -293q1 -109 -57 -158t-175 -49v70q61 4 89 23t28 69q-53 -10 -85 16t-32 74q0 47 30 74t80 27t86 -40t36 -106zM981 518v688h160v-1206h-166l-498 727q-46 68 -127 211l-20 39h-8q12 -137 12 -289v-688h-160v1206h170l492 -727q69 -102 127 -213l20 -37h8
q-10 137 -10 289z" />
    <glyph glyph-name="ncommaaccent" unicode="&#x146;" horiz-adv-x="1026" 
d="M645 -293q0 -109 -57 -158t-174 -49v70q61 4 89 23t27 69q-53 -10 -85 16t-31 74q0 47 29 74q30 27 80 27t86 -40t36 -106zM592 969q129 0 210 -73t81 -218v-678h-156v639q0 195 -188 195q-96 0 -163 -66t-67 -217v-551h-155v946h116l19 -182q74 205 303 205z" />
    <glyph glyph-name="Ncaron" unicode="&#x147;" horiz-adv-x="1314" 
d="M705 1331h-95l-248 254h179l65 -69q30 -33 49 -72h4q10 29 50 72l65 69h178zM981 518v688h160v-1206h-166l-498 727q-46 68 -127 211l-20 39h-8q12 -137 12 -289v-688h-160v1206h170l492 -727q69 -102 127 -213l20 -37h8q-10 137 -10 289z" />
    <glyph glyph-name="ncaron" unicode="&#x148;" horiz-adv-x="1026" 
d="M569 1085h-86l-250 293h166l74 -94q38 -55 49 -82h8q10 33 50 82l73 94h166zM592 969q129 0 210 -73t81 -218v-678h-156v639q0 195 -188 195q-96 0 -163 -66t-67 -217v-551h-155v946h116l19 -182q74 205 303 205z" />
    <glyph glyph-name="Eng" unicode="&#x14a;" horiz-adv-x="1314" 
d="M1141 1206v-1263q1 -197 -105 -286t-273 -89t-288 121l96 114q96 -100 210 -100t157 72t43 209v6l-504 737q-46 68 -127 211l-20 39h-8q12 -137 12 -289v-688h-160v1206h170l492 -727q69 -102 127 -213l20 -37h8q-10 137 -10 289v688h160z" />
    <glyph glyph-name="eng" unicode="&#x14b;" horiz-adv-x="1026" 
d="M309 0h-155v946h116l19 -182q74 205 303 205q129 0 210 -73t81 -218v-701q-1 -223 -105 -311t-317 -82v131q139 -10 203 47q63 57 63 189v688q0 195 -188 195q-96 0 -163 -66t-67 -217v-551z" />
    <glyph glyph-name="Omacron" unicode="&#x14c;" horiz-adv-x="1253" 
d="M885 1386h-514v121h514v-121zM627 1092q-179 0 -273 -129t-94 -361t94 -360q94 -129 272 -129t273 129q94 129 94 360q0 230 -94 360t-272 130zM627 -25q-246 0 -390 165q-145 165 -145 463t144 463t391 165q246 0 390 -165t144 -463t-144 -463t-390 -165z" />
    <glyph glyph-name="omacron" unicode="&#x14d;" 
d="M772 1155h-514v125h514v-125zM514 842q-268 0 -268 -372t268 -372t268 372t-268 372zM514 -25q-194 1 -308 133t-114 370t113 365q113 126 309 126t310 -126q112 -126 112 -365t-114 -371t-308 -132z" />
    <glyph glyph-name="Obreve" unicode="&#x14e;" horiz-adv-x="1253" 
d="M895 1593q1 -119 -71 -189t-196 -69q-124 0 -196 70t-72 188h125q13 -141 143 -141t142 141h125zM627 1092q-179 0 -273 -129t-94 -361t94 -360q94 -129 272 -129t273 129q94 129 94 360q0 230 -94 360t-272 130zM627 -25q-246 0 -390 165q-145 165 -145 463t144 463
t391 165q246 0 390 -165t144 -463t-144 -463t-390 -165z" />
    <glyph glyph-name="obreve" unicode="&#x14f;" 
d="M514 1081q-125 0 -197 75t-71 204h125q6 -80 37 -120q30 -40 106 -40t107 40t36 120h125q0 -129 -72 -204t-196 -75zM514 842q-268 0 -268 -372t268 -372t268 372t-268 372zM514 -25q-194 1 -308 133t-114 370t113 365q113 126 309 126t310 -126q112 -126 112 -365
t-114 -371t-308 -132z" />
    <glyph glyph-name="Ohungarumlaut" unicode="&#x150;" horiz-adv-x="1253" 
d="M821 1341h-123l154 238h205zM530 1341h-118l133 238h200zM627 1092q-179 0 -273 -129t-94 -361t94 -360q94 -129 272 -129t273 129q94 129 94 360q0 230 -94 360t-272 130zM627 -25q-246 0 -390 165q-145 165 -145 463t144 463t391 165q246 0 390 -165t144 -463
t-144 -463t-390 -165z" />
    <glyph glyph-name="ohungarumlaut" unicode="&#x151;" 
d="M709 1085h-123l153 293h205zM418 1085h-119l133 293h201zM514 842q-268 0 -268 -372t268 -372t268 372t-268 372zM514 -25q-194 1 -308 133t-114 370t113 365q113 126 309 126t310 -126q112 -126 112 -365t-114 -371t-308 -132z" />
    <glyph glyph-name="OE" unicode="&#x152;" horiz-adv-x="1710" 
d="M627 1092q-177 0 -269 -128t-92 -362t92 -361q92 -128 268 -128t269 128q92 128 92 361q0 234 -92 362t-268 128zM627 -25q-246 0 -390 165q-145 165 -145 463t144 463t391 165q92 0 172 -25h809v-139h-592q123 -141 141 -395h387v-140h-387q-18 -256 -141 -393h592v-139
h-809q-80 -25 -172 -25z" />
    <glyph glyph-name="oe" unicode="&#x153;" horiz-adv-x="1665" 
d="M1421 606q0 100 -62 169t-167 69q-104 0 -172 -72t-82 -209h481q2 16 2 43zM514 842q-268 0 -268 -372t268 -372t268 372t-268 372zM1206 98q176 0 221 164l138 -31q-47 -256 -371 -256q-256 0 -338 205q-76 -205 -342 -205q-194 1 -308 133t-114 370t113 365
q113 126 309 126q125 0 218 -50t128 -155q43 98 136 151t210 54q174 0 270 -110t97 -290q0 -86 -19 -131h-620q8 -154 78 -247t194 -93z" />
    <glyph glyph-name="Racute" unicode="&#x154;" horiz-adv-x="1103" 
d="M592 1341h-141l127 238h213zM334 1073v-430h235q238 0 238 215t-238 215h-235zM508 512h-174v-512h-160v1206h399q401 0 402 -336q0 -137 -82 -216t-201 -83v-4q88 -10 138 -56t75 -144l62 -242q18 -74 61 -125h-174q-35 43 -49 109l-51 219q-27 108 -84 146t-162 38z
" />
    <glyph glyph-name="racute" unicode="&#x155;" horiz-adv-x="702" 
d="M461 1085h-133l153 293h215zM578 797q-111 0 -190 -85t-79 -218v-494h-155v946h129l18 -254q29 131 122 206q94 75 239 69l-9 -176q-27 6 -75 6z" />
    <glyph glyph-name="Rcommaaccent" unicode="&#x156;" horiz-adv-x="1103" 
d="M659 -293q0 -109 -57 -158t-174 -49v70q61 4 89 23t28 69q-53 -10 -85 16t-32 74q0 47 30 74t80 27t86 -40t35 -106zM334 1073v-430h235q238 0 238 215t-238 215h-235zM508 512h-174v-512h-160v1206h399q401 0 402 -336q0 -137 -82 -216t-201 -83v-4q88 -10 138 -56
t75 -144l62 -242q18 -74 61 -125h-174q-35 43 -49 109l-51 219q-27 108 -84 146t-162 38z" />
    <glyph glyph-name="rcommaaccent" unicode="&#x157;" horiz-adv-x="702" 
d="M348 -293q0 -109 -57 -158t-174 -49v70q61 4 89 23t27 69q-53 -10 -85 16t-31 74q0 47 29 74q30 27 80 27t86 -40t36 -106zM578 797q-111 0 -190 -85t-79 -218v-494h-155v946h129l18 -254q29 131 122 206q94 75 239 69l-9 -176q-27 6 -75 6z" />
    <glyph glyph-name="Rcaron" unicode="&#x158;" horiz-adv-x="1103" 
d="M571 1331h-94l-248 254h179l65 -69q30 -33 49 -72h4q10 29 49 72l66 69h178zM334 1073v-430h235q238 0 238 215t-238 215h-235zM508 512h-174v-512h-160v1206h399q401 0 402 -336q0 -137 -82 -216t-201 -83v-4q88 -10 138 -56t75 -144l62 -242q18 -74 61 -125h-174
q-35 43 -49 109l-51 219q-27 108 -84 146t-162 38z" />
    <glyph glyph-name="rcaron" unicode="&#x159;" horiz-adv-x="702" 
d="M430 1085h-86l-250 293h166l74 -94q38 -55 49 -82h8q10 33 49 82l74 94h166zM578 797q-111 0 -190 -85t-79 -218v-494h-155v946h129l18 -254q29 131 122 206q94 75 239 69l-9 -176q-27 6 -75 6z" />
    <glyph glyph-name="Sacute" unicode="&#x15a;" horiz-adv-x="952" 
d="M557 1341h-141l127 238h213zM484 1233q162 0 266 -77q106 -77 118 -243l-155 -24q-7 103 -71 161t-162 58t-158 -52q-59 -52 -60 -143q0 -49 16 -84t62 -65q45 -30 83 -45q38 -16 119 -48t126 -55q45 -22 98 -64q106 -83 105 -244t-115 -247t-289 -86q-361 1 -406 320
l152 27q35 -223 260 -224q109 0 172 49t63 139t-54 143q-56 52 -222 115t-206 100q-90 81 -105 141q-16 59 -17 114q0 170 109 252t271 82z" />
    <glyph glyph-name="sacute" unicode="&#x15b;" horiz-adv-x="841" 
d="M506 1085h-133l153 293h215zM418 86q94 0 150 36t56 104t-33 107q-34 38 -122 60l-139 33q-127 31 -182 95q-54 65 -54 169q0 143 98 211t246 68q301 0 330 -252l-154 -17q-8 150 -186 150q-88 0 -137 -38t-49 -101t29 -99q30 -35 112 -53l129 -33q129 -33 194 -95
q64 -62 64 -193t-97 -197t-258 -66q-161 -1 -249 55t-105 181l144 35q18 -160 213 -160z" />
    <glyph glyph-name="Scircumflex" unicode="&#x15c;" horiz-adv-x="952" 
d="M442 1595h95l247 -254h-178l-65 70q-30 33 -49 72h-5q-10 -29 -49 -72l-65 -70h-178zM484 1233q162 0 266 -77q106 -77 118 -243l-155 -24q-7 103 -71 161t-162 58t-158 -52q-59 -52 -60 -143q0 -49 16 -84t62 -65q45 -30 83 -45q38 -16 119 -48t126 -55q45 -22 98 -64
q106 -83 105 -244t-115 -247t-289 -86q-361 1 -406 320l152 27q35 -223 260 -224q109 0 172 49t63 139t-54 143q-56 52 -222 115t-206 100q-90 81 -105 141q-16 59 -17 114q0 170 109 252t271 82z" />
    <glyph glyph-name="scircumflex" unicode="&#x15d;" horiz-adv-x="841" 
d="M410 1378h86l249 -293h-165l-74 91q-30 43 -49 81h-8q-10 -33 -50 -81l-73 -91h-166zM418 86q94 0 150 36t56 104t-33 107q-34 38 -122 60l-139 33q-127 31 -182 95q-54 65 -54 169q0 143 98 211t246 68q301 0 330 -252l-154 -17q-8 150 -186 150q-88 0 -137 -38
t-49 -101t29 -99q30 -35 112 -53l129 -33q129 -33 194 -95q64 -62 64 -193t-97 -197t-258 -66q-161 -1 -249 55t-105 181l144 35q18 -160 213 -160z" />
    <glyph glyph-name="Scedilla" unicode="&#x15e;" horiz-adv-x="952" 
d="M680 -258q0 -86 -58 -130t-162 -44t-161 78l47 98q51 -76 128 -76t77 74q0 90 -143 90l10 145q-160 9 -248 87t-109 231l152 27q35 -223 260 -224q109 0 172 49t63 139t-54 143q-56 52 -222 115t-206 100q-90 81 -105 141q-16 59 -17 114q0 170 109 252t271 82t266 -77
q106 -77 118 -243l-155 -24q-7 103 -71 161t-162 58t-158 -52q-59 -52 -60 -143q0 -49 16 -84t62 -65q45 -30 83 -45q38 -16 119 -48t126 -55q45 -22 98 -64q106 -83 105 -240q-1 -158 -103 -242t-264 -93l-4 -63q180 -16 180 -172z" />
    <glyph glyph-name="scedilla" unicode="&#x15f;" horiz-adv-x="841" 
d="M623 -258q-1 -86 -59 -130t-162 -44t-160 78l47 98q51 -76 128 -76t77 74q0 90 -144 90l10 145q-134 11 -208 65t-91 169l144 35q18 -160 213 -160q94 0 150 36t56 104t-33 107q-34 38 -122 60l-139 33q-127 31 -182 95q-54 65 -54 169q0 143 98 211t246 68
q301 0 330 -252l-154 -17q-8 150 -186 150q-88 0 -137 -38t-49 -101t29 -99q30 -35 112 -53l129 -33q129 -33 194 -95t64 -183q0 -256 -324 -271l-4 -63q181 -16 181 -172z" />
    <glyph glyph-name="Scaron" unicode="&#x160;" horiz-adv-x="952" 
d="M537 1331h-95l-247 254h178l65 -69q30 -33 49 -72h5q10 29 49 72l65 69h178zM484 1233q162 0 266 -77q106 -77 118 -243l-155 -24q-7 103 -71 161t-162 58t-158 -52q-59 -52 -60 -143q0 -49 16 -84t62 -65q45 -30 83 -45q38 -16 119 -48t126 -55q45 -22 98 -64
q106 -83 105 -244t-115 -247t-289 -86q-361 1 -406 320l152 27q35 -223 260 -224q109 0 172 49t63 139t-54 143q-56 52 -222 115t-206 100q-90 81 -105 141q-16 59 -17 114q0 170 109 252t271 82z" />
    <glyph glyph-name="scaron" unicode="&#x161;" horiz-adv-x="841" 
d="M479 1085h-86l-250 293h166l74 -94q38 -55 49 -82h8q10 33 49 82l74 94h166zM418 86q94 0 150 36t56 104t-33 107q-34 38 -122 60l-139 33q-127 31 -182 95q-54 65 -54 169q0 143 98 211t246 68q301 0 330 -252l-154 -17q-8 150 -186 150q-88 0 -137 -38t-49 -101t29 -99
q30 -35 112 -53l129 -33q129 -33 194 -95q64 -62 64 -193t-97 -197t-258 -66q-161 -1 -249 55t-105 181l144 35q18 -160 213 -160z" />
    <glyph glyph-name="Tcommaaccent" unicode="&#x162;" horiz-adv-x="919" 
d="M571 -293q0 -109 -57 -158t-174 -49v70q61 4 89 23t28 69q-53 -10 -85 16t-32 74q0 47 30 74t80 27t86 -40t35 -106zM539 0h-160v1067h-359v139h879v-139h-360v-1067z" />
    <glyph glyph-name="tcommaaccent" unicode="&#x163;" horiz-adv-x="657" 
d="M500 -293q0 -109 -58 -158t-174 -49v70q61 4 89 23t28 69q-53 -10 -85 16t-32 74q0 47 30 74t80 27t86 -40t36 -106zM158 821h-138v125h138v201l157 20v-221h281v-125h-283v-563q0 -150 127 -149q80 0 156 49l31 -129q-84 -53 -209 -53t-193 65q-68 66 -67 188v592z" />
    <glyph glyph-name="Tcaron" unicode="&#x164;" horiz-adv-x="919" 
d="M506 1331h-94l-248 254h178l66 -69q30 -33 49 -72h4q10 29 49 72l65 69h179zM539 0h-160v1067h-359v139h879v-139h-360v-1067z" />
    <glyph glyph-name="tcaron" unicode="&#x165;" horiz-adv-x="657" 
d="M629 1409l-105 -358h-112l32 358h185zM158 821h-138v125h138v201l157 20v-221h281v-125h-283v-563q0 -150 127 -149q80 0 156 49l31 -129q-84 -53 -209 -53t-193 65q-68 66 -67 188v592z" />
    <glyph glyph-name="Tbar" unicode="&#x166;" horiz-adv-x="919" 
d="M539 0h-160v539h-236v133h236v395h-359v139h879v-139h-360v-395h241v-133h-241v-539z" />
    <glyph glyph-name="tbar" unicode="&#x167;" horiz-adv-x="657" 
d="M20 506v123h138v192h-138v125h138v201l157 20v-221h281v-125h-283v-192h283v-123h-283v-248q0 -150 127 -149q80 0 156 49l31 -129q-84 -53 -209 -53t-193 65q-68 66 -67 188v277h-138z" />
    <glyph glyph-name="Utilde" unicode="&#x168;" horiz-adv-x="1173" 
d="M725 1341q-58 0 -174 66q-19 12 -27 15q-8 4 -25 12t-44 8q-74 0 -62 -96h-98q-35 94 7 166t125 71q83 0 168 -51t120 -51q66 0 59 102h105q31 -104 -11 -173t-143 -69zM881 1206h159v-813q0 -309 -288 -395q-78 -23 -166 -23t-166 23q-287 85 -287 395v813h160v-774
q0 -326 294 -326t294 320v780z" />
    <glyph glyph-name="utilde" unicode="&#x169;" horiz-adv-x="1026" 
d="M647 1087q-59 0 -174 66q-19 12 -27 15q-8 4 -25 12t-44 8q-74 0 -62 -96h-98q-35 94 7 162t125 69q83 0 168 -51t120 -51q66 0 59 102h105q31 -104 -11 -170t-143 -66zM430 -25q-287 0 -287 316v655h156v-641q0 -113 44 -164t135 -51t165 76t74 205v575h155v-946h-133
l-18 170q-68 -195 -291 -195z" />
    <glyph glyph-name="Umacron" unicode="&#x16a;" horiz-adv-x="1173" 
d="M844 1386h-514v121h514v-121zM881 1206h159v-813q0 -309 -288 -395q-78 -23 -166 -23t-166 23q-287 85 -287 395v813h160v-774q0 -326 294 -326t294 320v780z" />
    <glyph glyph-name="umacron" unicode="&#x16b;" horiz-adv-x="1026" 
d="M766 1155h-514v125h514v-125zM430 -25q-287 0 -287 316v655h156v-641q0 -113 44 -164t135 -51t165 76t74 205v575h155v-946h-133l-18 170q-68 -195 -291 -195z" />
    <glyph glyph-name="Ubreve" unicode="&#x16c;" horiz-adv-x="1173" 
d="M854 1593q0 -119 -72 -189t-195 -69q-124 0 -196 70t-72 188h125q12 -141 142 -141t143 141h125zM881 1206h159v-813q0 -309 -288 -395q-78 -23 -166 -23t-166 23q-287 85 -287 395v813h160v-774q0 -326 294 -326t294 320v780z" />
    <glyph glyph-name="ubreve" unicode="&#x16d;" horiz-adv-x="1026" 
d="M508 1081q-125 0 -197 75t-71 204h125q7 -80 37 -120t106 -40t106 40t37 120h125q0 -129 -72 -204t-196 -75zM430 -25q-287 0 -287 316v655h156v-641q0 -113 44 -164t135 -51t165 76t74 205v575h155v-946h-133l-18 170q-68 -195 -291 -195z" />
    <glyph glyph-name="Uring" unicode="&#x16e;" horiz-adv-x="1173" 
d="M604 1618q-53 0 -85 -34t-32 -86t31 -83t86 -31t86 31t31 83t-32 86t-85 34zM604 1305q-94 0 -148 55t-54 138t56 138q56 56 146 56t146 -56t57 -138q-1 -83 -55 -138t-148 -55zM881 1206h159v-813q0 -309 -288 -395q-78 -23 -166 -23t-166 23q-287 85 -287 395v813h160
v-774q0 -326 294 -326t294 320v780z" />
    <glyph glyph-name="uring" unicode="&#x16f;" horiz-adv-x="1026" 
d="M510 1386q-53 0 -85 -34t-32 -85q0 -52 31 -83t86 -31t86 31t31 83q0 51 -32 85t-85 34zM510 1073q-94 0 -149 55q-54 54 -54 138q1 84 57 139t146 55t146 -55t56 -138t-54 -139t-148 -55zM430 -25q-287 0 -287 316v655h156v-641q0 -113 44 -164t135 -51t165 76t74 205
v575h155v-946h-133l-18 170q-68 -195 -291 -195z" />
    <glyph glyph-name="Uhungarumlaut" unicode="&#x170;" horiz-adv-x="1173" 
d="M780 1341h-123l154 238h205zM489 1341h-118l133 238h201zM881 1206h159v-813q0 -309 -288 -395q-78 -23 -166 -23t-166 23q-287 85 -287 395v813h160v-774q0 -326 294 -326t294 320v780z" />
    <glyph glyph-name="uhungarumlaut" unicode="&#x171;" horiz-adv-x="1026" 
d="M702 1085h-122l153 293h205zM412 1085h-119l133 293h201zM430 -25q-287 0 -287 316v655h156v-641q0 -113 44 -164t135 -51t165 76t74 205v575h155v-946h-133l-18 170q-68 -195 -291 -195z" />
    <glyph glyph-name="Uogonek" unicode="&#x172;" horiz-adv-x="1173" 
d="M373 -208q0 112 102 194q-152 25 -247 125t-95 282v813h160v-774q0 -326 294 -326t294 320v780h159v-813q0 -197 -110 -297t-283 -116q-131 -58 -131 -182t111 -124q96 0 145 95l59 -72q-66 -129 -229 -129q-106 0 -168 55q-61 57 -61 169z" />
    <glyph glyph-name="uogonek" unicode="&#x173;" horiz-adv-x="1026" 
d="M500 -232q0 92 70 162t165 107l-14 143q-76 -205 -291 -205q-287 0 -287 316v655h156v-641q0 -111 43 -163t134 -52t166 80t75 211v565h155v-946q-92 -4 -160 -60t-69 -147q0 -119 98 -119t148 95l59 -72q-63 -129 -229 -129q-104 0 -162 53q-57 54 -57 147z" />
    <glyph glyph-name="Wcircumflex" unicode="&#x174;" horiz-adv-x="1658" 
d="M782 1595h95l247 -254h-178l-65 70q-17 19 -50 72h-4q-10 -29 -49 -72l-65 -70h-178zM928 1206l202 -786q33 -123 62 -285l6 -37h8q16 129 66 320l207 788h159l-327 -1206h-226l-198 750q-45 168 -51 280l-2 37h-9q-8 -125 -57 -317l-195 -750h-225l-328 1206h170
l203 -782q30 -111 62 -287l6 -39h8q14 133 66 324l213 784h180z" />
    <glyph glyph-name="wcircumflex" unicode="&#x175;" horiz-adv-x="1341" 
d="M627 1378h86l250 -293h-166l-74 91q-30 43 -49 81h-8q-10 -33 -50 -81l-73 -91h-166zM756 946l145 -530q40 -136 60 -273l4 -34h8q4 115 53 307l137 530h158l-260 -946h-187l-137 485q-45 152 -59 265l-4 32h-8q-10 -106 -62 -297l-131 -485h-186l-267 946h162l140 -528
q41 -151 59 -275l4 -34h8q6 121 58 309l145 528h160z" />
    <glyph glyph-name="Ycircumflex" unicode="&#x176;" horiz-adv-x="950" 
d="M428 1595h94l248 -254h-178l-66 70q-30 33 -49 72h-4q-10 -29 -49 -72l-66 -70h-178zM567 0h-159v475l-388 731h181l207 -413q67 -131 79 -189h9q14 57 73 187l193 415h168l-363 -731v-475z" />
    <glyph glyph-name="ycircumflex" unicode="&#x177;" horiz-adv-x="872" 
d="M408 1378h86l249 -293h-165l-74 91q-30 43 -49 81h-9q-10 -33 -49 -81l-73 -91h-166zM143 -426q-68 0 -129 23l11 129q59 -27 131 -27t120 53q49 53 95 193l-351 1001h170l175 -549q51 -156 71 -264l6 -33h9q18 109 73 295l166 551h162l-340 -1022q-66 -198 -154 -274
t-215 -76z" />
    <glyph glyph-name="Ydieresis" unicode="&#x178;" horiz-adv-x="950" 
d="M557 1452q0 45 33 78t78 33q46 0 78 -32t32 -78t-33 -79t-77 -33t-78 33q-33 33 -33 78zM170 1454q0 45 33 78t79 33t78 -33t31 -78q0 -45 -33 -78q-34 -33 -78 -33t-77 33t-33 78zM567 0h-159v475l-388 731h181l207 -413q67 -131 79 -189h9q14 57 73 187l193 415h168
l-363 -731v-475z" />
    <glyph glyph-name="Zacute" unicode="&#x179;" horiz-adv-x="946" 
d="M541 1341h-142l127 238h213zM428 139h477v-139h-864v84l543 831q56 87 100 134l12 16v8q-51 -6 -180 -6h-446v139h829v-104l-539 -811q-30 -45 -58 -82t-40 -53l-14 -15v-8q51 6 180 6z" />
    <glyph glyph-name="zacute" unicode="&#x17a;" horiz-adv-x="784" 
d="M457 1085h-133l153 293h215zM410 131h333v-131h-702v84l385 575q31 45 58 82q28 37 40 54l15 14v8q-51 -6 -181 -6h-295v135h660v-106l-381 -557q-76 -110 -113 -150v-8q51 6 181 6z" />
    <glyph glyph-name="Zdotaccent" unicode="&#x17b;" horiz-adv-x="946" 
d="M362 1486q0 46 32 79t78 33t79 -34q33 -32 33 -78t-33 -79t-79 -33t-78 33t-32 79zM428 139h477v-139h-864v84l543 831q56 87 100 134l12 16v8q-51 -6 -180 -6h-446v139h829v-104l-539 -811q-30 -45 -58 -82t-40 -53l-14 -15v-8q51 6 180 6z" />
    <glyph glyph-name="zdotaccent" unicode="&#x17c;" horiz-adv-x="784" 
d="M514 1254q0 -46 -33 -78t-79 -33q-46 1 -78 33t-31 78q0 46 32 79q31 33 77 33t79 -33t33 -79zM410 131h333v-131h-702v84l385 575q31 45 58 82q28 37 40 54l15 14v8q-51 -6 -181 -6h-295v135h660v-106l-381 -557q-76 -110 -113 -150v-8q51 6 181 6z" />
    <glyph glyph-name="Zcaron" unicode="&#x17d;" horiz-adv-x="946" 
d="M520 1331h-94l-248 254h178l66 -69q30 -33 49 -72h4q10 29 49 72l66 69h178zM428 139h477v-139h-864v84l543 831q56 87 100 134l12 16v8q-51 -6 -180 -6h-446v139h829v-104l-539 -811q-30 -45 -58 -82t-40 -53l-14 -15v-8q51 6 180 6z" />
    <glyph glyph-name="zcaron" unicode="&#x17e;" horiz-adv-x="784" 
d="M446 1085h-86l-249 293h165l74 -94q38 -55 49 -82h9q10 33 49 82l73 94h166zM410 131h333v-131h-702v84l385 575q31 45 58 82q28 37 40 54l15 14v8q-51 -6 -181 -6h-295v135h660v-106l-381 -557q-76 -110 -113 -150v-8q51 6 181 6z" />
    <glyph glyph-name="Schwa" unicode="&#x18f;" horiz-adv-x="1157" 
d="M250 430q0 -145 79 -237q79 -93 223 -93t239 109q96 109 108 287h-645q-4 -33 -4 -66zM551 1231q236 0 375 -165t139 -464t-139 -463q-140 -164 -368 -164t-347 130t-119 366q0 70 12 154h799q-4 205 -101 336t-270 131q-225 0 -294 -230l-129 51q39 158 154 238
q116 80 288 80z" />
    <glyph glyph-name="florin" unicode="&#x192;" horiz-adv-x="827" 
d="M569 1012q79 0 143 -29t95 -74l-90 -114q-61 86 -164 86q-57 0 -99 -43t-57 -125l-37 -205h240l-22 -139h-242l-109 -615h-155l108 615h-139l25 139h139l37 201q51 303 327 303z" />
    <glyph glyph-name="Khook" unicode="&#x198;" horiz-adv-x="1069" 
d="M334 532v-532h-160v1206h160v-528h112l134 315q51 123 118 181q68 57 168 57q127 0 166 -119l-98 -90q-27 66 -75 66t-78 -29q-29 -29 -62 -105l-150 -340l459 -614h-197l-391 532h-106z" />
    <glyph glyph-name="khook" unicode="&#x199;" horiz-adv-x="923" 
d="M309 434v-434h-155v1055q0 119 50 195q87 131 286 121q81 -3 153 -32l-33 -139q-303 133 -303 -178v-465h45l338 389h193l-398 -440l428 -506h-196l-352 434h-56z" />
    <glyph glyph-name="Ezh" unicode="&#x1b7;" horiz-adv-x="923" 
d="M463 1067h-420v139h803v-104l-418 -563v-11q205 -2 325 -122q119 -120 119 -326q0 -207 -133 -329t-327 -122q-194 -1 -310 99t-133 278l131 35q20 -145 102 -218t215 -73q134 0 220 91t86 254t-121 253t-330 86v117l258 364l113 150v8q-51 -6 -180 -6z" />
    <glyph glyph-name="Acaron" unicode="&#x1cd;" horiz-adv-x="1134" 
d="M610 1331h-94l-248 254h178l66 -69q30 -33 49 -72h4q10 29 49 72l66 69h178zM467 803l-111 -316h414l-108 314q-67 189 -84 272l-9 37h-8q-28 -121 -94 -307zM942 0l-125 356h-506l-125 -356h-166l441 1206h217l436 -1206h-172z" />
    <glyph glyph-name="acaron" unicode="&#x1ce;" horiz-adv-x="966" 
d="M512 1085h-86l-250 293h166l74 -94q38 -55 49 -82h8q10 33 49 82l74 94h166zM793 684v-481q0 -88 71 -88q33 0 51 8v-125q-45 -12 -84 -12q-166 0 -184 153q-68 -164 -280 -164q-127 0 -206 69t-79 185q0 340 555 314v127q-1 172 -185 172t-196 -158l-143 21
q10 139 111 201q102 62 242 62t234 -66t93 -218zM637 281v151q-205 4 -302 -41t-97 -143q0 -68 43 -110t127 -42t156 52q73 52 73 133z" />
    <glyph glyph-name="Icaron" unicode="&#x1cf;" horiz-adv-x="507" 
d="M301 1331h-94l-248 254h178l66 -69q30 -33 49 -72h4q10 29 49 72l66 69h178zM174 1206h160v-1206h-160v1206z" />
    <glyph glyph-name="icaron" unicode="&#x1d0;" horiz-adv-x="462" 
d="M154 946h155v-946h-155v946zM274 1085h-86l-249 293h165l74 -94q38 -55 49 -82h9q10 33 49 82l73 94h166z" />
    <glyph glyph-name="Ocaron" unicode="&#x1d1;" horiz-adv-x="1253" 
d="M674 1331h-94l-248 254h178l65 -69q32 -36 50 -72h4q10 29 49 72l65 69h179zM627 1092q-179 0 -273 -129t-94 -361t94 -360q94 -129 272 -129t273 129q94 129 94 360q0 230 -94 360t-272 130zM627 -25q-246 0 -390 165q-145 165 -145 463t144 463t391 165q246 0 390 -165
t144 -463t-144 -463t-390 -165z" />
    <glyph glyph-name="ocaron" unicode="&#x1d2;" 
d="M557 1085h-86l-250 293h166l74 -94q38 -55 49 -82h8q10 33 49 82l74 94h166zM514 842q-268 0 -268 -372t268 -372t268 372t-268 372zM514 -25q-194 1 -308 133t-114 370t113 365q113 126 309 126t310 -126q112 -126 112 -365t-114 -371t-308 -132z" />
    <glyph glyph-name="Ucaron" unicode="&#x1d3;" horiz-adv-x="1173" 
d="M633 1331h-94l-248 254h178l66 -69q30 -33 49 -72h4q10 29 49 72l65 69h179zM881 1206h159v-813q0 -309 -288 -395q-78 -23 -166 -23t-166 23q-287 85 -287 395v813h160v-774q0 -326 294 -326t294 320v780z" />
    <glyph glyph-name="ucaron" unicode="&#x1d4;" horiz-adv-x="1026" 
d="M551 1085h-86l-250 293h166l74 -94q38 -55 49 -82h8q10 33 49 82l74 94h166zM430 -25q-287 0 -287 316v655h156v-641q0 -113 44 -164t135 -51t165 76t74 205v575h155v-946h-133l-18 170q-68 -195 -291 -195z" />
    <glyph glyph-name="uni004100A800AF" unicode="&#x1de;" horiz-adv-x="1134" 
d="M649 1411q0 45 33 78t79 33t78 -32q31 -32 31 -78t-32 -79t-78 -33q-45 0 -78 33t-33 78zM262 1413q0 45 33 78t78 33t78 -33t33 -78t-34 -78q-32 -33 -77 -33t-78 34q-33 32 -33 77zM821 1626h-514v121h514v-121zM467 803l-111 -316h414l-108 314q-67 189 -84 272l-9 37
h-8q-28 -121 -94 -307zM942 0l-125 356h-506l-125 -356h-166l441 1206h217l436 -1206h-172z" />
    <glyph glyph-name="adieresismacron" unicode="&#x1df;" horiz-adv-x="966" 
d="M551 1147q0 45 33 78t79 33q45 0 77 -34q32 -32 32 -77t-33 -78t-77 -33t-78 33q-33 33 -33 78zM164 1149q0 45 33 78t77 33t78 -32q33 -32 33 -78t-33 -79t-78 -33q-46 0 -78 33t-32 78zM727 1343h-514v125h514v-125zM793 684v-481q0 -88 71 -88q33 0 51 8v-125
q-45 -12 -84 -12q-166 0 -184 153q-68 -164 -280 -164q-127 0 -206 69t-79 185q0 340 555 314v127q-1 172 -185 172t-196 -158l-143 21q10 139 111 201q102 62 242 62t234 -66t93 -218zM637 281v151q-205 4 -302 -41t-97 -143q0 -68 43 -110t127 -42t156 52q73 52 73 133z
" />
    <glyph glyph-name="AEmacron" unicode="&#x1e2;" horiz-adv-x="1675" 
d="M1352 1386h-514v121h514v-121zM852 487v304q0 146 8 270l4 29h-8l-371 -603h367zM1573 0h-721v356h-444l-218 -356h-170l746 1206h807v-139h-561v-395h499v-140h-499v-393h561v-139z" />
    <glyph glyph-name="aemacron" unicode="&#x1e3;" horiz-adv-x="1476" 
d="M985 1155h-514v125h514v-125zM395 96q76 0 140 42q63 42 92 114q-27 80 -31 186q-197 -2 -278 -44t-80 -146q0 -66 40 -109t117 -43zM1229 606q-1 100 -61 169t-164 69t-170 -75q-64 -75 -80 -212h473q2 16 2 49zM1018 100q176 0 221 162l137 -31q-47 -256 -370 -256
q-219 0 -328 168q-88 -168 -305 -168q-131 0 -211 68t-80 186q0 326 518 328q8 76 35 148q-19 137 -193 137t-186 -158l-143 21q10 139 111 201t241 63q184 0 262 -115q111 115 288 115t271 -111t98 -297q0 -70 -12 -123h-622q8 -156 76 -247t192 -91z" />
    <glyph glyph-name="Gstroke" unicode="&#x1e4;" horiz-adv-x="1277" 
d="M637 639h467v-233h123v-123h-123v-283h-141l-19 162q-33 -86 -128 -136t-204 -51q-238 0 -379 164t-141 460t153 464t402 168q328 0 440 -285l-145 -72q-39 109 -120 165t-187 57q-175 0 -273 -132t-98 -362t91 -361q91 -132 266 -132q262 0 319 174h-303v123h307v100
h-307v133z" />
    <glyph glyph-name="gstroke" unicode="&#x1e5;" horiz-adv-x="1073" 
d="M492 -324q289 0 331 125h-600q23 -125 269 -125zM459 -6q-205 0 -234 -121h604q-10 121 -174 121h-196zM301 638q0 -102 58 -160q57 -58 161 -58t165 54q60 54 60 160t-60 164q-61 56 -165 54t-162 -57q-57 -56 -57 -157zM523 969q171 0 272 -82q55 25 73 143l140 -49
q-10 -68 -52 -112t-102 -56q45 -72 45 -180q0 -158 -106 -243t-269 -85q-82 0 -125 17q-72 -37 -71 -105q0 -86 110 -86h219q326 0 326 -258h90v-72h-98q-33 -125 -170 -179t-322 -54q-389 0 -405 233h-78v72h84q16 74 78 119t157 53q-59 8 -92 46t-32 95q0 125 135 158
q-180 82 -180 289q0 156 101 246t272 90z" />
    <glyph glyph-name="Gcaron" unicode="&#x1e6;" horiz-adv-x="1236" 
d="M694 1331h-94l-248 254h178l66 -69q30 -33 49 -72h4q10 29 49 72l66 69h178zM637 614h467v-614h-141l-19 162q-33 -86 -128 -136t-204 -51q-238 0 -379 164t-141 460t153 464t402 168q328 0 440 -285l-145 -72q-39 109 -120 165t-187 57q-175 0 -275 -132t-100 -360
t92 -362q92 -133 269 -133q135 1 229 65t94 191v106h-307v143z" />
    <glyph glyph-name="gcaron" unicode="&#x1e7;" horiz-adv-x="980" 
d="M528 1085h-86l-249 293h165l74 -94q38 -55 49 -82h8q10 33 50 82l73 94h166zM244 638q0 -102 58 -160t162 -58t164 54t60 160t-60 164q-60 56 -164 54t-163 -57q-57 -56 -57 -157zM170 -170q0 -150 268 -149q338 0 338 172q0 141 -176 141h-194q-236 0 -236 -164zM92 633
q0 156 102 246t272 90q171 0 271 -82q55 25 74 143l139 -49q-10 -68 -51 -112t-102 -56q45 -72 45 -180q0 -158 -106 -243t-269 -85q-82 0 -125 17q-72 -37 -72 -105q0 -86 111 -86h219q326 0 326 -258q0 -237 -319 -291q-83 -14 -181 -14q-406 0 -406 252q0 94 65 155
t177 70q-59 8 -92 46t-33 95q0 125 135 158q-180 82 -180 289z" />
    <glyph glyph-name="Kcaron" unicode="&#x1e8;" horiz-adv-x="1069" 
d="M561 1331h-94l-248 254h178l66 -69q30 -33 49 -72h4q10 29 49 72l66 69h178zM334 543v-543h-160v1206h160v-524h106l371 524h188l-432 -585l461 -621h-197l-397 543h-100z" />
    <glyph glyph-name="kcaron" unicode="&#x1e9;" horiz-adv-x="923" 
d="M279 1452h-95l-247 254h178l65 -70q31 -35 49 -71h4q10 29 50 71l65 70h178zM309 434v-434h-155v1368h155v-811h43l338 389h193l-398 -440l428 -506h-196l-352 434h-56z" />
    <glyph glyph-name="Oogonek" unicode="&#x1ea;" horiz-adv-x="1253" 
d="M627 1092q-179 0 -273 -129t-94 -361t94 -360q94 -129 272 -129t273 129q94 129 94 360q0 230 -94 360t-272 130zM406 -223q0 127 104 209q-198 36 -308 196t-110 440t144 444q144 165 391 165q246 0 390 -165t144 -455q0 -291 -129 -453t-352 -178q-131 -58 -131 -182
t110 -124q96 0 146 95l59 -72q-66 -129 -229 -129q-106 0 -168 55q-61 56 -61 154z" />
    <glyph glyph-name="oogonek" unicode="&#x1eb;" 
d="M514 842q-268 0 -268 -372t268 -372t268 372t-268 372zM281 -223q0 133 110 215q-141 37 -220 163t-79 344t113 344t309 126t310 -126q112 -127 112 -359t-102 -363t-281 -144q-129 -57 -129 -180t111 -123q96 0 145 95l59 -72q-63 -129 -229 -129q-106 0 -168 55
q-61 56 -61 154z" />
    <glyph glyph-name="uni004F02DB00AF" unicode="&#x1ec;" horiz-adv-x="1253" 
d="M627 1092q-179 0 -273 -129t-94 -361t94 -360q94 -129 272 -129t273 129q94 129 94 360q0 230 -94 360t-272 130zM406 -223q0 127 104 209q-198 36 -308 196t-110 440t144 444q144 165 391 165q246 0 390 -165t144 -455q0 -291 -129 -453t-352 -178q-131 -58 -131 -182
t110 -124q96 0 146 95l59 -72q-66 -129 -229 -129q-106 0 -168 55q-61 56 -61 154zM885 1386h-514v121h514v-121z" />
    <glyph glyph-name="oogonekmacron" unicode="&#x1ed;" 
d="M514 842q-268 0 -268 -372t268 -372t268 372t-268 372zM281 -223q0 133 110 215q-141 37 -220 163t-79 344t113 344t309 126t310 -126q112 -127 112 -359t-102 -363t-281 -144q-129 -57 -129 -180t111 -123q96 0 145 95l59 -72q-63 -129 -229 -129q-106 0 -168 55
q-61 56 -61 154zM772 1155h-514v125h514v-125z" />
    <glyph glyph-name="Ezhcaron" unicode="&#x1ee;" horiz-adv-x="923" 
d="M506 1331h-94l-248 254h178l66 -69q30 -33 49 -72h4q10 29 49 72l65 69h179zM463 1067h-420v139h803v-104l-418 -563v-11q205 -2 325 -122q119 -120 119 -326q0 -207 -133 -329t-327 -122q-194 -1 -310 99t-133 278l131 35q20 -145 102 -218t215 -73q134 0 220 91t86 254
t-121 253t-330 86v117l258 364l113 150v8q-51 -6 -180 -6z" />
    <glyph glyph-name="ezhcaron" unicode="&#x1ef;" horiz-adv-x="786" 
d="M442 1085h-86l-250 293h166l74 -94q38 -55 49 -82h8q10 33 50 82l73 94h166zM346 811h-280v135h659v-106l-354 -434v-7q158 -2 253 -103t95 -262t-113 -255t-268 -94t-249 79q-93 80 -109 207l135 31q16 -96 75 -146q58 -50 152 -50t163 62t69 172t-86 188
q-85 78 -261 98v104l187 229l131 150v8q-70 -6 -199 -6z" />
    <glyph glyph-name="jcaron" unicode="&#x1f0;" horiz-adv-x="462" 
d="M154 946h155v-969q0 -223 -104 -311t-318 -82v131q139 -10 203 48q63 58 64 190v993zM276 1085h-86l-249 293h165l74 -94q38 -55 49 -82h9q10 33 49 82l73 94h166z" />
    <glyph glyph-name="jcaron" unicode="&#xe10c;" horiz-adv-x="462" 
d="M154 946h155v-969q0 -223 -104 -311t-318 -82v131q139 -10 203 48q63 58 64 190v993zM276 1085h-86l-249 293h165l74 -94q38 -55 49 -82h9q10 33 49 82l73 94h166z" />
    <glyph glyph-name="Gacute" unicode="&#x1f4;" horiz-adv-x="1236" 
d="M715 1341h-142l127 238h213zM637 614h467v-614h-141l-19 162q-33 -86 -128 -136t-204 -51q-238 0 -379 164t-141 460t153 464t402 168q328 0 440 -285l-145 -72q-39 109 -120 165t-187 57q-175 0 -275 -132t-100 -360t92 -362q92 -133 269 -133q135 1 229 65t94 191v106
h-307v143z" />
    <glyph glyph-name="gacute" unicode="&#x1f5;" horiz-adv-x="980" 
d="M539 1085h-133l153 293h215zM244 638q0 -102 58 -160t162 -58t164 54t60 160t-60 164q-60 56 -164 54t-163 -57q-57 -56 -57 -157zM170 -170q0 -150 268 -149q338 0 338 172q0 141 -176 141h-194q-236 0 -236 -164zM92 633q0 156 102 246t272 90q171 0 271 -82
q55 25 74 143l139 -49q-10 -68 -51 -112t-102 -56q45 -72 45 -180q0 -158 -106 -243t-269 -85q-82 0 -125 17q-72 -37 -72 -105q0 -86 111 -86h219q326 0 326 -258q0 -237 -319 -291q-83 -14 -181 -14q-406 0 -406 252q0 94 65 155t177 70q-59 8 -92 46t-33 95
q0 125 135 158q-180 82 -180 289z" />
    <glyph glyph-name="Ngrave" unicode="&#x1f8;" horiz-adv-x="1314" 
d="M735 1341h-141l-199 238h213zM981 518v688h160v-1206h-166l-498 727q-46 68 -127 211l-20 39h-8q12 -137 12 -289v-688h-160v1206h170l492 -727q69 -102 127 -213l20 -37h8q-10 137 -10 289z" />
    <glyph glyph-name="ngrave" unicode="&#x1f9;" horiz-adv-x="1026" 
d="M612 1085h-133l-235 293h215zM592 969q129 0 210 -73t81 -218v-678h-156v639q0 195 -188 195q-96 0 -163 -66t-67 -217v-551h-155v946h116l19 -182q74 205 303 205z" />
    <glyph glyph-name="uni004102DA00B4" unicode="&#x1fa;" horiz-adv-x="1134" 
d="M629 1720h-142l127 238h213zM565 1585q-53 0 -85 -34t-32 -86t32 -83q30 -30 85 -30t86 30t31 83q0 52 -32 86t-85 34zM565 1272q-94 0 -148 55q-55 55 -55 138t56 139t147 55q91 0 147 -55q56 -54 56 -138t-54 -139t-149 -55zM467 803l-111 -316h414l-108 314
q-67 189 -84 272l-9 37h-8q-28 -121 -94 -307zM942 0l-125 356h-506l-125 -356h-166l441 1206h217l436 -1206h-172z" />
    <glyph glyph-name="aringacute" unicode="&#x1fb;" horiz-adv-x="966" 
d="M541 1507h-142l127 238h213zM461 1358q-53 0 -85 -34t-32 -86t31 -83t86 -31t86 31t31 83t-32 86t-85 34zM461 1044q-95 0 -149 56t-54 138q0 83 56 138q56 56 146 56t147 -56t57 -138t-54 -138t-149 -56zM793 684v-481q0 -88 71 -88q33 0 51 8v-125q-45 -12 -84 -12
q-166 0 -184 153q-68 -164 -280 -164q-127 0 -206 69t-79 185q0 340 555 314v127q-1 172 -185 172t-196 -158l-143 21q10 139 111 201q102 62 242 62t234 -66t93 -218zM637 281v151q-205 4 -302 -41t-97 -143q0 -68 43 -110t127 -42t156 52q73 52 73 133z" />
    <glyph glyph-name="AEacute" unicode="&#x1fc;" horiz-adv-x="1675" 
d="M1161 1341h-141l127 238h213zM852 487v304q0 146 8 270l4 29h-8l-371 -603h367zM1573 0h-721v356h-444l-218 -356h-170l746 1206h807v-139h-561v-395h499v-140h-499v-393h561v-139z" />
    <glyph glyph-name="aeacute" unicode="&#x1fd;" horiz-adv-x="1476" 
d="M780 1085h-133l154 293h215zM395 96q76 0 140 42q63 42 92 114q-27 80 -31 186q-197 -2 -278 -44t-80 -146q0 -66 40 -109t117 -43zM1229 606q-1 100 -61 169t-164 69t-170 -75q-64 -75 -80 -212h473q2 16 2 49zM1018 100q176 0 221 162l137 -31q-47 -256 -370 -256
q-219 0 -328 168q-88 -168 -305 -168q-131 0 -211 68t-80 186q0 326 518 328q8 76 35 148q-19 137 -193 137t-186 -158l-143 21q10 139 111 201t241 63q184 0 262 -115q111 115 288 115t271 -111t98 -297q0 -70 -12 -123h-622q8 -156 76 -247t192 -91z" />
    <glyph glyph-name="Oslashacute" unicode="&#x1fe;" horiz-adv-x="1253" 
d="M694 1341h-141l127 238h213zM987 602q0 156 -39 260l-577 -639q92 -111 262 -111t262 129q92 128 92 361zM622 1092q-172 0 -264 -128t-92 -362q0 -156 41 -268l578 643q-92 115 -263 115zM92 602q0 299 144 464t380 165t373 -137l117 129l92 -84l-131 -146
q94 -154 94 -391q0 -297 -144 -462q-145 -165 -379 -165t-372 134l-125 -138l-86 82l135 150q-98 158 -98 399z" />
    <glyph glyph-name="oslashacute" unicode="&#x1ff;" 
d="M586 1085h-133l153 293h215zM782 479q0 90 -18 162l-434 -467q63 -76 184 -76q268 0 268 381zM514 842q-268 0 -268 -363q0 -113 24 -192l439 471q-66 84 -195 84zM92 479q0 238 113 364t300 126t300 -109l98 107l92 -78l-118 -127q59 -115 59 -283q0 -239 -114 -371
t-297 -132t-287 98l-97 -103l-92 78l113 121q-70 123 -70 309z" />
    <glyph glyph-name="Adoublegrave" unicode="&#x200;" horiz-adv-x="1134" 
d="M502 1341h-123l-236 238h205zM788 1341h-118l-215 238h200zM467 803l-111 -316h414l-108 314q-67 189 -84 272l-9 37h-8q-28 -121 -94 -307zM942 0l-125 356h-506l-125 -356h-166l441 1206h217l436 -1206h-172z" />
    <glyph glyph-name="edoublegrave" unicode="&#x201;" horiz-adv-x="972" 
d="M446 1085h-122l-236 293h205zM733 1085h-119l-215 293h201zM729 606q0 100 -62 169t-167 69q-104 0 -172 -72t-82 -209h481q2 16 2 43zM514 98q176 0 221 164l137 -31q-47 -256 -370 -256q-188 0 -299 129t-111 364t114 368t298 133t280 -110t97 -290q0 -86 -19 -131
h-620q8 -154 78 -247t194 -93z" />
    <glyph glyph-name="edoublegrave" unicode="&#x205;" horiz-adv-x="972" 
d="M446 1085h-122l-236 293h205zM733 1085h-119l-215 293h201zM729 606q0 100 -62 169t-167 69q-104 0 -172 -72t-82 -209h481q2 16 2 43zM514 98q176 0 221 164l137 -31q-47 -256 -370 -256q-188 0 -299 129t-111 364t114 368t298 133t280 -110t97 -290q0 -86 -19 -131
h-620q8 -154 78 -247t194 -93z" />
    <glyph glyph-name="Ainvertedbreve" unicode="&#x202;" horiz-adv-x="1134" 
d="M297 1341q-1 119 71 189t196 69q124 1 196 -69t71 -189h-124q-13 141 -143 141t-142 -141h-125zM467 803l-111 -316h414l-108 314q-67 189 -84 272l-9 37h-8q-28 -121 -94 -307zM942 0l-125 356h-506l-125 -356h-166l441 1206h217l436 -1206h-172z" />
    <glyph glyph-name="ainvertedbreve" unicode="&#x203;" horiz-adv-x="966" 
d="M465 1368q125 0 197 -75t71 -203h-125q-6 80 -37 120t-107 39q-76 0 -106 -40q-31 -40 -36 -119h-125q-1 130 71 204t197 74zM793 684v-481q0 -88 71 -88q33 0 51 8v-125q-45 -12 -84 -12q-166 0 -184 153q-68 -164 -280 -164q-127 0 -206 69t-79 185q0 340 555 314v127
q-1 172 -185 172t-196 -158l-143 21q10 139 111 201q102 62 242 62t234 -66t93 -218zM637 281v151q-205 4 -302 -41t-97 -143q0 -68 43 -110t127 -42t156 52q73 52 73 133z" />
    <glyph glyph-name="Edoublegrave" unicode="&#x204;" horiz-adv-x="997" 
d="M469 1341h-123l-235 238h204zM756 1341h-119l-215 238h201zM895 139v-139h-721v1206h721v-139h-561v-395h497v-140h-497v-393h561z" />
    <glyph glyph-name="Einvertedbreve" unicode="&#x206;" horiz-adv-x="997" 
d="M250 1346q0 118 72 188t195 70q124 0 196 -70t71 -188h-125q-12 141 -142 141t-142 -141h-125zM895 139v-139h-721v1206h721v-139h-561v-395h497v-140h-497v-393h561z" />
    <glyph glyph-name="einvertedbreve" unicode="&#x207;" horiz-adv-x="972" 
d="M510 1368q125 0 197 -75t71 -203h-125q-6 80 -37 120q-30 40 -106 39q-76 0 -107 -40t-36 -119h-125q0 130 72 204t196 74zM729 606q0 100 -62 169t-167 69q-104 0 -172 -72t-82 -209h481q2 16 2 43zM514 98q176 0 221 164l137 -31q-47 -256 -370 -256q-188 0 -299 129
t-111 364t114 368t298 133t280 -110t97 -290q0 -86 -19 -131h-620q8 -154 78 -247t194 -93z" />
    <glyph glyph-name="Idoublegrave" unicode="&#x208;" horiz-adv-x="507" 
d="M188 1341h-122l-236 238h205zM475 1341h-119l-215 238h201zM174 1206h160v-1206h-160v1206z" />
    <glyph glyph-name="idoublegrave" unicode="&#x209;" horiz-adv-x="462" 
d="M162 1085h-123l-236 293h205zM449 1085h-119l-215 293h200zM154 946h155v-946h-155v946z" />
    <glyph glyph-name="Iinvertedbreve" unicode="&#x20a;" horiz-adv-x="507" 
d="M-12 1346q0 118 72 188t195 70q124 0 196 -70t71 -188h-125q-12 141 -142 141t-142 -141h-125zM174 1206h160v-1206h-160v1206z" />
    <glyph glyph-name="iinvertedbreve" unicode="&#x20b;" horiz-adv-x="462" 
d="M231 1368q125 0 197 -75t72 -203h-125q-6 80 -37 120t-107 39q-77 0 -107 -40t-36 -119h-125q-1 130 71 204t197 74zM154 946h155v-946h-155v946z" />
    <glyph glyph-name="Odoublegrave" unicode="&#x20c;" horiz-adv-x="1253" 
d="M561 1341h-123l-235 238h205zM848 1341h-119l-215 238h201zM627 1092q-179 0 -273 -129t-94 -361t94 -360q94 -129 272 -129t273 129q94 129 94 360q0 230 -94 360t-272 130zM627 -25q-246 0 -390 165q-145 165 -145 463t144 463t391 165q246 0 390 -165t144 -463
t-144 -463t-390 -165z" />
    <glyph glyph-name="odoublegrave" unicode="&#x20d;" 
d="M444 1085h-122l-236 293h205zM731 1085h-119l-215 293h201zM514 842q-268 0 -268 -372t268 -372t268 372t-268 372zM514 -25q-194 1 -308 133t-114 370t113 365q113 126 309 126t310 -126q112 -126 112 -365t-114 -371t-308 -132z" />
    <glyph glyph-name="Oinvertedbreve" unicode="&#x20e;" horiz-adv-x="1253" 
d="M360 1346q0 118 72 188t196 70t196 -70t71 -188h-125q-12 141 -142 141t-143 -141h-125zM627 1092q-179 0 -273 -129t-94 -361t94 -360q94 -129 272 -129t273 129q94 129 94 360q0 230 -94 360t-272 130zM627 -25q-246 0 -390 165q-145 165 -145 463t144 463t391 165
q246 0 390 -165t144 -463t-144 -463t-390 -165z" />
    <glyph glyph-name="oinvertedbreve" unicode="&#x20f;" 
d="M514 1368q125 0 197 -75t71 -203h-125q-7 80 -37 120t-106 39q-76 0 -106 -40t-37 -119h-125q0 130 72 204t196 74zM514 842q-268 0 -268 -372t268 -372t268 372t-268 372zM514 -25q-194 1 -308 133t-114 370t113 365q113 126 309 126t310 -126q112 -126 112 -365
t-114 -371t-308 -132z" />
    <glyph glyph-name="Rinvertedbreve" unicode="&#x212;" horiz-adv-x="1103" 
d="M258 1346q0 118 72 188t195 70q124 0 196 -70t72 -188h-125q-12 141 -142 141t-143 -141h-125zM334 1073v-430h235q238 0 238 215t-238 215h-235zM508 512h-174v-512h-160v1206h399q401 0 402 -336q0 -137 -82 -216t-201 -83v-4q88 -10 138 -56t75 -144l62 -242
q18 -74 61 -125h-174q-35 43 -49 109l-51 219q-27 108 -84 146t-162 38z" />
    <glyph glyph-name="rinvertedbreve" unicode="&#x213;" horiz-adv-x="702" 
d="M408 1368q124 0 196 -75t72 -203h-125q-6 80 -37 120q-30 40 -106 39q-76 0 -107 -40t-37 -119h-125q0 130 72 204t197 74zM578 797q-111 0 -190 -85t-79 -218v-494h-155v946h129l18 -254q29 131 122 206q94 75 239 69l-9 -176q-27 6 -75 6z" />
    <glyph glyph-name="Udoublegrave" unicode="&#x214;" horiz-adv-x="1173" 
d="M520 1341h-123l-235 238h205zM807 1341h-119l-215 238h201zM881 1206h159v-813q0 -309 -288 -395q-78 -23 -166 -23t-166 23q-287 85 -287 395v813h160v-774q0 -326 294 -326t294 320v780z" />
    <glyph glyph-name="udoublegrave" unicode="&#x215;" horiz-adv-x="1026" 
d="M438 1085h-123l-235 293h205zM725 1085h-119l-215 293h201zM430 -25q-287 0 -287 316v655h156v-641q0 -113 44 -164t135 -51t165 76t74 205v575h155v-946h-133l-18 170q-68 -195 -291 -195z" />
    <glyph glyph-name="Uinvertedbreve" unicode="&#x216;" horiz-adv-x="1173" 
d="M319 1346q0 118 72 188t196 70q123 0 195 -70t72 -188h-125q-12 141 -142 141t-143 -141h-125zM881 1206h159v-813q0 -309 -288 -395q-78 -23 -166 -23t-166 23q-287 85 -287 395v813h160v-774q0 -326 294 -326t294 320v780z" />
    <glyph glyph-name="uinvertedbreve" unicode="&#x217;" horiz-adv-x="1026" 
d="M508 1368q125 0 197 -75t71 -203h-125q-6 80 -37 120q-30 40 -106 39q-76 0 -107 -40t-36 -119h-125q0 130 72 204t196 74zM430 -25q-287 0 -287 316v655h156v-641q0 -113 44 -164t135 -51t165 76t74 205v575h155v-946h-133l-18 170q-68 -195 -291 -195z" />
    <glyph glyph-name="Scommaaccent" unicode="&#x218;" horiz-adv-x="952" 
d="M625 -293q1 -109 -57 -158t-175 -49v70q61 4 89 23t28 69q-53 -10 -85 16t-32 74q0 47 30 74t80 27t86 -40t36 -106zM484 1233q162 0 266 -77q106 -77 118 -243l-155 -24q-7 103 -71 161t-162 58t-158 -52q-59 -52 -60 -143q0 -49 16 -84t62 -65q45 -30 83 -45
q38 -16 119 -48t126 -55q45 -22 98 -64q106 -83 105 -244t-115 -247t-289 -86q-361 1 -406 320l152 27q35 -223 260 -224q109 0 172 49t63 139t-54 143q-56 52 -222 115t-206 100q-90 81 -105 141q-16 59 -17 114q0 170 109 252t271 82z" />
    <glyph glyph-name="scommaaccent" unicode="&#x219;" horiz-adv-x="841" 
d="M557 -293q0 -109 -57 -158t-174 -49v70q61 4 89 23t27 69q-53 -10 -85 16t-31 74q0 47 29 74q30 27 80 27t86 -40t36 -106zM418 86q94 0 150 36t56 104t-33 107q-34 38 -122 60l-139 33q-127 31 -182 95q-54 65 -54 169q0 143 98 211t246 68q301 0 330 -252l-154 -17
q-8 150 -186 150q-88 0 -137 -38t-49 -101t29 -99q30 -35 112 -53l129 -33q129 -33 194 -95q64 -62 64 -193t-97 -197t-258 -66q-161 -1 -249 55t-105 181l144 35q18 -160 213 -160z" />
    <glyph glyph-name="Hcaron" unicode="&#x21e;" horiz-adv-x="1277" 
d="M686 1331h-94l-248 254h178l66 -69q30 -33 49 -72h4q10 29 49 72l66 69h178zM334 0h-160v1206h160v-524h610v524h160v-1206h-160v543h-610v-543z" />
    <glyph glyph-name="hcaron" unicode="&#x21f;" horiz-adv-x="1026" 
d="M279 1452h-95l-247 254h178l65 -70q31 -35 49 -71h4q10 29 50 71l65 70h178zM309 1368v-602q66 203 283 203q129 0 210 -73t81 -218v-678h-156v641q0 193 -188 193q-96 0 -163 -66t-67 -217v-551h-155v1368h155z" />
    <glyph glyph-name="Adotabove" unicode="&#x226;" horiz-adv-x="1134" 
d="M455 1453q0 46 31 79q32 33 78 33t79 -33t33 -79t-33 -79t-79 -33t-78 33q-31 33 -31 79zM467 803l-111 -316h414l-108 314q-67 189 -84 272l-9 37h-8q-28 -121 -94 -307zM942 0l-125 356h-506l-125 -356h-166l441 1206h217l436 -1206h-172z" />
    <glyph glyph-name="adotabove" unicode="&#x227;" horiz-adv-x="966" 
d="M348 1222q0 46 32 78t78 33q46 0 79 -33q33 -32 33 -78t-34 -79q-32 -33 -78 -33t-78 33t-32 79zM793 684v-481q0 -88 71 -88q33 0 51 8v-125q-45 -12 -84 -12q-166 0 -184 153q-68 -164 -280 -164q-127 0 -206 69t-79 185q0 340 555 314v127q-1 172 -185 172t-196 -158
l-143 21q10 139 111 201q102 62 242 62t234 -66t93 -218zM637 281v151q-205 4 -302 -41t-97 -143q0 -68 43 -110t127 -42t156 52q73 52 73 133z" />
    <glyph glyph-name="Otildemacron" unicode="&#x22c;" horiz-adv-x="1253" 
d="M885 1618h-514v121h514v-121zM766 1284q-67 0 -174 66q-20 12 -28 15t-24 11q-17 8 -44 8q-74 0 -62 -96h-98q-35 94 7 166t125 72t168 -52t120 -51q66 0 59 103h105q32 -104 -10 -173t-144 -69zM627 1092q-179 0 -273 -129t-94 -361t94 -360q94 -129 272 -129t273 129
q94 129 94 360q0 230 -94 360t-272 130zM627 -25q-246 0 -390 165q-145 165 -145 463t144 463t391 165q246 0 390 -165t144 -463t-144 -463t-390 -165z" />
    <glyph glyph-name="otildemacron" unicode="&#x22d;" 
d="M772 1384h-514v125h514v-125zM653 1049q-60 0 -174 65q-20 12 -27 15t-25 11q-18 9 -44 9q-74 0 -61 -96h-99q-35 95 7 163t126 68t168 -51q85 -51 119 -51q66 0 59 102h105q31 -104 -10 -170q-42 -65 -144 -65zM514 842q-268 0 -268 -372t268 -372t268 372t-268 372z
M514 -25q-194 1 -308 133t-114 370t113 365q113 126 309 126t310 -126q112 -126 112 -365t-114 -371t-308 -132z" />
    <glyph glyph-name="Odotabove" unicode="&#x22e;" horiz-adv-x="1253" 
d="M516 1453q0 46 32 79t78 33t79 -33t33 -79t-34 -79q-32 -33 -78 -33t-78 33t-32 79zM627 1092q-179 0 -273 -129t-94 -361t94 -360q94 -129 272 -129t273 129q94 129 94 360q0 230 -94 360t-272 130zM627 -25q-246 0 -390 165q-145 165 -145 463t144 463t391 165
q246 0 390 -165t144 -463t-144 -463t-390 -165z" />
    <glyph glyph-name="odotabove" unicode="&#x22f;" 
d="M403 1220q0 46 32 78t78 33q46 0 79 -33q33 -32 33 -78t-33 -79t-79 -33t-78 33t-32 79zM514 842q-268 0 -268 -372t268 -372t268 372t-268 372zM514 -25q-194 1 -308 133t-114 370t113 365q113 126 309 126t310 -126q112 -126 112 -365t-114 -371t-308 -132z" />
    <glyph glyph-name="odotabovemacron" unicode="&#x231;" 
d="M772 1384h-514v125h514v-125zM403 1179q0 47 32 79t78 32t79 -33t33 -79t-33 -78q-33 -33 -79 -33t-78 33t-32 79zM514 842q-268 0 -268 -372t268 -372t268 372t-268 372zM514 -25q-194 1 -308 133t-114 370t113 365q113 126 309 126t310 -126q112 -126 112 -365
t-114 -371t-308 -132z" />
    <glyph glyph-name="odotabovemacron" unicode="&#xe11e;" 
d="M772 1384h-514v125h514v-125zM403 1179q0 47 32 79t78 32t79 -33t33 -79t-33 -78q-33 -33 -79 -33t-78 33t-32 79zM514 842q-268 0 -268 -372t268 -372t268 372t-268 372zM514 -25q-194 1 -308 133t-114 370t113 365q113 126 309 126t310 -126q112 -126 112 -365
t-114 -371t-308 -132z" />
    <glyph glyph-name="Ymacron" unicode="&#x232;" horiz-adv-x="950" 
d="M733 1386h-514v121h514v-121zM567 0h-159v475l-388 731h181l207 -413q67 -131 79 -189h9q14 57 73 187l193 415h168l-363 -731v-475z" />
    <glyph glyph-name="ymacron" unicode="&#x233;" horiz-adv-x="872" 
d="M709 1155h-514v125h514v-125zM143 -426q-68 0 -129 23l11 129q59 -27 131 -27t120 53q49 53 95 193l-351 1001h170l175 -549q51 -156 71 -264l6 -33h9q18 109 73 295l166 551h162l-340 -1022q-66 -198 -154 -274t-215 -76z" />
    <glyph glyph-name="dotlessj" unicode="&#x237;" horiz-adv-x="462" 
d="M154 946h155v-969q0 -223 -104 -311t-318 -82v131q139 -10 203 48q63 58 64 190v993z" />
    <glyph glyph-name="schwa" unicode="&#x259;" horiz-adv-x="972" 
d="M248 338q0 -100 63 -169t164 -69q217 0 248 281h-473q-2 -16 -2 -43zM459 844q-172 0 -221 -174l-138 30q25 137 125 203t246 66q188 0 299 -129t111 -364q0 -236 -112 -368t-295 -132t-280 110q-97 111 -102 297q0 63 12 117h623q-9 156 -77 250t-191 94z" />
    <glyph glyph-name="ezh" unicode="&#x292;" horiz-adv-x="786" 
d="M346 811h-280v135h659v-106l-354 -434v-7q158 -2 253 -103t95 -262t-113 -255t-268 -94t-249 79q-93 80 -109 207l135 31q16 -96 75 -146q58 -50 152 -50t163 62t69 172t-86 188q-85 78 -261 98v104l187 229l131 150v8q-70 -6 -199 -6z" />
    <glyph glyph-name="circumflex" unicode="&#x2c6;" horiz-adv-x="913" 
d="M414 1378h86l250 -293h-166l-74 91q-30 43 -49 81h-8q-10 -33 -50 -81l-73 -91h-166z" />
    <glyph glyph-name="caron" unicode="&#x2c7;" horiz-adv-x="913" 
d="M500 1085h-86l-250 293h166l73 -94q40 -58 50 -82h8q10 33 49 82l74 94h166z" />
    <glyph glyph-name="breve" unicode="&#x2d8;" horiz-adv-x="864" 
d="M432 1081q-124 0 -196 75t-72 204h125q6 -80 37 -120q30 -40 106 -40t107 40t36 120h125q0 -129 -72 -204t-196 -75z" />
    <glyph glyph-name="dotaccent" unicode="&#x2d9;" horiz-adv-x="548" 
d="M385 1254q0 -46 -33 -78t-79 -33q-45 1 -77 33t-32 78t32 79t78 33t78 -33q33 -33 33 -79z" />
    <glyph glyph-name="ring" unicode="&#x2da;" horiz-adv-x="733" 
d="M367 1386q-53 0 -85 -34t-32 -85q0 -52 31 -83t86 -31t86 31t31 83t-32 86q-32 33 -85 33zM367 1073q-94 0 -149 55q-54 54 -54 138t56 139t146 55t147 -55q56 -55 56 -138t-54 -139t-148 -55z" />
    <glyph glyph-name="ogonek" unicode="&#x2db;" horiz-adv-x="770" 
d="M123 -223q0 135 105 210t223 89l55 -76q-86 0 -163 -54t-77 -149q0 -123 111 -123q96 0 145 95l60 -72q-66 -129 -230 -129q-106 0 -168 55q-61 56 -61 154z" />
    <glyph glyph-name="tilde" unicode="&#x2dc;" horiz-adv-x="942" 
d="M610 1087q-58 0 -174 66q-20 12 -27 15q-7 4 -25 12t-44 8q-74 0 -61 -96h-99q-35 94 7 162q41 68 125 69q84 0 169 -51t119 -51q66 0 59 102h105q32 -104 -10 -170t-144 -66z" />
    <glyph glyph-name="hungarumlaut" unicode="&#x2dd;" horiz-adv-x="972" 
d="M573 1085h-122l153 293h205zM283 1085h-119l133 293h201z" />
    <glyph glyph-name="uni0312" unicode="&#x312;" horiz-adv-x="559" 
d="M164 1485q0 109 57 157t174 50v-70q-61 -4 -89 -24t-27 -68q53 10 85 -17t32 -73t-30 -74q-30 -27 -80 -27t-86 40t-36 106z" />
    <glyph glyph-name="uni0320" unicode="&#x320;" horiz-adv-x="841" 
d="M678 -365h-514v121h514v-121z" />
    <glyph glyph-name="uni0323" unicode="&#x323;" horiz-adv-x="548" 
d="M272 -350q-44 0 -76 32t-32 79q0 46 32 79t78 33t78 -33q33 -33 33 -79q0 -47 -34 -79t-79 -32z" />
    <glyph glyph-name="uni0329" unicode="&#x329;" horiz-adv-x="460" 
d="M164 -117h133v-268l-133 -8v276z" />
    <glyph glyph-name="pi" unicode="&#x3c0;" horiz-adv-x="1261" 
d="M346 985h805v-127h-223v-637q0 -123 78 -123q36 0 58 23t42 69l94 -71q-39 -76 -88 -110t-135 -34q-205 0 -205 222v661h-266l-90 -858h-154l98 858h-28q-178 0 -178 -205h-134q0 162 84 247t242 85z" />
    <glyph glyph-name="uni0E3F" unicode="&#xe3f;" horiz-adv-x="1079" 
d="M342 563h141v293h-141v-293zM342 434v-305h141v305h-141zM590 856h-4v-293h16q180 0 180 148q0 73 -53 109t-139 36zM625 434h-39v-305h20q111 0 163 34t52 122q1 149 -196 149zM483 -217v217h-299v985h299v191h103v-191h10q156 1 247 -65t91 -187q0 -186 -180 -223v-6
q98 -4 160 -71t63 -159q0 -274 -369 -274h-22v-217h-103z" />
    <glyph glyph-name="Ddotbelow" unicode="&#x1e0c;" horiz-adv-x="1198" 
d="M416 -290q0 46 31 79q32 33 78 33t79 -33t33 -79t-33 -79t-79 -33t-78 33q-31 33 -31 79zM524 0h-350v1206h352q270 0 425 -142t155 -452t-163 -462q-163 -150 -419 -150zM334 133h174q196 0 312 118q116 119 116 363t-114 352t-296 107h-192v-940z" />
    <glyph glyph-name="ddotbelow" unicode="&#x1e0d;" horiz-adv-x="1077" 
d="M397 -290q0 46 32 79t78 33t79 -33q32 -33 32 -79t-32 -79t-79 -33q-46 0 -78 34q-32 32 -32 78zM766 1368h158v-1368h-138l-18 164q-76 -188 -303 -189q-157 0 -265 127t-108 363t111 370t313 134q88 1 160 -45t90 -107v551zM768 371v221q0 122 -77 188t-187 66
t-182 -92q-74 -92 -74 -280t72 -280q72 -94 180 -94q110 0 189 72t79 199z" />
    <glyph glyph-name="Dcedilla" unicode="&#x1e10;" horiz-adv-x="1198" 
d="M334 133h174q196 0 312 118q116 119 116 363t-114 352t-296 107h-192v-940zM717 -258q-1 -86 -59 -130t-162 -44t-160 78l47 98q51 -76 128 -76t77 74q0 90 -144 90l11 168h-281v1206h352q270 0 425 -142t155 -450t-158 -458q-158 -152 -407 -156l-4 -86
q180 -16 180 -172z" />
    <glyph glyph-name="dcedilla" unicode="&#x1e11;" horiz-adv-x="1077" 
d="M768 371v221q0 122 -77 188t-187 66t-182 -92q-74 -92 -74 -280t72 -280q72 -94 180 -94q110 0 189 72t79 199zM698 -258q0 -86 -58 -130t-160 -44t-163 78l48 98q51 -76 128 -76t76 74q0 90 -143 90l10 145q-144 11 -244 137t-100 356t111 365q111 134 313 134
q88 0 160 -45t90 -107v551h158v-1368h-138l-18 164q-66 -164 -246 -184l-4 -66q180 -16 180 -172z" />
    <glyph glyph-name="Hdotbelow" unicode="&#x1e24;" horiz-adv-x="1277" 
d="M528 -290q0 46 32 79t78 33t79 -33t33 -79t-33 -79t-79 -33t-78 34q-32 32 -32 78zM334 0h-160v1206h160v-524h610v524h160v-1206h-160v543h-610v-543z" />
    <glyph glyph-name="hdotbelow" unicode="&#x1e25;" horiz-adv-x="1026" 
d="M408 -290q0 46 31 79q32 33 78 33t79 -33t33 -79t-33 -79t-79 -33t-78 33q-31 33 -31 79zM309 1368v-602q66 203 283 203q129 0 210 -73t81 -218v-678h-156v641q0 193 -188 193q-96 0 -163 -66t-67 -217v-551h-155v1368h155z" />
    <glyph glyph-name="Ldotbelow" unicode="&#x1e36;" horiz-adv-x="935" 
d="M424 -290q0 46 32 79t78 33t78 -33q33 -33 33 -79t-33 -79t-79 -33q-45 0 -77 34q-32 32 -32 78zM174 1206h160v-1067h561v-139h-721v1206z" />
    <glyph glyph-name="ldotbelow" unicode="&#x1e37;" horiz-adv-x="516" 
d="M182 -290q0 46 32 79t78 33t79 -33t33 -79t-34 -79q-32 -33 -78 -33t-78 34q-32 32 -32 78zM344 -14q-88 0 -144 49t-57 143v1190h156v-1165q0 -86 82 -86q28 0 63 10v-129q-57 -12 -100 -12z" />
    <glyph glyph-name="uni004C032300AF" unicode="&#x1e38;" horiz-adv-x="935" 
d="M545 1386h-514v121h514v-121zM424 -290q0 46 32 79t78 33t78 -33q33 -33 33 -79t-33 -79t-79 -33q-45 0 -77 34q-32 32 -32 78zM174 1206h160v-1067h561v-139h-721v1206z" />
    <glyph glyph-name="ldotbelowmacron" unicode="&#x1e39;" horiz-adv-x="516" 
d="M483 1524h-514v121h514v-121zM182 -290q0 46 32 79t78 33t79 -33t33 -79t-34 -79q-32 -33 -78 -33t-78 34q-32 32 -32 78zM344 -14q-88 0 -144 49t-57 143v1190h156v-1165q0 -86 82 -86q28 0 63 10v-129q-57 -12 -100 -12z" />
    <glyph glyph-name="Mdotbelow" unicode="&#x1e42;" horiz-adv-x="1458" 
d="M618 -290q0 46 32 79t78 33t79 -33t33 -79t-33 -79t-79 -33t-78 34q-32 32 -32 78zM334 758v-758h-160v1206h199l305 -608q40 -81 53 -135h8q12 53 54 135l305 608h186v-1206h-160v758l11 221h-9q-16 -74 -90 -213l-245 -465h-123l-246 465q-65 120 -84 190l-6 23h-8
q10 -76 10 -221z" />
    <glyph glyph-name="mdotbelow" unicode="&#x1e43;" horiz-adv-x="1566" 
d="M678 -290q0 46 32 79t78 33t78 -33q33 -33 33 -79t-33 -79t-79 -33q-45 0 -77 34q-32 32 -32 78zM1423 0h-155v641q0 193 -174 193q-88 0 -158 -73t-70 -210v-551h-155v641q0 193 -174 193q-88 0 -158 -73t-70 -210v-551h-155v946h116l19 -182q35 104 114 155
q80 50 181 50q227 0 262 -209q63 209 307 209q115 0 193 -71t77 -210v-688z" />
    <glyph glyph-name="Ndotaccent" unicode="&#x1e44;" horiz-adv-x="1314" 
d="M656 1339q-46 0 -78 33t-31 79q0 46 32 79q31 33 77 33t79 -33t33 -79t-33 -79t-79 -33zM981 518v688h160v-1206h-166l-498 727q-46 68 -127 211l-20 39h-8q12 -137 12 -289v-688h-160v1206h170l492 -727q69 -102 127 -213l20 -37h8q-10 137 -10 289z" />
    <glyph glyph-name="ndotaccent" unicode="&#x1e45;" horiz-adv-x="1026" 
d="M529 1110q-45 0 -77 33t-32 79t32 78t78 33q46 0 78 -33q33 -32 33 -78t-33 -79t-79 -33zM592 969q129 0 210 -73t81 -218v-678h-156v639q0 195 -188 195q-96 0 -163 -66t-67 -217v-551h-155v946h116l19 -182q74 205 303 205z" />
    <glyph glyph-name="Ndotbelow" unicode="&#x1e46;" horiz-adv-x="1314" 
d="M547 -290q0 46 32 79q31 33 77 33t79 -33t33 -79t-33 -79t-79 -33t-78 34q-32 32 -31 78zM981 518v688h160v-1206h-166l-498 727q-46 68 -127 211l-20 39h-8q12 -137 12 -289v-688h-160v1206h170l492 -727q69 -102 127 -213l20 -37h8q-10 137 -10 289z" />
    <glyph glyph-name="ndotbelow" unicode="&#x1e47;" horiz-adv-x="1026" 
d="M416 -290q0 46 31 79q32 33 78 33t79 -33t33 -79t-33 -79t-79 -33t-78 33q-31 33 -31 79zM592 969q129 0 210 -73t81 -218v-678h-156v639q0 195 -188 195q-96 0 -163 -66t-67 -217v-551h-155v946h116l19 -182q74 205 303 205z" />
    <glyph glyph-name="Rdotbelow" unicode="&#x1e5a;" horiz-adv-x="1103" 
d="M414 -290q0 46 31 79q32 33 78 33t79 -33t33 -79t-33 -79t-79 -33t-78 33q-31 33 -31 79zM334 1073v-430h235q238 0 238 215t-238 215h-235zM508 512h-174v-512h-160v1206h399q401 0 402 -336q0 -137 -82 -216t-201 -83v-4q88 -10 138 -56t75 -144l62 -242
q18 -74 61 -125h-174q-35 43 -49 109l-51 219q-27 108 -84 146t-162 38z" />
    <glyph glyph-name="rdotbelow" unicode="&#x1e5b;" horiz-adv-x="702" 
d="M117 -290q0 46 31 79q32 33 78 33t79 -33t33 -79t-33 -79t-79 -33t-78 33q-31 33 -31 79zM578 797q-111 0 -190 -85t-79 -218v-494h-155v946h129l18 -254q29 131 122 206q94 75 239 69l-9 -176q-27 6 -75 6z" />
    <glyph glyph-name="Rdotbelowmacron" unicode="&#x1e5c;" horiz-adv-x="1103" 
d="M782 1386h-514v121h514v-121zM414 -290q0 46 31 79q32 33 78 33t79 -33t33 -79t-33 -79t-79 -33t-78 33q-31 33 -31 79zM334 1073v-430h235q238 0 238 215t-238 215h-235zM508 512h-174v-512h-160v1206h399q401 0 402 -336q0 -137 -82 -216t-201 -83v-4q88 -10 138 -56
t75 -144l62 -242q18 -74 61 -125h-174q-35 43 -49 109l-51 219q-27 108 -84 146t-162 38z" />
    <glyph glyph-name="rdotbelowmacron" unicode="&#x1e5d;" horiz-adv-x="702" 
d="M119 -290q0 46 32 79q31 33 77 33t79 -33t33 -79t-33 -79t-79 -33t-78 34q-32 32 -31 78zM666 1155h-514v125h514v-125zM578 797q-111 0 -190 -85t-79 -218v-494h-155v946h129l18 -254q29 131 122 206q94 75 239 69l-9 -176q-27 6 -75 6z" />
    <glyph glyph-name="Sdotbelow" unicode="&#x1e62;" horiz-adv-x="952" 
d="M379 -290q0 46 32 79q31 33 77 33t79 -33t33 -79t-33 -79t-79 -33t-78 34q-32 32 -31 78zM484 1233q162 0 266 -77q106 -77 118 -243l-155 -24q-7 103 -71 161t-162 58t-158 -52q-59 -52 -60 -143q0 -49 16 -84t62 -65q45 -30 83 -45q38 -16 119 -48t126 -55
q45 -22 98 -64q106 -83 105 -244t-115 -247t-289 -86q-361 1 -406 320l152 27q35 -223 260 -224q109 0 172 49t63 139t-54 143q-56 52 -222 115t-206 100q-90 81 -105 141q-16 59 -17 114q0 170 109 252t271 82z" />
    <glyph glyph-name="sdotbelow" unicode="&#x1e63;" horiz-adv-x="841" 
d="M332 -290q0 46 32 79t78 33t78 -33q33 -33 33 -79t-33 -79t-79 -33q-45 0 -77 34q-32 32 -32 78zM418 86q94 0 150 36t56 104t-33 107q-34 38 -122 60l-139 33q-127 31 -182 95q-54 65 -54 169q0 143 98 211t246 68q301 0 330 -252l-154 -17q-8 150 -186 150
q-88 0 -137 -38t-49 -101t29 -99q30 -35 112 -53l129 -33q129 -33 194 -95q64 -62 64 -193t-97 -197t-258 -66q-161 -1 -249 55t-105 181l144 35q18 -160 213 -160z" />
    <glyph glyph-name="Tdotbelow" unicode="&#x1e6c;" horiz-adv-x="919" 
d="M348 -290q0 46 32 79t78 33t79 -33t33 -79t-34 -79q-32 -33 -78 -33t-78 34q-32 32 -32 78zM539 0h-160v1067h-359v139h879v-139h-360v-1067z" />
    <glyph glyph-name="tdotbelow" unicode="&#x1e6d;" horiz-adv-x="657" 
d="M260 -290q0 46 32 79t78 33t79 -33t33 -79t-34 -79q-32 -33 -78 -33t-78 34q-32 32 -32 78zM158 821h-138v125h138v201l157 20v-221h281v-125h-283v-563q0 -150 127 -149q80 0 156 49l31 -129q-84 -53 -209 -53t-193 65q-68 66 -67 188v592z" />
    <glyph glyph-name="Wgrave" unicode="&#x1e80;" horiz-adv-x="1658" 
d="M907 1341h-141l-199 238h213zM928 1206l202 -786q33 -123 62 -285l6 -37h8q16 129 66 320l207 788h159l-327 -1206h-226l-198 750q-45 168 -51 280l-2 37h-9q-8 -125 -57 -317l-195 -750h-225l-328 1206h170l203 -782q30 -111 62 -287l6 -39h8q14 133 66 324l213 784h180
z" />
    <glyph glyph-name="wgrave" unicode="&#x1e81;" horiz-adv-x="1341" 
d="M752 1085h-134l-235 293h215zM756 946l145 -530q40 -136 60 -273l4 -34h8q4 115 53 307l137 530h158l-260 -946h-187l-137 485q-45 152 -59 265l-4 32h-8q-10 -106 -62 -297l-131 -485h-186l-267 946h162l140 -528q41 -151 59 -275l4 -34h8q6 121 58 309l145 528h160z
" />
    <glyph glyph-name="Wacute" unicode="&#x1e82;" horiz-adv-x="1658" 
d="M897 1341h-141l127 238h213zM928 1206l202 -786q33 -123 62 -285l6 -37h8q16 129 66 320l207 788h159l-327 -1206h-226l-198 750q-45 168 -51 280l-2 37h-9q-8 -125 -57 -317l-195 -750h-225l-328 1206h170l203 -782q30 -111 62 -287l6 -39h8q14 133 66 324l213 784h180z
" />
    <glyph glyph-name="wacute" unicode="&#x1e83;" horiz-adv-x="1341" 
d="M723 1085h-133l153 293h215zM756 946l145 -530q40 -136 60 -273l4 -34h8q4 115 53 307l137 530h158l-260 -946h-187l-137 485q-45 152 -59 265l-4 32h-8q-10 -106 -62 -297l-131 -485h-186l-267 946h162l140 -528q41 -151 59 -275l4 -34h8q6 121 58 309l145 528h160z" />
    <glyph glyph-name="Wdieresis" unicode="&#x1e84;" horiz-adv-x="1658" 
d="M911 1452q0 45 33 78t79 33t78 -32t32 -78t-33 -79t-78 -33t-78 33t-33 78zM524 1454q0 45 33 78t78 33t78 -33t33 -78t-34 -78q-32 -33 -77 -33t-78 33t-33 78zM928 1206l202 -786q33 -123 62 -285l6 -37h8q16 129 66 320l207 788h159l-327 -1206h-226l-198 750
q-45 168 -51 280l-2 37h-9q-8 -125 -57 -317l-195 -750h-225l-328 1206h170l203 -782q30 -111 62 -287l6 -39h8q14 133 66 324l213 784h180z" />
    <glyph glyph-name="wdieresis" unicode="&#x1e85;" horiz-adv-x="1341" 
d="M752 1217q0 45 32 77t79 33q46 0 78 -33q32 -34 32 -78t-33 -77t-78 -33t-78 33q-32 33 -32 78zM365 1219q1 45 33 77t77 33q45 0 78 -32q33 -31 33 -77t-33 -79t-78 -33t-78 33q-32 33 -32 78zM756 946l145 -530q40 -136 60 -273l4 -34h8q4 115 53 307l137 530h158
l-260 -946h-187l-137 485q-45 152 -59 265l-4 32h-8q-10 -106 -62 -297l-131 -485h-186l-267 946h162l140 -528q41 -151 59 -275l4 -34h8q6 121 58 309l145 528h160z" />
    <glyph glyph-name="Idotbelow" unicode="&#x1eca;" horiz-adv-x="507" 
d="M143 -290q0 46 32 79t78 33t79 -33t33 -79t-33 -79t-79 -33t-78 34q-32 32 -32 78zM174 1206h160v-1206h-160v1206z" />
    <glyph glyph-name="idotbelow" unicode="&#x1ecb;" horiz-adv-x="462" 
d="M121 -290q0 46 32 79q31 33 77 33t79 -33t33 -79t-33 -79t-79 -33t-78 34q-32 32 -31 78zM154 946h155v-946h-155v946zM229 1143q-45 1 -77 33t-31 78q0 46 32 79q31 33 77 33t79 -33t33 -79t-34 -78t-79 -33z" />
    <glyph glyph-name="Odotbelow" unicode="&#x1ecc;" horiz-adv-x="1253" 
d="M516 -290q0 46 32 79t78 33t79 -33t33 -79t-34 -79q-32 -33 -78 -33t-78 34q-32 32 -32 78zM627 1092q-179 0 -273 -129t-94 -361t94 -360q94 -129 272 -129t273 129q94 129 94 360q0 230 -94 360t-272 130zM627 -25q-246 0 -390 165q-145 165 -145 463t144 463t391 165
q246 0 390 -165t144 -463t-144 -463t-390 -165z" />
    <glyph glyph-name="odotbelow" unicode="&#x1ecd;" 
d="M403 -290q0 46 32 79t78 33t79 -33t33 -79t-33 -79t-79 -33t-78 34q-32 32 -32 78zM514 842q-268 0 -268 -372t268 -372t268 372t-268 372zM514 -25q-194 1 -308 133t-114 370t113 365q113 126 309 126t310 -126q112 -126 112 -365t-114 -371t-308 -132z" />
    <glyph glyph-name="Udotbelow" unicode="&#x1ee4;" horiz-adv-x="1173" 
d="M475 -290q0 46 32 79t78 33t79 -33q32 -33 32 -79t-32 -79t-79 -33q-46 0 -78 34q-32 32 -32 78zM881 1206h159v-813q0 -309 -288 -395q-78 -23 -166 -23t-166 23q-287 85 -287 395v813h160v-774q0 -326 294 -326t294 320v780z" />
    <glyph glyph-name="udotbelow" unicode="&#x1ee5;" horiz-adv-x="1026" 
d="M397 -290q0 46 32 79t78 33t79 -33q32 -33 32 -79t-32 -79t-79 -33q-46 0 -78 34q-32 32 -32 78zM430 -25q-287 0 -287 316v655h156v-641q0 -113 44 -164t135 -51t165 76t74 205v575h155v-946h-133l-18 170q-68 -195 -291 -195z" />
    <glyph glyph-name="Ygrave" unicode="&#x1ef2;" horiz-adv-x="950" 
d="M553 1341h-141l-199 238h213zM567 0h-159v475l-388 731h181l207 -413q67 -131 79 -189h9q14 57 73 187l193 415h168l-363 -731v-475z" />
    <glyph glyph-name="ygrave" unicode="&#x1ef3;" horiz-adv-x="872" 
d="M532 1085h-133l-235 293h215zM143 -426q-68 0 -129 23l11 129q59 -27 131 -27t120 53q49 53 95 193l-351 1001h170l175 -549q51 -156 71 -264l6 -33h9q18 109 73 295l166 551h162l-340 -1022q-66 -198 -154 -274t-215 -76z" />
    <glyph glyph-name="Ytilde" unicode="&#x1ef8;" horiz-adv-x="950" 
d="M614 1341q-59 0 -174 66q-20 12 -27 15q-7 4 -25 12t-44 8q-74 0 -61 -96h-99q-35 94 7 166q41 72 125 71q84 0 169 -51t119 -51q66 0 60 102h104q32 -104 -10 -173t-144 -69zM567 0h-159v475l-388 731h181l207 -413q67 -131 79 -189h9q14 57 73 187l193 415h168
l-363 -731v-475z" />
    <glyph glyph-name="ytilde" unicode="&#x1ef9;" horiz-adv-x="872" 
d="M592 1087q-64 0 -174 66q-20 12 -28 15l-24 12q-17 8 -44 8q-74 0 -62 -96h-98q-35 94 7 162t125 69q83 0 168 -51t120 -51q66 0 59 102h104q31 -104 -10 -170t-143 -66zM143 -426q-68 0 -129 23l11 129q59 -27 131 -27t120 53q49 53 95 193l-351 1001h170l175 -549
q51 -156 71 -264l6 -33h9q18 109 73 295l166 551h162l-340 -1022q-66 -198 -154 -274t-215 -76z" />
    <glyph glyph-name="enspace" unicode="&#x2002;" horiz-adv-x="921" 
 />
    <glyph glyph-name="emspace" unicode="&#x2003;" horiz-adv-x="1843" 
 />
    <glyph glyph-name="threeperemspace" unicode="&#x2004;" horiz-adv-x="614" 
 />
    <glyph glyph-name="fourperemspace" unicode="&#x2005;" horiz-adv-x="460" 
 />
    <glyph glyph-name="sixperemspace" unicode="&#x2006;" horiz-adv-x="307" 
 />
    <glyph glyph-name="figurespace" unicode="&#x2007;" horiz-adv-x="1050" 
 />
    <glyph glyph-name="punctuationspace" unicode="&#x2008;" horiz-adv-x="350" 
 />
    <glyph glyph-name="thinspace" unicode="&#x2009;" horiz-adv-x="184" 
 />
    <glyph glyph-name="hairspace" unicode="&#x200a;" horiz-adv-x="92" 
 />
    <glyph glyph-name="zerowidthspace" unicode="&#x200b;" horiz-adv-x="0" 
 />
    <glyph glyph-name="figuredash" unicode="&#x2012;" horiz-adv-x="1226" 
d="M143 459v112h940v-112h-940z" />
    <glyph glyph-name="endash" unicode="&#x2013;" horiz-adv-x="1024" 
d="M143 459v112h738v-112h-738z" />
    <glyph glyph-name="emdash" unicode="&#x2014;" horiz-adv-x="2048" 
d="M143 459v112h1762v-112h-1762z" />
    <glyph glyph-name="uni2015" unicode="&#x2015;" horiz-adv-x="2560" 
d="M143 459v112h2274v-112h-2274z" />
    <glyph glyph-name="doublebar" unicode="&#x2016;" horiz-adv-x="849" 
d="M645 -416h-137v1786h137v-1786zM342 -416h-137v1786h137v-1786z" />
    <glyph glyph-name="quoteleft" unicode="&#x2018;" horiz-adv-x="452" 
d="M82 1104q0 262 289 282v-79q-158 -25 -158 -150q59 11 97 -19t38 -84t-34 -85t-91 -31t-99 45t-42 121z" />
    <glyph glyph-name="quoteright" unicode="&#x2019;" horiz-adv-x="452" 
d="M371 1221q0 -262 -289 -283v80q158 25 158 149q-59 -12 -98 19q-38 31 -38 85t34 85q34 30 91 30t99 -44t43 -121z" />
    <glyph glyph-name="quotesinglbase" unicode="&#x201a;" horiz-adv-x="452" 
d="M371 55q0 -262 -289 -282v80q158 25 158 149q-59 -12 -98 18q-38 31 -38 85t34 85t91 31t99 -45t43 -121z" />
    <glyph glyph-name="reversequoteleft" unicode="&#x201b;" horiz-adv-x="452" 
d="M82 1221q0 77 42 121t99 44t91 -30t34 -85q0 -54 -38 -85t-97 -19q0 -125 158 -149v-80q-289 21 -289 283z" />
    <glyph glyph-name="quotedblleft" unicode="&#x201c;" horiz-adv-x="821" 
d="M451 1104q0 262 288 282v-79q-158 -25 -157 -150q59 11 97 -19t38 -84t-34 -85t-91 -31t-99 45t-42 121zM82 1104q0 262 289 282v-79q-158 -25 -158 -150q59 11 97 -19t38 -84t-34 -85t-91 -31t-99 45t-42 121z" />
    <glyph glyph-name="quotedblright" unicode="&#x201d;" horiz-adv-x="821" 
d="M739 1221q0 -262 -288 -283v80q158 25 157 149q-59 -12 -97 19t-38 85t34 85q34 30 91 30t99 -44t42 -121zM371 1221q0 -262 -289 -283v80q158 25 158 149q-59 -12 -98 19q-38 31 -38 85t34 85q34 30 91 30t99 -44t43 -121z" />
    <glyph glyph-name="quotedblbase" unicode="&#x201e;" horiz-adv-x="821" 
d="M739 55q0 -262 -288 -282v80q158 25 157 149q-59 -12 -97 18t-38 85q0 54 34 85t91 31t99 -45t42 -121zM371 55q0 -262 -289 -282v80q158 25 158 149q-59 -12 -98 18q-38 31 -38 85t34 85t91 31t99 -45t43 -121z" />
    <glyph glyph-name="reversequotedblleft" unicode="&#x201f;" horiz-adv-x="821" 
d="M451 1221q0 77 42 121t99 44t91 -30t34 -85q0 -54 -38 -85t-97 -19q0 -125 157 -149v-80q-288 21 -288 283zM82 1221q0 77 42 121t99 44t91 -30t34 -85q0 -54 -38 -85t-97 -19q0 -125 158 -149v-80q-289 21 -289 283z" />
    <glyph glyph-name="dagger" unicode="&#x2020;" horiz-adv-x="1114" 
d="M494 612l-392 -22v160l392 -21l-21 477h168l-20 -477l391 21v-160l-389 22l20 -917h-170z" />
    <glyph glyph-name="daggerdbl" unicode="&#x2021;" horiz-adv-x="1112" 
d="M621 633l-3 -367l392 23v-156l-389 23l22 -463h-170l21 463l-392 -23v156l392 -23v367l-392 -23v156l392 -23l-21 463h170l-25 -463l392 23v-156z" />
    <glyph glyph-name="bullet" unicode="&#x2022;" horiz-adv-x="655" 
d="M174 488q0 62 45 108t107 47q62 0 109 -45q46 -44 46 -108t-46 -109t-108 -45t-108 45q-45 45 -45 107z" />
    <glyph glyph-name="ellipsis" unicode="&#x2026;" horiz-adv-x="1744" 
d="M1327 115q0 53 37 90t90 37t90 -37t37 -90t-37 -90t-90 -37t-90 37t-37 90zM745 115q0 53 37 90t90 37q52 0 90 -37t38 -90t-38 -90q-36 -37 -90 -37t-90 37q-37 37 -37 90zM164 115q0 53 37 90t90 37t90 -37t37 -90t-37 -90t-90 -37t-90 37t-37 90z" />
    <glyph glyph-name="perthousand" unicode="&#x2030;" horiz-adv-x="2469" 
d="M2116 627q-74 0 -114 -73t-40 -193q0 -119 40 -195t114 -76t114 76t39 196q1 120 -39 192q-40 73 -114 73zM2116 -14q-135 0 -209 102t-74 273t77 275t206 103q130 0 206 -103q76 -102 76 -274t-74 -274t-208 -102zM1399 627q-74 0 -114 -73t-40 -193q0 -119 40 -195
t114 -76q73 0 113 76t40 196t-40 192q-40 73 -113 73zM1399 -14q-135 0 -209 102t-74 273t77 275t206 103q129 0 206 -103q77 -102 77 -274t-74 -274t-209 -102zM508 0l627 1208h114l-624 -1208h-117zM354 1110q-74 0 -114 -73t-39 -193q0 -120 40 -195q39 -76 113 -76
t114 76t40 196q0 121 -40 193t-114 72zM354 469q-135 0 -209 102q-73 101 -73 273t76 275q77 103 206 103t206 -102q77 -104 77 -275t-74 -273t-209 -103z" />
    <glyph glyph-name="tripleprime" unicode="&#x2034;" horiz-adv-x="952" 
d="M692 844v524h178l-79 -524h-99zM408 844v524h178l-80 -524h-98zM123 844v524h178l-80 -524h-98z" />
    <glyph glyph-name="guilsinglleft" unicode="&#x2039;" horiz-adv-x="581" 
d="M199 481v-8q33 -14 114 -113l205 -245l-86 -74l-371 436l371 436l88 -88l-207 -239q-75 -88 -104 -99z" />
    <glyph glyph-name="guilsinglright" unicode="&#x203a;" horiz-adv-x="581" 
d="M383 473v8q-31 8 -115 105l-207 239l89 88l370 -436l-370 -436l-87 74l205 245q78 91 115 113z" />
    <glyph glyph-name="fraction" unicode="&#x2044;" horiz-adv-x="331" 
d="M-205 0l627 1208h115l-625 -1208h-117z" />
    <glyph glyph-name="uni2070" unicode="&#x2070;" horiz-adv-x="708" 
d="M354 1110q-74 0 -114 -73t-39 -193q0 -120 40 -195q39 -76 113 -76t114 76t40 196q0 121 -40 193t-114 72zM354 469q-135 0 -209 102q-73 101 -73 273t76 275q77 103 206 103t206 -102q77 -104 77 -275t-74 -273t-209 -103z" />
    <glyph glyph-name="uni2074" unicode="&#x2074;" horiz-adv-x="692" 
d="M403 768v186l11 144h-8q-23 -53 -78 -127l-92 -109q-55 -65 -99 -94v-8q27 8 115 8h151zM399 483v189h-368v100l360 434h137v-436h123v-98h-123v-189h-129z" />
    <glyph glyph-name="uni2075" unicode="&#x2075;" horiz-adv-x="634" 
d="M449 713q1 143 -131 143q-66 0 -107 -51h-105l19 401h416v-106h-314l-10 -207q43 59 141 59t156 -57t59 -175t-73 -184t-194 -67q-120 0 -188 48q-67 48 -77 124l111 47q23 -123 149 -123q68 0 108 38t40 110z" />
    <glyph glyph-name="uni2076" unicode="&#x2076;" horiz-adv-x="671" 
d="M219 705q0 -66 41 -105t101 -39t102 39q41 40 41 104t-40 104t-101 40t-103 -38t-41 -105zM379 1118q-93 0 -145 -87t-52 -245h8q10 74 64 118t146 44q93 0 157 -66q63 -67 63 -168t-70 -173q-71 -72 -199 -72t-204 89q-75 88 -75 274t88 288t223 103q172 -1 223 -146
l-100 -45q-33 86 -127 86z" />
    <glyph glyph-name="uni2077" unicode="&#x2077;" horiz-adv-x="595" 
d="M154 1096v-109h-113v219h534v-61l-294 -662h-129l280 613h-278z" />
    <glyph glyph-name="uni2078" unicode="&#x2078;" horiz-adv-x="716" 
d="M358 1126q-63 0 -104 -30t-41 -81q0 -52 44 -82t101 -30t102 30q44 30 44 82t-41 82q-42 29 -105 29zM358 469q-124 0 -200 52t-76 149q0 68 43 114t113 58v8q-139 29 -140 168q0 94 72 149t188 55t189 -54q72 -56 71 -150q0 -139 -139 -168v-8q70 -10 113 -58t43 -114
q0 -96 -76 -148t-201 -53zM358 801q-61 0 -103 -31t-42 -88q0 -121 145 -121t146 121q0 57 -42 88q-43 31 -104 31z" />
    <glyph glyph-name="uni2079" unicode="&#x2079;" horiz-adv-x="671" 
d="M453 983q0 67 -41 105q-42 38 -102 38t-101 -39t-41 -103t40 -104t101 -40t103 38t41 105zM288 573q97 0 149 87t52 245h-8q-10 -74 -63 -118t-146 -44t-157 67q-63 67 -63 168t70 173t198 72t204 -89t76 -275t-88 -288t-223 -102q-83 -1 -145 37t-87 108l101 45
q33 -86 130 -86z" />
    <glyph glyph-name="uni207A" unicode="&#x207a;" horiz-adv-x="911" 
d="M92 899h320v309h80v-309h327v-80h-327v-336h-80v336h-320v80z" />
    <glyph glyph-name="uni207B" unicode="&#x207b;" horiz-adv-x="913" 
d="M821 817h-729v82h729v-82z" />
    <glyph glyph-name="uni207C" unicode="&#x207c;" horiz-adv-x="913" 
d="M821 946h-729v82h729v-82zM821 707h-729v81h729v-81z" />
    <glyph glyph-name="uni207D" unicode="&#x207d;" horiz-adv-x="468" 
d="M184 838q0 -138 47 -242t146 -223h-105q-180 209 -180 465t180 465h105q-97 -115 -145 -221t-48 -244z" />
    <glyph glyph-name="uni207E" unicode="&#x207e;" horiz-adv-x="468" 
d="M285 838q0 139 -47 244t-146 221h103q182 -207 182 -465t-182 -465h-103q98 119 146 223t47 242z" />
    <glyph glyph-name="n.superior" unicode="&#x207f;" horiz-adv-x="786" 
d="M464 1231q82 0 146 -55t64 -170v-418h-135v397q0 137 -121 137q-160 0 -160 -204v-330h-135v626h100l19 -120q23 68 82 102t140 35z" />
    <glyph glyph-name="uni2080" unicode="&#x2080;" horiz-adv-x="708" 
d="M354 627q-74 0 -114 -73t-39 -193q0 -119 40 -195q39 -76 113 -76t114 76t40 196t-40 192q-40 73 -114 73zM354 -14q-135 0 -209 102q-73 102 -73 273t76 275q77 103 206 103t206 -103q77 -102 77 -274t-74 -274t-209 -102z" />
    <glyph glyph-name="uni2081" unicode="&#x2081;" horiz-adv-x="600" 
d="M580 0h-519v102h205v494l-225 -25v105l356 49v-623h183v-102z" />
    <glyph glyph-name="uni2082" unicode="&#x2082;" horiz-adv-x="616" 
d="M575 102v-102h-534v98q201 138 283 224t82 186q0 117 -119 117q-66 0 -98 -41t-33 -103l-107 51q0 82 71 144t179 63q108 0 175 -56t67 -163q0 -163 -170 -297q-65 -51 -170 -112v-9h374z" />
    <glyph glyph-name="uni2083" unicode="&#x2083;" horiz-adv-x="643" 
d="M561 184q0 -92 -75 -145q-74 -53 -192 -53t-189 46t-85 120l115 45q11 -47 57 -80t103 -33q135 0 135 111q0 63 -51 96t-174 35v90q205 8 205 119q0 47 -31 75t-86 27q-104 0 -129 -98l-113 41q20 72 85 116t165 43q100 0 168 -47t68 -141q-1 -154 -175 -172v-6
q199 -18 199 -189z" />
    <glyph glyph-name="uni2084" unicode="&#x2084;" horiz-adv-x="692" 
d="M403 285v186l11 143h-8q-23 -53 -78 -127l-92 -108q-55 -65 -99 -94v-9q27 8 115 9h151zM399 0v188h-368v101l360 434h137v-436h123v-99h-123v-188h-129z" />
    <glyph glyph-name="uni2085" unicode="&#x2085;" horiz-adv-x="634" 
d="M449 230q1 144 -131 143q-66 0 -107 -51h-105l19 401h416v-107h-314l-10 -206q43 59 141 59t156 -57t59 -175t-73 -185q-74 -66 -194 -66t-188 48q-67 48 -77 124l111 47q23 -123 149 -123q68 0 108 38t40 110z" />
    <glyph glyph-name="uni2086" unicode="&#x2086;" horiz-adv-x="671" 
d="M219 221q0 -67 41 -105t101 -38t102 39q41 39 41 103t-40 104t-101 41q-61 0 -103 -39t-41 -105zM379 635q-93 0 -145 -87t-52 -245h8q10 74 64 118t146 44t156 -67t64 -168t-70 -173q-71 -71 -199 -71t-204 89q-75 89 -75 275t88 287q88 102 223 102q172 0 223 -145
l-100 -45q-33 86 -127 86z" />
    <glyph glyph-name="uni2087" unicode="&#x2087;" horiz-adv-x="595" 
d="M154 612v-108h-113v219h534v-61l-294 -662h-129l280 612h-278z" />
    <glyph glyph-name="uni2088" unicode="&#x2088;" horiz-adv-x="716" 
d="M358 643q-63 0 -104 -30t-41 -82q0 -51 44 -81t101 -30t102 30q44 30 44 82t-41 81q-42 30 -105 30zM358 -14q-124 0 -200 52t-76 148q0 68 43 115t113 57v9q-139 29 -140 168q0 94 72 149t188 55t189 -55q72 -55 71 -149q0 -139 -139 -168v-9q70 -10 113 -57t43 -115
q0 -96 -76 -148t-201 -52zM358 317q-61 -1 -103 -31t-42 -87q0 -121 145 -121t146 121q0 57 -42 88q-43 30 -104 30z" />
    <glyph glyph-name="uni2089" unicode="&#x2089;" horiz-adv-x="671" 
d="M453 500q0 66 -41 104q-42 38 -102 39q-60 0 -101 -39t-41 -103q0 -65 40 -105t101 -40t103 39q41 39 41 105zM288 90q97 0 149 87t52 245h-8q-10 -74 -63 -118t-146 -44t-157 67q-63 67 -63 168t70 173t198 72t204 -90q76 -88 76 -274t-88 -288t-223 -102q-83 0 -145 38
t-87 107l101 45q33 -86 130 -86z" />
    <glyph glyph-name="uni208A" unicode="&#x208a;" horiz-adv-x="911" 
d="M92 416h320v311h80v-311h327v-80h-327v-336h-80v336h-320v80z" />
    <glyph glyph-name="uni208B" unicode="&#x208b;" horiz-adv-x="913" 
d="M821 334h-729v82h729v-82z" />
    <glyph glyph-name="uni208C" unicode="&#x208c;" horiz-adv-x="913" 
d="M821 463h-729v82h729v-82zM821 223h-729v82h729v-82z" />
    <glyph glyph-name="uni208D" unicode="&#x208d;" horiz-adv-x="468" 
d="M184 354q0 -139 47 -242t146 -223h-105q-180 209 -180 465t180 465h105q-97 -115 -145 -221t-48 -244z" />
    <glyph glyph-name="uni208E" unicode="&#x208e;" horiz-adv-x="468" 
d="M285 354q0 138 -47 244t-146 221h103q182 -207 182 -465t-182 -465h-103q98 119 146 223t47 242z" />
    <glyph glyph-name="uni20A1" unicode="&#x20a1;" horiz-adv-x="1038" 
d="M416 145q39 -27 94 -36l235 700q-39 39 -88 57zM262 498q0 -172 72 -275l221 658q-141 -7 -217 -109t-76 -274zM213 -135l66 196q-176 135 -177 428q0 244 131 382t342 139h23l59 176l97 -33l-54 -156q53 -12 97 -36l57 172l96 -33l-69 -207q45 -47 75 -119l-141 -80
l-199 -588q135 14 222 156l116 -88q-123 -193 -381 -199l-65 -194l-98 31l57 172q-53 10 -96 26l-60 -178z" />
    <glyph glyph-name="uni20A2" unicode="&#x20a2;" horiz-adv-x="1069" 
d="M567 -25q-201 1 -327 133t-127 378q0 246 131 385q131 138 342 139q145 0 236 -58t145 -178l-144 -80q-68 186 -241 187q-146 1 -228 -103t-82 -269q0 -330 222 -394v428h122l13 -135q18 66 72 106t118 41l-4 -160q-16 8 -39 8q-57 -1 -100 -39t-43 -102v-156
q131 19 215 156l117 -88q-127 -199 -398 -199z" />
    <glyph glyph-name="franc" unicode="&#x20a3;" horiz-adv-x="907" 
d="M707 311h-330v-311h-158v311h-158v103h158v102h-158v102h158v367h647v-133h-489v-234h330v-102h-330v-102h330v-103z" />
    <glyph glyph-name="lira" unicode="&#x20a4;" horiz-adv-x="1003" 
d="M676 311h-252q2 -10 2 -28q0 -115 -94 -150h370q129 0 150 100l121 -61q-43 -172 -254 -172h-592v139h59q41 0 67 36t26 95q0 12 -5 41h-202v103h174q-23 57 -35 102h-139v102h118q-2 20 -2 70q0 162 106 242t257 80q279 0 319 -262l-145 -25q-14 82 -55 122t-131 40
q-91 0 -143 -49t-52 -148q0 -37 6 -70h326v-102h-301l31 -102h270v-103z" />
    <glyph glyph-name="uni20A6" unicode="&#x20a6;" horiz-adv-x="1361" 
d="M1280 332h-166v-332h-168l-395 535q-84 112 -137 210l-19 35h-8q10 -162 10 -313v-467h-157v332h-158v102h158v82h-158v102h158v367h174l399 -553q73 -101 129 -203l14 -30h9q-8 168 -9 319v467h158v-367h166v-102h-166v-82h166v-102z" />
    <glyph glyph-name="peseta" unicode="&#x20a7;" horiz-adv-x="2406" 
d="M342 856v-424h154q143 0 204 48q62 48 62 164t-64 164t-200 48h-156zM342 0h-158v985h326q315 0 391 -184h662q27 106 124 157t230 52q315 0 344 -262l-160 -17q-10 160 -203 160q-88 0 -140 -41t-52 -110q0 -68 35 -106t114 -54l140 -29q268 -57 268 -295
q0 -145 -102 -213t-275 -68q-332 0 -370 263l157 20q18 -166 228 -166t210 152q-1 70 -35 108t-126 58l-152 32q-217 45 -239 226h-256v-668h-158v668h-217v-15q0 -350 -420 -350h-166v-303z" />
    <glyph glyph-name="uni20A8" unicode="&#x20a8;" horiz-adv-x="1699" 
d="M559 985q352 0 352 -291q1 -115 -67 -176t-182 -65v-7q46 -8 80 -30t76 -70q42 -47 59 -61l102 -101q55 -53 120 -70t173 -18q162 0 162 92q0 41 -26 67t-93 40l-103 22q-184 41 -184 215q0 111 81 163t198 53q242 0 264 -199l-150 -14q-14 100 -131 100t-116 -92
q0 -72 106 -94l86 -19q113 -27 162 -83q49 -55 49 -159t-88 -158t-252 -54t-258 38q-94 39 -184 136l-99 102q-6 6 -55 57t-75 61q-62 25 -109 25h-115v-395h-158v985h375zM342 856v-336h190q115 0 162 38t47 126q0 172 -209 172h-190z" />
    <glyph glyph-name="uni20A9" unicode="&#x20a9;" horiz-adv-x="1724" 
d="M1642 373h-274l-102 -373h-195l-164 569q-31 110 -43 242v33h-6q-2 -117 -47 -275l-160 -569h-198l-103 373h-268v102h242l-23 82h-219v102h190l-88 326h160l166 -616q34 -131 47 -238l2 -31h6q8 111 51 267l170 618h162l166 -620q37 -144 49 -234l4 -31h7q6 106 47 262
l165 623h154l-92 -326h194v-102h-223l-22 -82h245v-102z" />
    <glyph glyph-name="uni20AA" unicode="&#x20aa;" horiz-adv-x="1400" 
d="M1077 985h160v-674q0 -159 -58 -235t-229 -76h-471v748h160v-619h283q156 0 155 152v704zM934 236h-160v469q0 152 -156 151h-274v-856h-160v985h465q169 0 227 -78t58 -233v-438z" />
    <glyph glyph-name="Euro" unicode="&#x20ac;" horiz-adv-x="1087" 
d="M641 -25q-159 1 -273 91t-151 266h-156v102h142v55q0 51 2 76h-144v103h162q43 164 159 253t266 89t238 -58t140 -178l-137 -80q-68 186 -234 187q-209 0 -276 -213h362l-20 -103h-363q-2 -23 -2 -67t2 -64h349l-21 -102h-309q66 -227 280 -228q86 0 145 36
q58 36 109 122l113 -88q-121 -199 -383 -199z" />
    <glyph glyph-name="uni20AE" unicode="&#x20ae;" horiz-adv-x="923" 
d="M539 0h-158v303l-227 -39v103l227 39v102l-227 -39v102l227 39v242h-340v133h842v-133h-344v-215l219 37v-103l-219 -36v-103l219 37v-102l-219 -37v-330z" />
    <glyph glyph-name="uni20B1" unicode="&#x20b1;" horiz-adv-x="1161" 
d="M530 432q119 0 182 33q62 33 79 115h-414v-148h153zM377 856v-174h418q-7 92 -71 133t-192 41h-155zM1120 580h-164q-39 -276 -413 -277h-166v-303h-158v580h-158v102h158v303h326q397 0 416 -303h159v-102z" />
    <glyph glyph-name="afii61289" unicode="&#x2113;" horiz-adv-x="649" 
d="M285 979v-436q91 85 155 245t64 340q0 133 -90 134q-59 0 -94 -71t-35 -212zM145 946q0 424 269 424q199 0 198 -260q0 -220 -98 -410t-229 -305v-135q1 -90 33 -124t100 -34t125 23v-129q-57 -20 -161 -20t-171 60q-66 60 -66 200v81l-65 -51l-62 96l127 89v495z" />
    <glyph glyph-name="afii61352" unicode="&#x2116;" horiz-adv-x="2000" 
d="M1612 856q-144 0 -144 -216t144 -216t143 216q0 216 -143 216zM1616 313q-135 0 -214 87t-79 246t79 243t214 84t214 -84t79 -243t-79 -246t-214 -87zM336 688v-473q0 -121 -54 -185t-169 -87l-52 141q68 14 92 47t23 117v958h170l492 -727q69 -102 127 -213l20 -37h8
q-10 137 -10 289v447q0 121 54 185t169 87l51 -141q-67 -14 -91 -47t-23 -117v-932h-166l-498 727q-46 68 -127 211l-20 39h-8q12 -137 12 -289zM1319 0v125h600v-125h-600z" />
    <glyph glyph-name="published" unicode="&#x2117;" horiz-adv-x="1439" 
d="M156 602q0 -246 164 -406t401 -161q237 0 401 161q164 160 164 406t-164 408t-402 162t-401 -162t-163 -408zM92 602q0 270 182 450t444 179q262 0 446 -179q184 -180 184 -450t-184 -448t-445 -178q-263 0 -445 178t-182 448zM623 881v-250h137q158 0 158 125
q0 59 -41 92t-119 33h-135zM780 516h-157v-285h-134v762h289q125 0 199 -59t74 -177q0 -117 -77 -179t-194 -62z" />
    <glyph glyph-name="servicemark" unicode="&#x2120;" horiz-adv-x="1204" 
d="M1102 700h-103v353h-10l-104 -256h-97l-110 256h-10v-353h-103v508h140l129 -293h8l127 293h133v-508zM252 766q94 0 94 63q0 55 -76 74l-69 15q-137 31 -138 145q1 82 57 119t142 37q176 0 193 -134l-105 -12q-8 68 -94 68t-86 -64q0 -55 76 -73l65 -15
q143 -31 144 -155q0 -144 -197 -144t-217 131l106 17q11 -72 105 -72z" />
    <glyph glyph-name="trademark" unicode="&#x2122;" horiz-adv-x="1200" 
d="M1098 698h-103v353h-10l-104 -256h-97l-110 256h-10v-353h-103v508h139l129 -293h9l127 293h133v-508zM295 698h-102v418h-152v90h408v-90h-154v-418z" />
    <glyph glyph-name="ohm" unicode="&#x2126;" horiz-adv-x="1314" 
d="M657 1096q-176 0 -269 -126t-93 -322t71 -321q71 -126 175 -182v-145h-410v145h213q-84 51 -153 193t-68 301q0 274 145 433t389 159q243 0 389 -159t146 -433q0 -160 -69 -301t-152 -193h213v-145h-410v145q104 55 175 181t71 322t-93 322q-94 126 -270 126z" />
    <glyph glyph-name="estimated" unicode="&#x212e;" horiz-adv-x="1325" 
d="M662 1122q-193 0 -312 -118v-349h623v349q-118 118 -311 118zM640 1231q318 0 459 -195q134 -180 134 -434v-53h-883v-346q123 -119 312 -119q266 0 376 213h136q-60 -150 -190 -236t-321 -86q-191 1 -323 93q-245 171 -247 534q-1 363 246 537q133 92 301 92z" />
    <glyph glyph-name="uni2153" unicode="&#x2153;" horiz-adv-x="1765" 
d="M1610 184q0 -92 -75 -145t-193 -53t-188 46t-85 120l115 45q12 -47 57 -80t102 -33q135 0 136 111q1 63 -51 96t-175 35v90q205 8 205 119q0 47 -31 75t-86 27q-104 0 -129 -98l-112 41q20 72 85 116t165 43q100 0 168 -47t67 -141q0 -154 -174 -172v-6q199 -18 199 -189
zM512 0l627 1208h114l-624 -1208h-117zM623 483h-519v103h205v493l-225 -24v104l356 49v-622h183v-103z" />
    <glyph glyph-name="uni2154" unicode="&#x2154;" horiz-adv-x="1765" 
d="M1610 184q0 -92 -75 -145t-193 -53t-188 46t-85 120l115 45q12 -47 57 -80t102 -33q135 0 136 111q1 63 -51 96t-175 35v90q205 8 205 119q0 47 -31 75t-86 27q-104 0 -129 -98l-112 41q20 72 85 116t165 43q100 0 168 -47t67 -141q0 -154 -174 -172v-6q199 -18 199 -189
zM512 0l627 1208h114l-624 -1208h-117zM641 586v-103h-535v99q201 139 283 224t82 185q0 117 -119 117q-66 0 -98 -41t-33 -102l-106 51q0 82 70 144q71 62 179 62t176 -56q67 -56 66 -162q0 -163 -170 -297q-69 -55 -170 -113v-8h375z" />
    <glyph glyph-name="uni215B" unicode="&#x215b;" horiz-adv-x="1765" 
d="M1407 643q-63 0 -104 -30t-41 -82q0 -51 44 -81t101 -30t101 30t44 82t-41 81q-41 30 -104 30zM1407 -14q-125 0 -201 52t-76 148q0 68 44 115t112 57v9q-139 29 -139 168q0 94 72 149q73 55 189 55t188 -55t71 -149q0 -139 -139 -168v-9q70 -10 112 -57t43 -129
t-75 -134t-201 -52zM1407 317q-61 -1 -103 -31t-42 -87q0 -121 145 -121t145 121q0 57 -42 87t-103 31zM512 0l627 1208h114l-624 -1208h-117zM623 483h-519v103h205v493l-225 -24v104l356 49v-622h183v-103z" />
    <glyph glyph-name="uni215C" unicode="&#x215c;" horiz-adv-x="1765" 
d="M1407 643q-63 0 -104 -30t-41 -82q0 -51 44 -81t101 -30t101 30t44 82t-41 81q-41 30 -104 30zM1407 -14q-125 0 -201 52t-76 148q0 68 44 115t112 57v9q-139 29 -139 168q0 94 72 149q73 55 189 55t188 -55t71 -149q0 -139 -139 -168v-9q70 -10 112 -57t43 -129
t-75 -134t-201 -52zM1407 317q-61 -1 -103 -31t-42 -87q0 -121 145 -121t145 121q0 57 -42 87t-103 31zM512 0l627 1208h114l-624 -1208h-117zM627 668q0 -92 -75 -146t-193 -53q-119 0 -189 46t-84 120l115 45q12 -47 57 -80t102 -33q135 0 136 111q0 63 -52 96t-174 35v90
q205 8 205 119q0 47 -31 75t-86 27q-104 0 -129 -98l-112 41q20 72 85 116t165 44t168 -47t67 -142q0 -154 -174 -172v-6q199 -18 199 -188z" />
    <glyph glyph-name="uni215D" unicode="&#x215d;" horiz-adv-x="1765" 
d="M1407 643q-63 0 -104 -30t-41 -82q0 -51 44 -81t101 -30t101 30t44 82t-41 81q-41 30 -104 30zM1407 -14q-125 0 -201 52t-76 148q0 68 44 115t112 57v9q-139 29 -139 168q0 94 72 149q73 55 189 55t188 -55t71 -149q0 -139 -139 -168v-9q70 -10 112 -57t43 -129
t-75 -134t-201 -52zM1407 317q-61 -1 -103 -31t-42 -87q0 -121 145 -121t145 121q0 57 -42 87t-103 31zM512 0l627 1208h114l-624 -1208h-117zM498 713q0 143 -132 143q-66 0 -106 -51h-104l18 401h416v-106h-314l-10 -207q44 59 142 59t156 -57t58 -175t-73 -184
q-75 -66 -195 -67q-120 0 -187 48t-77 124l111 47q23 -123 149 -123q68 0 108 38t40 110z" />
    <glyph glyph-name="uni215E" unicode="&#x215e;" horiz-adv-x="1640" 
d="M1282 643q-63 0 -104 -30t-41 -82q0 -51 44 -81t101 -30t101 30t44 82t-41 81q-41 30 -104 30zM1282 -14q-125 0 -201 52t-75 148q0 68 43 115t112 57v9q-139 29 -139 168q0 94 72 149t188 55t188 -55t72 -149q0 -139 -139 -168v-9q70 -10 113 -57t43 -115
q0 -96 -76 -148t-201 -52zM1282 317q-61 -1 -103 -31t-42 -87q0 -121 145 -121t145 121q0 57 -42 87t-103 31zM387 0l627 1208h114l-624 -1208h-117zM203 1096v-109h-113v219h535v-61l-295 -662h-129l280 613h-278z" />
    <glyph glyph-name="arrowleft" unicode="&#x2190;" horiz-adv-x="1353" 
d="M1262 678v-148h-961l447 -454l-111 -101l-600 625l600 631l113 -98l-445 -455h957z" />
    <glyph glyph-name="arrowup" unicode="&#x2191;" horiz-adv-x="1402" 
d="M776 0h-147v967l-455 -447l-100 111l624 600l631 -600l-100 -113l-453 445v-963z" />
    <glyph glyph-name="arrowright" unicode="&#x2192;" horiz-adv-x="1353" 
d="M37 678h956l-436 455l113 98l592 -631l-590 -625l-111 101l438 454h-962v148z" />
    <glyph glyph-name="arrowdown" unicode="&#x2193;" horiz-adv-x="1402" 
d="M627 1206h147v-966l455 448l100 -110l-624 -603l-631 603l100 112l453 -444v960z" />
    <glyph glyph-name="uni2196" unicode="&#x2196;" horiz-adv-x="1398" 
d="M305 203h-139v1003h956v-137h-716l956 -965l-102 -104l-955 961v-758z" />
    <glyph glyph-name="uni2197" unicode="&#x2197;" horiz-adv-x="1398" 
d="M276 1069v137h957v-1003h-139v758l-955 -961l-102 104l956 965h-717z" />
    <glyph glyph-name="uni2198" unicode="&#x2198;" horiz-adv-x="1398" 
d="M1094 1004h139v-1004h-957v137h717l-956 965l102 104l955 -958v756z" />
    <glyph glyph-name="uni2199" unicode="&#x2199;" horiz-adv-x="1398" 
d="M1122 137v-137h-956v1004h139v-756l955 958l102 -104l-956 -965h716z" />
    <glyph glyph-name="partialdiff" unicode="&#x2202;" horiz-adv-x="1050" 
d="M791 477q0 170 -70 260t-203 90q-262 0 -262 -350q0 -174 68 -267t198 -93q269 0 269 360zM526 -14q-196 0 -310 128t-114 361t109 359t276 124q167 0 263 -124q-123 288 -461 446l90 94q260 -104 415 -341q154 -237 154 -506t-112 -405t-310 -136z" />
    <glyph glyph-name="increment" unicode="&#x2206;" horiz-adv-x="1134" 
d="M895 133l-233 668q-70 198 -84 268l-11 33h-8q-27 -113 -92 -299l-234 -668zM1114 0h-1094l441 1206h217z" />
    <glyph glyph-name="product" unicode="&#x220f;" horiz-adv-x="1257" 
d="M322 -414h-158v1620h930v-1620h-158v1473h-614v-1473z" />
    <glyph glyph-name="summation" unicode="&#x2211;" horiz-adv-x="894" 
d="M813 1067h-311l-211 6v-8q68 -55 143 -150l250 -311l-266 -313q-77 -91 -125 -133l-19 -17v-8q82 6 211 6h328v-139h-813l487 606l-487 600h813v-139z" />
    <glyph glyph-name="minus" unicode="&#x2212;" horiz-adv-x="1019" 
d="M928 461h-836v94h836v-94z" />
    <glyph glyph-name="radical" unicode="&#x221a;" horiz-adv-x="1142" 
d="M377 946l278 -762h7l317 1221l143 -12l-372 -1393h-166l-291 729l-191 -104l-61 123z" />
    <glyph glyph-name="infinity" unicode="&#x221e;" horiz-adv-x="1769" 
d="M1524 512q0 113 -60 175t-149 63q-139 0 -236 -107l-114 -131l114 -131q96 -106 236 -107q89 0 149 62t60 176zM457 872q195 0 325 -155l103 -117l102 117q135 156 326 155q158 0 256 -98t98 -262t-98 -262t-256 -98q-195 0 -326 155l-102 117l-103 -117
q-131 -156 -325 -155q-158 0 -256 98t-99 262q0 164 98 262t257 98zM246 512q0 -113 60 -175t149 -63q135 0 235 107l115 131l-115 131q-96 106 -235 107q-89 0 -149 -62t-60 -176z" />
    <glyph glyph-name="integral" unicode="&#x222b;" horiz-adv-x="559" 
d="M190 -92v1147q0 165 92 241t204 76q114 0 196 -33l-33 -139q-82 41 -147 41q-156 0 -156 -194v-1147q0 -166 -90 -242t-225 -76q-92 0 -174 33l32 139q78 -41 148 -41q153 0 153 195z" />
    <glyph glyph-name="approxequal" unicode="&#x2248;" horiz-adv-x="1019" 
d="M760 289q-100 0 -252 52q-150 52 -223 52q-109 0 -193 -104v104q64 95 199 93q63 0 221 -53q158 -52 218 -52q117 0 198 100v-121q-68 -71 -168 -71zM741 522q-83 0 -233 51t-223 52q-109 0 -193 -103v103q61 92 187 92q75 0 233 -51q158 -52 218 -52q116 -1 198 99v-119
q-66 -72 -187 -72z" />
    <glyph glyph-name="notequal" unicode="&#x2260;" horiz-adv-x="1019" 
d="M928 586h-262l-142 -164h404v-94h-486l-221 -258l-71 63l167 195h-225v94h305l142 164h-447v94h526l201 233l74 -63l-148 -170h183v-94z" />
    <glyph glyph-name="lessequal" unicode="&#x2264;" horiz-adv-x="811" 
d="M719 43h-627v94h627v-94zM698 915l-432 -323l434 -326l-69 -80l-531 406l531 403z" />
    <glyph glyph-name="greaterequal" unicode="&#x2265;" horiz-adv-x="811" 
d="M719 43h-627v94h627v-94zM545 592l-432 323l67 80l529 -403l-529 -406l-69 80z" />
    <glyph glyph-name="blacksquare" unicode="&#x25a0;" horiz-adv-x="1554" 
d="M174 0v1206h1206v-1206h-1206z" />
    <glyph glyph-name="whitesquare" unicode="&#x25a1;" horiz-adv-x="1554" 
d="M262 1118v-1030h1030v1030h-1030zM174 0v1206h1206v-1206h-1206z" />
    <glyph glyph-name="blacksmallsquare" unicode="&#x25aa;" horiz-adv-x="1015" 
d="M174 285v665h668v-665h-668z" />
    <glyph glyph-name="whitesmallsquare" unicode="&#x25ab;" horiz-adv-x="1015" 
d="M262 862v-489h492v489h-492zM174 285v665h668v-665h-668z" />
    <glyph glyph-name="triagup" unicode="&#x25b2;" horiz-adv-x="1169" 
d="M82 0l502 1231l503 -1231h-1005z" />
    <glyph glyph-name="triagrt" unicode="&#x25ba;" horiz-adv-x="1404" 
d="M174 1098l1231 -502l-1231 -504v1006z" />
    <glyph glyph-name="triagdn" unicode="&#x25bc;" horiz-adv-x="1169" 
d="M584 -25l-502 1231h1005z" />
    <glyph glyph-name="triaglf" unicode="&#x25c4;" horiz-adv-x="1404" 
d="M0 596l1231 502v-1006z" />
    <glyph glyph-name="lozenge" unicode="&#x25ca;" horiz-adv-x="1036" 
d="M784 621l-264 512l-266 -512l266 -533zM934 623l-361 -691h-112l-359 691l359 669h112z" />
    <glyph glyph-name="circle" unicode="&#x25cb;" horiz-adv-x="1071" 
d="M184 604q0 -148 104 -254q104 -104 248 -104q146 0 250 104t104 253t-104 254t-249 105t-249 -104q-104 -106 -104 -254zM92 604q0 184 129 314t313 131q184 0 315 -130q130 -131 130 -315t-130 -313t-314 -129t-314 129q-129 129 -129 313z" />
    <glyph glyph-name="blackcircle" unicode="&#x25cf;" horiz-adv-x="1439" 
d="M92 602q0 260 183 444t443 185q260 0 445 -184q185 -185 185 -445t-184 -443t-445 -183q-259 0 -443 182q-184 184 -184 444z" />
    <glyph glyph-name="whitecircle" unicode="&#x25ef;" horiz-adv-x="1439" 
d="M182 600q0 -225 157 -384t379 -159t380 160t158 384t-158 385t-380 161t-379 -161t-157 -386zM92 602q0 260 183 444t443 185q260 0 445 -184q185 -185 185 -445t-184 -443t-445 -183q-259 0 -443 182q-184 184 -184 444z" />
    <glyph glyph-name="anglebracketleft" unicode="&#x3008;" horiz-adv-x="659" 
d="M567 -416h-141l-313 903l313 881h141l-305 -885z" />
    <glyph glyph-name="anglebracketright" unicode="&#x3009;" horiz-adv-x="659" 
d="M233 -416h-141l305 899l-305 885h141l314 -881z" />
    <glyph glyph-name="lcedilla" unicode="&#xe100;" horiz-adv-x="516" 
d="M504 -258q0 -86 -58 -130t-162 -44t-161 78l47 98q51 -76 128 -76t77 74q0 90 -144 90l13 172q-100 47 -101 174v1190h156v-1165q0 -86 82 -86q29 0 63 10v-129q-57 -12 -100 -12h-16l-4 -72q180 -16 180 -172z" />
    <glyph glyph-name="uni004500600323" unicode="&#xe101;" horiz-adv-x="997" 
d="M602 1341h-141l127 238h213zM424 -290q0 46 32 79t78 33t78 -33q33 -33 33 -79t-33 -79t-79 -33q-45 0 -77 34q-32 32 -32 78zM895 139v-139h-721v1206h721v-139h-561v-395h497v-140h-497v-393h561z" />
    <glyph glyph-name="uni006500600323" unicode="&#xe102;" horiz-adv-x="972" 
d="M406 -290q0 46 31 79q32 33 78 33t79 -33t33 -79t-33 -79t-79 -33t-78 33q-31 33 -31 79zM569 1085h-133l154 293h215zM729 606q0 100 -62 169t-167 69q-104 0 -172 -72t-82 -209h481q2 16 2 43zM514 98q176 0 221 164l137 -31q-47 -256 -370 -256q-188 0 -299 129
t-111 364t114 368t298 133t280 -110t97 -290q0 -86 -19 -131h-620q8 -154 78 -247t194 -93z" />
    <glyph glyph-name="uni004500B40323" unicode="&#xe103;" horiz-adv-x="997" 
d="M612 1341h-141l-199 238h213zM424 -290q0 46 32 79t78 33t78 -33q33 -33 33 -79t-33 -79t-79 -33q-45 0 -77 34q-32 32 -32 78zM895 139v-139h-721v1206h721v-139h-561v-395h497v-140h-497v-393h561z" />
    <glyph glyph-name="uni006500B40323" unicode="&#xe104;" horiz-adv-x="972" 
d="M406 -290q0 46 31 79q32 33 78 33t79 -33t33 -79t-33 -79t-79 -33t-78 33q-31 33 -31 79zM598 1085h-133l-236 293h215zM729 606q0 100 -62 169t-167 69q-104 0 -172 -72t-82 -209h481q2 16 2 43zM514 98q176 0 221 164l137 -31q-47 -256 -370 -256q-188 0 -299 129
t-111 364t114 368t298 133t280 -110t97 -290q0 -86 -19 -131h-620q8 -154 78 -247t194 -93z" />
    <glyph glyph-name="Gtilde" unicode="&#xe105;" horiz-adv-x="1236" 
d="M786 1341q-58 0 -174 66q-20 12 -27 15q-7 4 -25 12t-44 8q-74 0 -61 -96h-99q-34 94 8 166t125 71q83 0 168 -51t119 -51q66 0 60 102h104q32 -104 -10 -173t-144 -69zM637 614h467v-614h-141l-19 162q-33 -86 -128 -136t-204 -51q-238 0 -379 164t-141 460t153 464
t402 168q328 0 440 -285l-145 -72q-39 109 -120 165t-187 57q-175 0 -275 -132t-100 -360t92 -362q92 -133 269 -133q135 1 229 65t94 191v106h-307v143z" />
    <glyph glyph-name="gtilde" unicode="&#xe106;" horiz-adv-x="980" 
d="M623 1087q-64 0 -174 66q-19 12 -27 15q-8 4 -26 12t-44 8q-74 0 -61 -96h-98q-35 94 7 162t125 69q83 0 168 -51t119 -51q66 0 60 102h104q31 -104 -10 -170t-143 -66zM244 638q0 -102 58 -160t162 -58t164 54t60 160t-60 164q-60 56 -164 54t-163 -57q-57 -56 -57 -157
zM170 -170q0 -150 268 -149q338 0 338 172q0 141 -176 141h-194q-236 0 -236 -164zM92 633q0 156 102 246t272 90q171 0 271 -82q55 25 74 143l139 -49q-10 -68 -51 -112t-102 -56q45 -72 45 -180q0 -158 -106 -243t-269 -85q-82 0 -125 17q-72 -37 -72 -105q0 -86 111 -86
h219q326 0 326 -258q0 -237 -319 -291q-83 -14 -181 -14q-406 0 -406 252q0 94 65 155t177 70q-59 8 -92 46t-33 95q0 125 135 158q-180 82 -180 289z" />
    <glyph glyph-name="Gcommaturnedabove" unicode="&#xe107;" horiz-adv-x="1236" 
d="M500 1485q0 109 57 157t174 50v-70q-61 -4 -89 -24t-28 -68q53 10 85 -17t32 -73t-30 -74q-29 -27 -79 -27t-86 40t-36 106zM637 614h467v-614h-141l-19 162q-33 -86 -128 -136t-204 -51q-238 0 -379 164t-141 460t153 464t402 168q328 0 440 -285l-145 -72
q-39 109 -120 165t-187 57q-175 0 -275 -132t-100 -360t92 -362q92 -133 269 -133q135 1 229 65t94 191v106h-307v143z" />
    <glyph glyph-name="gcommaturnedabove" unicode="&#xe108;" horiz-adv-x="980" 
d="M338 1239q0 109 57 158t174 49v-70q-61 -4 -89 -23t-27 -69q53 10 85 -16t32 -74q0 -47 -30 -74q-30 -26 -80 -26t-86 40t-36 105zM244 638q0 -102 58 -160t162 -58t164 54t60 160t-60 164q-60 56 -164 54t-163 -57q-57 -56 -57 -157zM170 -170q0 -150 268 -149
q338 0 338 172q0 141 -176 141h-194q-236 0 -236 -164zM92 633q0 156 102 246t272 90q171 0 271 -82q55 25 74 143l139 -49q-10 -68 -51 -112t-102 -56q45 -72 45 -180q0 -158 -106 -243t-269 -85q-82 0 -125 17q-72 -37 -72 -105q0 -86 111 -86h219q326 0 326 -258
q0 -237 -319 -291q-83 -14 -181 -14q-406 0 -406 252q0 94 65 155t177 70q-59 8 -92 46t-33 95q0 125 135 158q-180 82 -180 289z" />
    <glyph glyph-name="Hmacronbelow" unicode="&#xe109;" horiz-adv-x="1277" 
d="M897 -365h-514v121h514v-121zM334 0h-160v1206h160v-524h610v524h160v-1206h-160v543h-610v-543z" />
    <glyph glyph-name="hmacronbelow" unicode="&#xe10a;" horiz-adv-x="1026" 
d="M776 -365h-514v121h514v-121zM309 1368v-602q66 203 283 203q129 0 210 -73t81 -218v-678h-156v641q0 193 -188 193q-96 0 -163 -66t-67 -217v-551h-155v1368h155z" />
    <glyph glyph-name="Jcaron" unicode="&#xe10b;" horiz-adv-x="872" 
d="M707 1331h-95l-247 254h178l65 -69q30 -33 49 -72h5q10 29 49 72l65 69h178zM580 1206h159v-856q0 -198 -103 -286t-263 -89q-260 0 -373 238l129 84q51 -106 104 -146t157 -40q104 -1 147 71t43 209v815z" />
    <glyph glyph-name="Kcedilla" unicode="&#xe10d;" horiz-adv-x="1069" 
d="M705 -258q-1 -86 -59 -130t-162 -44t-160 78l47 98q51 -76 128 -76t76 74q0 90 -143 90l12 178h86l-6 -96q181 -16 181 -172zM334 543v-543h-160v1206h160v-524h106l371 524h188l-432 -585l461 -621h-197l-397 543h-100z" />
    <glyph glyph-name="kcedilla" unicode="&#xe10e;" horiz-adv-x="923" 
d="M678 -258q0 -86 -58 -130t-161 -44t-162 78l47 98q51 -76 128 -76t77 74q0 90 -143 90l12 178h86l-6 -96q180 -16 180 -172zM309 434v-434h-155v1368h155v-811h43l338 389h193l-398 -440l428 -506h-196l-352 434h-56z" />
    <glyph glyph-name="Lcedilla" unicode="&#xe10f;" horiz-adv-x="935" 
d="M725 -258q0 -86 -58 -130t-162 -44t-161 78l47 98q51 -76 128 -76t77 74q0 90 -143 90l10 168h-289v1206h160v-1067h561v-139h-346l-4 -86q180 -16 180 -172z" />
    <glyph glyph-name="ocedilla" unicode="&#xe110;" 
d="M514 842q-268 0 -268 -372t268 -372t268 372t-268 372zM725 -258q0 -86 -58 -130t-162 -44t-161 78l47 98q51 -76 128 -76t77 74q0 90 -143 90l10 145q-175 15 -273 147t-98 362t113 357q113 126 309 126t310 -126q112 -125 112 -359t-103 -365t-284 -142l-4 -63
q180 -16 180 -172z" />
    <glyph glyph-name="Mmacron" unicode="&#xe111;" horiz-adv-x="1458" 
d="M987 1386h-514v121h514v-121zM334 758v-758h-160v1206h199l305 -608q40 -81 53 -135h8q12 53 54 135l305 608h186v-1206h-160v758l11 221h-9q-16 -74 -90 -213l-245 -465h-123l-246 465q-65 120 -84 190l-6 23h-8q10 -76 10 -221z" />
    <glyph glyph-name="mmacron" unicode="&#xe112;" horiz-adv-x="1566" 
d="M1047 1155h-515v125h515v-125zM1423 0h-155v641q0 193 -174 193q-88 0 -158 -73t-70 -210v-551h-155v641q0 193 -174 193q-88 0 -158 -73t-70 -210v-551h-155v946h116l19 -182q35 104 114 155q80 50 181 50q227 0 262 -209q63 209 307 209q115 0 193 -71t77 -210v-688z
" />
    <glyph glyph-name="Mcedilla" unicode="&#xe113;" horiz-adv-x="1458" 
d="M920 -258q0 -86 -58 -130t-162 -44q-102 0 -161 78l47 98q51 -76 128 -76t77 74q0 90 -144 90l12 178h86l-6 -96q181 -16 181 -172zM334 758v-758h-160v1206h199l305 -608q40 -81 53 -135h8q12 53 54 135l305 608h186v-1206h-160v758l11 221h-9q-16 -74 -90 -213
l-245 -465h-123l-246 465q-65 120 -84 190l-6 23h-8q10 -76 10 -221z" />
    <glyph glyph-name="mcedilla" unicode="&#xe114;" horiz-adv-x="1566" 
d="M846 760q63 209 307 209q115 0 193 -71t77 -210v-688h-155v641q0 193 -174 193q-88 0 -158 -73t-70 -210v-551h-39l-4 -86q181 -16 181 -172q0 -86 -58 -130t-162 -44t-161 78l47 98q51 -76 128 -76t76 74q0 90 -143 90l10 168h-30v641q0 193 -174 193q-88 0 -158 -73
t-70 -210v-551h-155v946h116l19 -182q35 104 114 155q80 50 181 50q227 0 262 -209z" />
    <glyph glyph-name="Ndieresis" unicode="&#xe115;" horiz-adv-x="1314" 
d="M739 1452q0 45 33 78t79 33t78 -32t32 -78t-33 -79t-78 -33t-78 33t-33 78zM352 1454q0 45 33 78t78 33t78 -33t33 -78t-34 -78q-32 -33 -77 -33t-78 33t-33 78zM981 518v688h160v-1206h-166l-498 727q-46 68 -127 211l-20 39h-8q12 -137 12 -289v-688h-160v1206h170
l492 -727q69 -102 127 -213l20 -37h8q-10 137 -10 289z" />
    <glyph glyph-name="ndieresis" unicode="&#xe116;" horiz-adv-x="1026" 
d="M612 1217q0 45 33 77t79 33q46 0 78 -33q32 -34 32 -78t-33 -77t-78 -33t-78 33t-33 78zM225 1219q0 45 33 77t78 33q45 0 78 -32q32 -31 32 -77t-32 -79t-78 -33q-45 0 -78 33t-33 78zM592 969q129 0 210 -73t81 -218v-678h-156v639q0 195 -188 195q-96 0 -163 -66
t-67 -217v-551h-155v946h116l19 -182q74 205 303 205z" />
    <glyph glyph-name="Nmacron" unicode="&#xe117;" horiz-adv-x="1314" 
d="M915 1386h-514v121h514v-121zM981 518v688h160v-1206h-166l-498 727q-46 68 -127 211l-20 39h-8q12 -137 12 -289v-688h-160v1206h170l492 -727q69 -102 127 -213l20 -37h8q-10 137 -10 289z" />
    <glyph glyph-name="nmacron" unicode="&#xe118;" horiz-adv-x="1026" 
d="M788 1155h-514v125h514v-125zM592 969q129 0 210 -73t81 -218v-678h-156v639q0 195 -188 195q-96 0 -163 -66t-67 -217v-551h-155v946h116l19 -182q74 205 303 205z" />
    <glyph glyph-name="Ncedilla" unicode="&#xe119;" horiz-adv-x="1314" 
d="M848 -258q0 -86 -58 -130t-162 -44t-161 78l47 98q51 -76 128 -76t77 74q0 90 -144 90l13 178h86l-6 -96q180 -16 180 -172zM981 518v688h160v-1206h-166l-498 727q-46 68 -127 211l-20 39h-8q12 -137 12 -289v-688h-160v1206h170l492 -727q69 -102 127 -213l20 -37h8
q-10 137 -10 289z" />
    <glyph glyph-name="ncedilla" unicode="&#xe11a;" horiz-adv-x="1026" 
d="M721 -258q0 -86 -58 -130t-162 -44t-161 78l47 98q51 -76 128 -76t77 74q0 90 -143 90l12 178h86l-6 -96q180 -16 180 -172zM592 969q129 0 210 -73t81 -218v-678h-156v639q0 195 -188 195q-96 0 -163 -66t-67 -217v-551h-155v946h116l19 -182q74 205 303 205z" />
    <glyph glyph-name="Ocommaturnedabove" unicode="&#xe11b;" horiz-adv-x="1253" 
d="M508 1485q0 109 57 157t174 50v-70q-61 -4 -89 -24t-27 -68q53 10 85 -17t32 -73t-30 -74q-30 -27 -80 -27t-86 40t-36 106zM627 1092q-179 0 -273 -129t-94 -361t94 -360q94 -129 272 -129t273 129q94 129 94 360q0 230 -94 360t-272 130zM627 -25q-246 0 -390 165
q-145 165 -145 463t144 463t391 165q246 0 390 -165t144 -463t-144 -463t-390 -165z" />
    <glyph glyph-name="ocommaturnedabove" unicode="&#xe11c;" 
d="M403 1239q-1 109 57 158t175 49v-70q-61 -4 -89 -23t-28 -69q53 10 85 -16t32 -74q0 -47 -30 -74q-30 -26 -80 -26t-86 40t-36 105zM514 842q-268 0 -268 -372t268 -372t268 372t-268 372zM514 -25q-194 1 -308 133t-114 370t113 365q113 126 309 126t310 -126
q112 -126 112 -365t-114 -371t-308 -132z" />
    <glyph glyph-name="uni004F02D900AF" unicode="&#xe11d;" horiz-adv-x="1253" 
d="M885 1618h-514v121h514v-121zM516 1431q0 47 32 79t78 32t79 -33t33 -79t-34 -78q-32 -33 -78 -33t-78 33t-32 79zM627 1092q-179 0 -273 -129t-94 -361t94 -360q94 -129 272 -129t273 129q94 129 94 360q0 230 -94 360t-272 130zM627 -25q-246 0 -390 165
q-145 165 -145 463t144 463t391 165q246 0 390 -165t144 -463t-144 -463t-390 -165z" />
    <glyph glyph-name="Ocedilla" unicode="&#xe11f;" horiz-adv-x="1253" 
d="M627 1092q-179 0 -273 -129t-94 -361t94 -360q94 -129 272 -129t273 129q94 129 94 360q0 230 -94 360t-272 130zM817 -258q0 -86 -58 -130t-161 -44t-162 78l47 98q51 -76 128 -76t77 74q0 90 -143 90l10 148q-215 24 -339 186t-124 448t144 452q144 165 391 165
q246 0 390 -165t144 -461t-140 -460t-380 -170l-4 -61q180 -16 180 -172z" />
    <glyph glyph-name="Ounderlineaccent" unicode="&#xe121;" horiz-adv-x="1253" 
d="M688 -416h-123v307h123v-307zM627 1092q-179 0 -273 -129t-94 -361t94 -360q94 -129 272 -129t273 129q94 129 94 360q0 230 -94 360t-272 130zM627 -25q-246 0 -390 165q-145 165 -145 463t144 463t391 165q246 0 390 -165t144 -463t-144 -463t-390 -165z" />
    <glyph glyph-name="ounderlineaccent" unicode="&#xe122;" 
d="M575 -416h-122v307h122v-307zM514 842q-268 0 -268 -372t268 -372t268 372t-268 372zM514 -25q-194 1 -308 133t-114 370t113 365q113 126 309 126t310 -126q112 -126 112 -365t-114 -371t-308 -132z" />
    <glyph glyph-name="Pmacron" unicode="&#xe123;" horiz-adv-x="999" 
d="M758 1386h-514v121h514v-121zM334 0h-160v1206h342q422 0 422 -358q0 -180 -102 -284t-304 -103h-198v-461zM334 1073v-481h184q137 0 195 63q57 63 57 181q0 238 -256 237h-180z" />
    <glyph glyph-name="pmacron" unicode="&#xe124;" horiz-adv-x="1077" 
d="M827 1155h-514v125h514v-125zM309 -416h-155v1362h122l19 -182q39 106 128 156t187 49q176 0 276 -123t99 -347q1 -224 -109 -374t-307 -150t-260 150v-541zM309 549v-191q0 -132 74 -198q73 -66 181 -66t185 100t77 281q0 182 -67 274q-67 91 -183 91t-192 -78t-75 -213
z" />
    <glyph glyph-name="Rdoublegrave" unicode="&#xe125;" horiz-adv-x="1103" 
d="M459 1341h-123l-236 238h205zM745 1341h-118l-215 238h200zM334 1073v-430h235q238 0 238 215t-238 215h-235zM508 512h-174v-512h-160v1206h399q401 0 402 -336q0 -137 -82 -216t-201 -83v-4q88 -10 138 -56t75 -144l62 -242q18 -74 61 -125h-174q-35 43 -49 109
l-51 219q-27 108 -84 146t-162 38z" />
    <glyph glyph-name="rdoublegrave" unicode="&#xe126;" horiz-adv-x="702" 
d="M338 1085h-123l-235 293h204zM625 1085h-119l-215 293h201zM578 797q-111 0 -190 -85t-79 -218v-494h-155v946h129l18 -254q29 131 122 206q94 75 239 69l-9 -176q-27 6 -75 6z" />
    <glyph glyph-name="Rcedilla" unicode="&#xe127;" horiz-adv-x="1103" 
d="M715 -258q-1 -86 -59 -130t-160 -44t-162 78l47 98q51 -76 128 -76t77 74q0 90 -144 90l13 178h86l-6 -96q180 -16 180 -172zM334 1073v-430h235q238 0 238 215t-238 215h-235zM508 512h-174v-512h-160v1206h399q401 0 402 -336q0 -137 -82 -216t-201 -83v-4
q88 -10 138 -56t75 -144l62 -242q18 -74 61 -125h-174q-35 43 -49 109l-51 219q-27 108 -84 146t-162 38z" />
    <glyph glyph-name="rcedilla" unicode="&#xe128;" horiz-adv-x="702" 
d="M446 -258q0 -86 -58 -130t-162 -44t-160 78l47 98q51 -76 128 -76t76 74q0 90 -143 90l10 168h-30v946h129l18 -254q29 131 122 206t239 69l-9 -176q-27 6 -75 6q-111 0 -190 -85t-79 -218v-494h-39l-4 -86q180 -16 180 -172z" />
    <glyph glyph-name="Tcedilla" unicode="&#xe129;" horiz-adv-x="919" 
d="M676 -258q0 -86 -58 -130t-162 -44t-161 78l47 98q51 -76 128 -76t77 74q0 90 -144 90l11 168h-35v1067h-359v139h879v-139h-360v-1067h-39l-4 -86q180 -16 180 -172z" />
    <glyph glyph-name="tcedilla" unicode="&#xe12a;" horiz-adv-x="657" 
d="M561 -258q0 -86 -58 -130t-162 -44t-161 78l47 98q51 -76 128 -76t77 74q0 90 -143 90l10 164q-141 51 -141 233v592h-138v125h138v201l157 20v-221h281v-125h-283v-563q0 -150 127 -149q80 0 156 49l31 -129q-84 -53 -209 -54q-23 0 -33 2l-4 -63q180 -16 180 -172z" />
    <glyph glyph-name="Umacronbelow" unicode="&#xe12b;" horiz-adv-x="1173" 
d="M844 -365h-514v121h514v-121zM881 1206h159v-813q0 -309 -288 -395q-78 -23 -166 -23t-166 23q-287 85 -287 395v813h160v-774q0 -326 294 -326t294 320v780z" />
    <glyph glyph-name="umacronbelow" unicode="&#xe12c;" horiz-adv-x="1026" 
d="M766 -365h-514v121h514v-121zM430 -25q-287 0 -287 316v655h156v-641q0 -113 44 -164t135 -51t165 76t74 205v575h155v-946h-133l-18 170q-68 -195 -291 -195z" />
    <glyph glyph-name="R.alt" unicode="&#xe141;" horiz-adv-x="1058" 
d="M334 1073v-463h198q238 0 238 228q0 111 -59 173t-179 62h-198zM334 485v-485h-160v1206h346q418 0 418 -358q0 -137 -72 -229t-200 -115l362 -504h-190l-344 485h-160z" />
    <glyph glyph-name="Racute.alt" unicode="&#xe142;" horiz-adv-x="1058" 
d="M510 1341h-141l127 238h213zM334 1073v-463h198q238 0 238 228q0 111 -59 173t-179 62h-198zM334 485v-485h-160v1206h346q418 0 418 -358q0 -137 -72 -229t-200 -115l362 -504h-190l-344 485h-160z" />
    <glyph glyph-name="Rcaron.alt" unicode="&#xe143;" horiz-adv-x="1058" 
d="M551 1331h-94l-248 254h178l66 -69q30 -33 49 -72h4q10 29 49 72l66 69h178zM334 1073v-463h198q238 0 238 228q0 111 -59 173t-179 62h-198zM334 485v-485h-160v1206h346q418 0 418 -358q0 -137 -72 -229t-200 -115l362 -504h-190l-344 485h-160z" />
    <glyph glyph-name="Rinvertedbreve.alt" unicode="&#xe144;" horiz-adv-x="1058" 
d="M238 1346q0 118 72 188t195 70t195 -70t72 -188h-125q-12 141 -142 141t-143 -141h-124zM334 1073v-463h198q238 0 238 228q0 111 -59 173t-179 62h-198zM334 485v-485h-160v1206h346q418 0 418 -358q0 -137 -72 -229t-200 -115l362 -504h-190l-344 485h-160z" />
    <glyph glyph-name="Rdoublegrave.alt" unicode="&#xe145;" horiz-adv-x="1058" 
d="M442 1341h-123l-235 238h205zM729 1341h-119l-215 238h201zM334 1073v-463h198q238 0 238 228q0 111 -59 173t-179 62h-198zM334 485v-485h-160v1206h346q418 0 418 -358q0 -137 -72 -229t-200 -115l362 -504h-190l-344 485h-160z" />
    <glyph glyph-name="Rcommaaccent.alt" unicode="&#xe146;" horiz-adv-x="1058" 
d="M666 -293q0 -109 -58 -158t-174 -49v70q61 4 89 23t28 69q-53 -10 -85 16t-32 74q0 47 30 74t80 27t86 -40t36 -106zM334 1073v-463h198q238 0 238 228q0 111 -59 173t-179 62h-198zM334 485v-485h-160v1206h346q418 0 418 -358q0 -137 -72 -229t-200 -115l362 -504h-190
l-344 485h-160z" />
    <glyph glyph-name="Rcedilla.alt" unicode="&#xe147;" horiz-adv-x="1058" 
d="M743 -258q0 -86 -58 -130q-59 -44 -161 -44t-162 78l48 98q51 -76 128 -76t76 74q0 90 -143 90l12 178h86l-6 -96q180 -16 180 -172zM334 1073v-463h198q238 0 238 228q0 111 -59 173t-179 62h-198zM334 485v-485h-160v1206h346q418 0 418 -358q0 -137 -72 -229
t-200 -115l362 -504h-190l-344 485h-160z" />
    <glyph glyph-name="Rdotbelow.alt" unicode="&#xe148;" horiz-adv-x="1058" 
d="M414 -290q0 46 31 79q32 33 78 33t79 -33t33 -79t-33 -79t-79 -33t-78 33q-31 33 -31 79zM334 1073v-463h198q238 0 238 228q0 111 -59 173t-179 62h-198zM334 485v-485h-160v1206h346q418 0 418 -358q0 -137 -72 -229t-200 -115l362 -504h-190l-344 485h-160z" />
    <glyph glyph-name="Rdotbelowmacron.alt" unicode="&#xe149;" horiz-adv-x="1058" 
d="M745 1386h-514v121h514v-121zM430 -290q0 46 32 79t78 33t78 -33t33 -79q0 -46 -33 -79q-32 -33 -78 -33t-78 34q-32 32 -32 78zM334 1073v-463h198q238 0 238 228q0 111 -59 173t-179 62h-198zM334 485v-485h-160v1206h346q418 0 418 -358q0 -137 -72 -229t-200 -115
l362 -504h-190l-344 485h-160z" />
    <glyph glyph-name="aogonek.school" unicode="&#xe150;" horiz-adv-x="1077" 
d="M768 371v223q0 120 -77 186t-187 66t-182 -92q-74 -92 -74 -280t72 -280q72 -94 180 -94q110 0 189 72t79 199zM924 946v-946q-92 -4 -161 -60t-69 -147q0 -119 98 -119t148 95l59 -72q-66 -129 -229 -129q-104 0 -162 53q-57 53 -57 149q1 96 67 162q66 68 164 103
l-14 129q-76 -188 -303 -189q-153 0 -263 127t-110 363t111 370t313 134q88 -1 160 -45t92 -101l53 123h103z" />
    <glyph glyph-name="a.school" unicode="&#xe151;" horiz-adv-x="1077" 
d="M924 946v-946h-138l-18 164q-76 -188 -303 -189q-153 0 -263 127t-110 363t111 370t313 134q88 -1 160 -45t92 -101l53 123h103zM768 371v223q0 120 -77 186t-187 66t-182 -92q-74 -92 -74 -280t72 -280q72 -94 180 -94q110 0 189 72t79 199z" />
    <glyph glyph-name="agrave.school" unicode="&#xe152;" horiz-adv-x="1077" 
d="M586 1085h-133l-236 293h215zM924 946v-946h-138l-18 164q-76 -188 -303 -189q-153 0 -263 127t-110 363t111 370t313 134q88 -1 160 -45t92 -101l53 123h103zM768 371v223q0 120 -77 186t-187 66t-182 -92q-74 -92 -74 -280t72 -280q72 -94 180 -94q110 0 189 72t79 199
z" />
    <glyph glyph-name="aacute.school" unicode="&#xe153;" horiz-adv-x="1077" 
d="M588 1085h-133l153 293h215zM924 946v-946h-138l-18 164q-76 -188 -303 -189q-153 0 -263 127t-110 363t111 370t313 134q88 -1 160 -45t92 -101l53 123h103zM768 371v223q0 120 -77 186t-187 66t-182 -92q-74 -92 -74 -280t72 -280q72 -94 180 -94q110 0 189 72t79 199z
" />
    <glyph glyph-name="acircumflex.school" unicode="&#xe154;" horiz-adv-x="1077" 
d="M487 1378h86l250 -293h-166l-73 91q-30 43 -49 81h-9q-10 -33 -49 -81l-74 -91h-165zM924 946v-946h-138l-18 164q-76 -188 -303 -189q-153 0 -263 127t-110 363t111 370t313 134q88 -1 160 -45t92 -101l53 123h103zM768 371v223q0 120 -77 186t-187 66t-182 -92
q-74 -92 -74 -280t72 -280q72 -94 180 -94q110 0 189 72t79 199z" />
    <glyph glyph-name="adieresis.school" unicode="&#xe155;" horiz-adv-x="1077" 
d="M621 1217q1 45 33 77t78 33q46 0 78 -33q32 -34 32 -78t-33 -77t-78 -33t-78 33q-32 33 -32 78zM233 1219q0 45 33 77t78 33q45 0 78 -32q33 -31 33 -77t-33 -79t-78 -33t-78 33t-33 78zM924 946v-946h-138l-18 164q-76 -188 -303 -189q-153 0 -263 127t-110 363t111 370
t313 134q88 -1 160 -45t92 -101l53 123h103zM768 371v223q0 120 -77 186t-187 66t-182 -92q-74 -92 -74 -280t72 -280q72 -94 180 -94q110 0 189 72t79 199z" />
    <glyph glyph-name="atilde.school" unicode="&#xe156;" horiz-adv-x="1077" 
d="M670 1087q-64 0 -174 66q-20 12 -28 15q-8 4 -25 12q-18 8 -44 8q-74 0 -61 -96h-98q-35 94 7 162t125 69q83 0 168 -51t119 -51q66 0 60 102h104q31 -104 -10 -170t-143 -66zM924 946v-946h-138l-18 164q-76 -188 -303 -189q-153 0 -263 127t-110 363t111 370t313 134
q88 -1 160 -45t92 -101l53 123h103zM768 371v223q0 120 -77 186t-187 66t-182 -92q-74 -92 -74 -280t72 -280q72 -94 180 -94q110 0 189 72t79 199z" />
    <glyph glyph-name="aring.school" unicode="&#xe157;" horiz-adv-x="1077" 
d="M532 1386q-53 0 -85 -34q-31 -34 -31 -85q0 -52 30 -83t86 -31q55 0 86 31t31 83q0 51 -32 85t-85 34zM532 1073q-94 0 -148 55q-54 54 -54 138t56 139t146 55t146 -55t57 -138q0 -83 -54 -139q-55 -55 -149 -55zM924 946v-946h-138l-18 164q-76 -188 -303 -189
q-153 0 -263 127t-110 363t111 370t313 134q88 -1 160 -45t92 -101l53 123h103zM768 371v223q0 120 -77 186t-187 66t-182 -92q-74 -92 -74 -280t72 -280q72 -94 180 -94q110 0 189 72t79 199z" />
    <glyph glyph-name="acaron.school" unicode="&#xe158;" horiz-adv-x="1077" 
d="M573 1085h-86l-249 293h165l74 -94q38 -55 49 -82h9q10 33 49 82l73 94h166zM924 946v-946h-138l-18 164q-76 -188 -303 -189q-153 0 -263 127t-110 363t111 370t313 134q88 -1 160 -45t92 -101l53 123h103zM768 371v223q0 120 -77 186t-187 66t-182 -92
q-74 -92 -74 -280t72 -280q72 -94 180 -94q110 0 189 72t79 199z" />
    <glyph glyph-name="amacron.school" unicode="&#xe159;" horiz-adv-x="1077" 
d="M795 1155h-514v125h514v-125zM924 946v-946h-138l-18 164q-76 -188 -303 -189q-153 0 -263 127t-110 363t111 370t313 134q88 -1 160 -45t92 -101l53 123h103zM768 371v223q0 120 -77 186t-187 66t-182 -92q-74 -92 -74 -280t72 -280q72 -94 180 -94q110 0 189 72t79 199
z" />
    <glyph glyph-name="abreve.school" unicode="&#xe15a;" horiz-adv-x="1077" 
d="M528 1081q-124 0 -196 75t-72 204h125q6 -80 37 -120q30 -40 106 -40t107 40t37 120h125q0 -129 -72 -204t-197 -75zM924 946v-946h-138l-18 164q-76 -188 -303 -189q-153 0 -263 127t-110 363t111 370t313 134q88 -1 160 -45t92 -101l53 123h103zM768 371v223
q0 120 -77 186t-187 66t-182 -92q-74 -92 -74 -280t72 -280q72 -94 180 -94q110 0 189 72t79 199z" />
    <glyph glyph-name="ainvertedbreve.school" unicode="&#xe15b;" horiz-adv-x="1077" 
d="M532 1368q125 0 197 -75t72 -203h-125q-6 80 -37 120t-107 39q-76 0 -106 -40t-37 -119h-125q0 130 72 204t196 74zM924 946v-946h-138l-18 164q-76 -188 -303 -189q-153 0 -263 127t-110 363t111 370t313 134q88 -1 160 -45t92 -101l53 123h103zM768 371v223
q0 120 -77 186t-187 66t-182 -92q-74 -92 -74 -280t72 -280q72 -94 180 -94q110 0 189 72t79 199z" />
    <glyph glyph-name="adoublegrave.school" unicode="&#xe15c;" horiz-adv-x="1077" 
d="M459 1085h-123l-236 293h205zM745 1085h-118l-215 293h200zM924 946v-946h-138l-18 164q-76 -188 -303 -189q-153 0 -263 127t-110 363t111 370t313 134q88 -1 160 -45t92 -101l53 123h103zM768 371v223q0 120 -77 186t-187 66t-182 -92q-74 -92 -74 -280t72 -280
q72 -94 180 -94q110 0 189 72t79 199z" />
    <glyph glyph-name="adotabove.school" unicode="&#xe15d;" horiz-adv-x="1077" 
d="M416 1220q0 46 32 78t77 33q46 0 79 -33q33 -32 33 -78t-33 -79t-79 -33t-78 33q-31 33 -31 79zM924 946v-946h-138l-18 164q-76 -188 -303 -189q-153 0 -263 127t-110 363t111 370t313 134q88 -1 160 -45t92 -101l53 123h103zM768 371v223q0 120 -77 186t-187 66
t-182 -92q-74 -92 -74 -280t72 -280q72 -94 180 -94q110 0 189 72t79 199z" />
    <glyph glyph-name="aringacute.school" unicode="&#xe15e;" horiz-adv-x="1077" 
d="M567 1491h-141l127 238h213zM512 1343q-53 1 -85 -33t-32 -86t31 -83t86 -31t86 31t31 83t-32 86t-85 33zM512 1030q-94 0 -148 55t-54 139t56 138q56 55 146 55t146 -55t56 -138q0 -82 -54 -138t-148 -56zM924 946v-946h-138l-18 164q-76 -188 -303 -189
q-153 0 -263 127t-110 363t111 370t313 134q88 -1 160 -45t92 -101l53 123h103zM768 371v223q0 120 -77 186t-187 66t-182 -92q-74 -92 -74 -280t72 -280q72 -94 180 -94q110 0 189 72t79 199z" />
    <glyph glyph-name="adieresismacron.school" unicode="&#xe15f;" horiz-adv-x="1077" 
d="M801 1358h-514v125h514v-125zM627 1155q0 45 32 78q33 33 78 33t78 -33t33 -78t-33 -78t-78 -33t-78 33q-32 33 -32 78zM240 1157q0 45 32 78q33 33 79 33t78 -32t32 -78t-33 -79t-78 -33t-78 33q-32 33 -32 78zM924 946v-946h-138l-18 164q-76 -188 -303 -189
q-153 0 -263 127t-110 363t111 370t313 134q88 -1 160 -45t92 -101l53 123h103zM768 371v223q0 120 -77 186t-187 66t-182 -92q-74 -92 -74 -280t72 -280q72 -94 180 -94q110 0 189 72t79 199z" />
    <glyph glyph-name="ytilde.school" unicode="&#xe160;" horiz-adv-x="1026" 
d="M647 1087q-59 0 -174 66q-19 12 -27 15q-8 4 -25 12t-44 8q-74 0 -62 -96h-98q-35 94 7 162t125 69q83 0 168 -51t120 -51q66 0 59 102h105q31 -104 -11 -170t-143 -66zM143 946h156v-639q0 -113 44 -165t135 -52t165 76t74 205v575h155v-940q0 -229 -117 -334
q-118 -104 -306 -104q-279 0 -371 252l129 67q59 -195 244 -194q266 0 266 293v159q-59 -170 -287 -170q-287 0 -287 316v655z" />
    <glyph glyph-name="g.school" unicode="&#xe161;" horiz-adv-x="1077" 
d="M768 371v223q0 120 -77 186t-187 66t-182 -92q-74 -92 -74 -280t72 -280q72 -94 180 -94q110 0 189 72t79 199zM924 946v-919q0 -125 -41 -218q-70 -159 -247 -218q-73 -24 -149 -23q-317 0 -413 252l131 67q68 -195 278 -194q129 0 208 82t79 231v158
q-78 -188 -305 -189q-153 0 -263 127t-110 360q0 234 112 370t310 137q88 0 161 -44t93 -104l53 125h103z" />
    <glyph glyph-name="gacute.school" unicode="&#xe162;" horiz-adv-x="1077" 
d="M596 1085h-133l153 293h215zM768 371v223q0 120 -77 186t-187 66t-182 -92q-74 -92 -74 -280t72 -280q72 -94 180 -94q110 0 189 72t79 199zM924 946v-919q0 -125 -41 -218q-70 -159 -247 -218q-73 -24 -149 -23q-317 0 -413 252l131 67q68 -195 278 -194q129 0 208 82
t79 231v158q-78 -188 -305 -189q-153 0 -263 127t-110 360q0 234 112 370t310 137q88 0 161 -44t93 -104l53 125h103z" />
    <glyph glyph-name="gcircumflex.school" unicode="&#xe163;" horiz-adv-x="1077" 
d="M496 1378h86l249 -293h-165l-74 91q-30 43 -49 81h-8q-10 -33 -50 -81l-73 -91h-166zM768 371v223q0 120 -77 186t-187 66t-182 -92q-74 -92 -74 -280t72 -280q72 -94 180 -94q110 0 189 72t79 199zM924 946v-919q0 -125 -41 -218q-70 -159 -247 -218q-73 -24 -149 -23
q-317 0 -413 252l131 67q68 -195 278 -194q129 0 208 82t79 231v158q-78 -188 -305 -189q-153 0 -263 127t-110 360q0 234 112 370t310 137q88 0 161 -44t93 -104l53 125h103z" />
    <glyph glyph-name="gtilde.school" unicode="&#xe164;" horiz-adv-x="1077" 
d="M688 1087q-58 0 -174 66q-20 12 -28 15l-24 12q-17 8 -44 8q-74 0 -62 -96h-98q-35 94 7 162t125 69q83 0 168 -51t120 -51q66 0 59 102h105q32 -104 -10 -170t-144 -66zM768 371v223q0 120 -77 186t-187 66t-182 -92q-74 -92 -74 -280t72 -280q72 -94 180 -94
q110 0 189 72t79 199zM924 946v-919q0 -125 -41 -218q-70 -159 -247 -218q-73 -24 -149 -23q-317 0 -413 252l131 67q68 -195 278 -194q129 0 208 82t79 231v158q-78 -188 -305 -189q-153 0 -263 127t-110 360q0 234 112 370t310 137q88 0 161 -44t93 -104l53 125h103z" />
    <glyph glyph-name="gcaron.school" unicode="&#xe165;" horiz-adv-x="1077" 
d="M578 1085h-86l-250 293h166l73 -94q38 -55 49 -82h9q10 33 49 82l74 94h165zM768 371v223q0 120 -77 186t-187 66t-182 -92q-74 -92 -74 -280t72 -280q72 -94 180 -94q110 0 189 72t79 199zM924 946v-919q0 -125 -41 -218q-70 -159 -247 -218q-73 -24 -149 -23
q-317 0 -413 252l131 67q68 -195 278 -194q129 0 208 82t79 231v158q-78 -188 -305 -189q-153 0 -263 127t-110 360q0 234 112 370t310 137q88 0 161 -44t93 -104l53 125h103z" />
    <glyph glyph-name="gbreve.school" unicode="&#xe166;" horiz-adv-x="1077" 
d="M524 1081q-124 0 -196 75t-72 204h125q6 -80 37 -120q30 -40 106 -40t107 40t37 120h125q0 -129 -72 -204t-197 -75zM768 371v223q0 120 -77 186t-187 66t-182 -92q-74 -92 -74 -280t72 -280q72 -94 180 -94q110 0 189 72t79 199zM924 946v-919q0 -125 -41 -218
q-70 -159 -247 -218q-73 -24 -149 -23q-317 0 -413 252l131 67q68 -195 278 -194q129 0 208 82t79 231v158q-78 -188 -305 -189q-153 0 -263 127t-110 360q0 234 112 370t310 137q88 0 161 -44t93 -104l53 125h103z" />
    <glyph glyph-name="gdotaccent.school" unicode="&#xe167;" horiz-adv-x="1077" 
d="M414 1218q0 46 32 78t77 33q46 0 79 -33q33 -32 33 -78t-33 -79t-79 -33t-78 33q-31 33 -31 79zM768 371v223q0 120 -77 186t-187 66t-182 -92q-74 -92 -74 -280t72 -280q72 -94 180 -94q110 0 189 72t79 199zM924 946v-919q0 -125 -41 -218q-70 -159 -247 -218
q-73 -24 -149 -23q-317 0 -413 252l131 67q68 -195 278 -194q129 0 208 82t79 231v158q-78 -188 -305 -189q-153 0 -263 127t-110 360q0 234 112 370t310 137q88 0 161 -44t93 -104l53 125h103z" />
    <glyph glyph-name="gcommaaccent.school" unicode="&#xe168;" horiz-adv-x="1077" 
d="M416 1253q0 109 57 158t174 49v-69q-61 -3 -89 -23t-28 -70q53 10 85 -16t32 -74t-30 -74q-29 -26 -79 -26t-86 40t-36 105zM768 371v223q0 120 -77 186t-187 66t-182 -92q-74 -92 -74 -280t72 -280q72 -94 180 -94q110 0 189 72t79 199zM924 946v-919q0 -125 -41 -218
q-70 -159 -247 -218q-73 -24 -149 -23q-317 0 -413 252l131 67q68 -195 278 -194q129 0 208 82t79 231v158q-78 -188 -305 -189q-153 0 -263 127t-110 360q0 234 112 370t310 137q88 0 161 -44t93 -104l53 125h103z" />
    <glyph glyph-name="gcommaturnedabove.school" unicode="&#xe169;" horiz-adv-x="1077" 
d="M416 1253q0 109 57 158t174 49v-69q-61 -3 -89 -23t-28 -70q53 10 85 -16t32 -74t-30 -74q-29 -26 -79 -26t-86 40t-36 105zM768 371v223q0 120 -77 186t-187 66t-182 -92q-74 -92 -74 -280t72 -280q72 -94 180 -94q110 0 189 72t79 199zM924 946v-919q0 -125 -41 -218
q-70 -159 -247 -218q-73 -24 -149 -23q-317 0 -413 252l131 67q68 -195 278 -194q129 0 208 82t79 231v158q-78 -188 -305 -189q-153 0 -263 127t-110 360q0 234 112 370t310 137q88 0 161 -44t93 -104l53 125h103z" />
    <glyph glyph-name="gstroke.school" unicode="&#xe16a;" horiz-adv-x="1077" 
d="M768 375v219q0 120 -77 186t-176 66t-183 -100t-84 -280q0 -179 72 -272q72 -94 180 -94q110 0 189 72t79 203zM434 -190v71h318q18 55 18 125v158q-78 -188 -305 -189q-153 0 -263 127t-110 360q0 234 112 370t310 137q88 0 161 -44t93 -104l53 125h103v-919
q0 -76 -17 -146h166v-71h-190q-53 -126 -164 -184t-232 -58q-317 0 -413 252l131 67q68 -195 278 -194q158 0 234 117h-283z" />
    <glyph glyph-name="y.school" unicode="&#xe16b;" horiz-adv-x="1026" 
d="M143 946h156v-639q0 -113 44 -165t135 -52t165 76t74 205v575h155v-940q0 -229 -117 -334q-118 -104 -306 -104q-279 0 -371 252l129 67q59 -195 244 -194q266 0 266 293v159q-59 -170 -287 -170q-287 0 -287 316v655z" />
    <glyph glyph-name="ygrave.school" unicode="&#xe16c;" horiz-adv-x="1026" 
d="M590 1085h-133l-236 293h215zM143 946h156v-639q0 -113 44 -165t135 -52t165 76t74 205v575h155v-940q0 -229 -117 -334q-118 -104 -306 -104q-279 0 -371 252l129 67q59 -195 244 -194q266 0 266 293v159q-59 -170 -287 -170q-287 0 -287 316v655z" />
    <glyph glyph-name="yacute.school" unicode="&#xe16d;" horiz-adv-x="1026" 
d="M571 1085h-133l154 293h215zM143 946h156v-639q0 -113 44 -165t135 -52t165 76t74 205v575h155v-940q0 -229 -117 -334q-118 -104 -306 -104q-279 0 -371 252l129 67q59 -195 244 -194q266 0 266 293v159q-59 -170 -287 -170q-287 0 -287 316v655z" />
    <glyph glyph-name="ycircumflex.school" unicode="&#xe16e;" horiz-adv-x="1026" 
d="M451 1378h86l249 -293h-165l-74 91q-30 43 -49 81h-9q-10 -33 -49 -81l-73 -91h-166zM143 946h156v-639q0 -113 44 -165t135 -52t165 76t74 205v575h155v-940q0 -229 -117 -334q-118 -104 -306 -104q-279 0 -371 252l129 67q59 -195 244 -194q266 0 266 293v159
q-59 -170 -287 -170q-287 0 -287 316v655z" />
    <glyph glyph-name="ydieresis.school" unicode="&#xe16f;" horiz-adv-x="1026" 
d="M582 1217q0 45 32 77t78 33q45 0 78 -33q33 -34 33 -78t-33 -77t-78 -33t-78 33q-32 33 -32 78zM195 1219q1 45 33 77t78 33q46 0 78 -32q32 -31 32 -77t-33 -79t-78 -33t-78 33q-32 33 -32 78zM143 946h156v-639q0 -113 44 -165t135 -52t165 76t74 205v575h155v-940
q0 -229 -117 -334q-118 -104 -306 -104q-279 0 -371 252l129 67q59 -195 244 -194q266 0 266 293v159q-59 -170 -287 -170q-287 0 -287 316v655z" />
    <glyph glyph-name="ymacron.school" unicode="&#xe171;" horiz-adv-x="1026" 
d="M772 1155h-514v125h514v-125zM143 946h156v-639q0 -113 44 -165t135 -52t165 76t74 205v575h155v-940q0 -229 -117 -334q-118 -104 -306 -104q-279 0 -371 252l129 67q59 -195 244 -194q266 0 266 293v159q-59 -170 -287 -170q-287 0 -287 316v655z" />
    <glyph glyph-name="cordinal" unicode="&#xe181;" horiz-adv-x="684" 
d="M375 571q-127 0 -205 86t-78 240t80 244t196 90t180 -51q62 -51 64 -144l-120 -22q-16 117 -113 116q-76 0 -115 -63t-39 -165t41 -167q41 -66 119 -65q51 0 79 20t42 80l117 -27q-29 -172 -248 -172z" />
    <glyph glyph-name="ordfeminine.school" unicode="&#xe182;" horiz-adv-x="768" 
d="M666 1214v-626h-103l-24 106q-68 -123 -211 -123q-104 0 -181 83q-75 83 -75 238t76 247q77 92 217 92q63 -1 109 -29t56 -69l21 81h115zM532 831v142q0 82 -45 120q-45 37 -113 37t-120 -57q-51 -57 -51 -173t46 -172q47 -56 117 -56t118 40t48 119z" />
    <glyph glyph-name="gsuperior.school" unicode="&#xe183;" horiz-adv-x="808" 
d="M686 1214v-569q0 -157 -89 -225t-226 -68q-184 0 -281 105l86 94q78 -92 195 -92q182 0 182 159v87q-37 -66 -83 -88t-122 -21q-104 0 -180 80t-76 228t77 238q77 89 216 89q63 0 111 -29t59 -69l37 81h94zM553 850v133q0 78 -45 114t-114 36q-69 -1 -120 -55t-51 -164
t46 -162q47 -54 117 -54t119 38q48 38 48 114z" />
    <glyph glyph-name="ysuperior.school" unicode="&#xe184;" horiz-adv-x="782" 
d="M659 1214v-569q0 -157 -89 -225q-88 -68 -242 -68t-250 105l86 94q66 -92 180 -92q184 0 184 159v99q-41 -119 -194 -119q-92 0 -157 55t-64 170v391h135v-370q0 -137 121 -137q156 0 155 204v303h135z" />
    <glyph glyph-name="p.smcp" unicode="&#xe200;" horiz-adv-x="999" 
d="M342 0h-158v985h326q418 0 418 -332q0 -350 -420 -350h-166v-303zM342 856v-424h154q143 0 204 48q62 48 62 164t-64 164t-200 48h-156z" />
    <glyph glyph-name="p.smcp" unicode="&#xf770;" horiz-adv-x="999" 
d="M342 0h-158v985h326q418 0 418 -332q0 -350 -420 -350h-166v-303zM342 856v-424h154q143 0 204 48q62 48 62 164t-64 164t-200 48h-156z" />
    <glyph glyph-name="a.smcp" unicode="&#xe201;" 
d="M410 571l-76 -192h354l-76 190q-69 169 -88 275l-8 35h-8q-20 -111 -98 -308zM610 985l398 -985h-168l-103 254h-452l-99 -254h-166l400 985h190z" />
    <glyph glyph-name="a.smcp" unicode="&#xf761;" 
d="M410 571l-76 -192h354l-76 190q-69 169 -88 275l-8 35h-8q-20 -111 -98 -308zM610 985l398 -985h-168l-103 254h-452l-99 -254h-166l400 985h190z" />
    <glyph glyph-name="b.smcp" unicode="&#xe202;" horiz-adv-x="1038" 
d="M342 434v-305h223q111 0 163 34t52 122q0 150 -196 149h-242zM342 563h219q180 0 180 148q0 73 -53 109t-139 36h-207v-293zM567 0h-383v985h371q156 1 247 -65t91 -187q0 -186 -180 -223v-6q98 -4 160 -71t63 -159q0 -274 -369 -274z" />
    <glyph glyph-name="b.smcp" unicode="&#xf762;" horiz-adv-x="1038" 
d="M342 434v-305h223q111 0 163 34t52 122q0 150 -196 149h-242zM342 563h219q180 0 180 148q0 73 -53 109t-139 36h-207v-293zM567 0h-383v985h371q156 1 247 -65t91 -187q0 -186 -180 -223v-6q98 -4 160 -71t63 -159q0 -274 -369 -274z" />
    </font>
</defs>
</svg>
